<svg class="window-display" width="1350" height="1080" viewBox="0 0 1350 1080" fill="none" xmlns="http://www.w3.org/2000/svg">
<g clip-path="url(#clip0_124_2)">
<path d="M1350 0H-2.45996V1080H1350V0Z" fill="#6900A9"/>
<path d="M1014.05 606.28L120.72 1201.01H-158.93V785.54L333.08 553.1L581.34 394.67L771.21 444.84L703.81 492.25L717.02 502.27L843.33 433.82L1014.05 606.28Z" fill="#52008C"/>
<path d="M611.09 361.98L610.87 440.23L591.5 402.92L591.72 324.66L611.09 361.98Z" fill="#8028DD" stroke="#230C33" stroke-width="2" stroke-linecap="round" stroke-linejoin="round"/>
<path d="M593.02 394.67L592.8 472.93L487.84 463.65L488.06 385.39L593.02 394.67Z" fill="#8028DD" stroke="#230C33" stroke-width="2" stroke-linecap="round" stroke-linejoin="round"/>
<path d="M771.43 367.66L771.21 445.92L717.02 477.91L717.24 399.65L771.43 367.66Z" fill="#9D3FEF" stroke="#230C33" stroke-width="2" stroke-linecap="round" stroke-linejoin="round"/>
<path d="M717.24 399.65L717.02 477.91L647.78 467.84L648.01 389.59L717.24 399.65Z" fill="#8028DD" stroke="#230C33" stroke-width="2" stroke-linecap="round" stroke-linejoin="round"/>
<path d="M771.43 367.66L717.24 399.65L648.01 389.59L666.15 429.34L614.8 459.18L593.02 394.67L488.06 385.39L541.99 353.56L610.28 362.45L611.09 361.98L591.72 324.66L643.35 294.66L666.21 358.54L771.43 367.66Z" fill="#C67AFC" stroke="#230C33" stroke-width="2" stroke-linecap="round" stroke-linejoin="round"/>
<path d="M666.15 429.34L665.93 507.6L614.57 537.44L614.8 459.18L666.15 429.34Z" fill="#9D3FEF" stroke="#230C33" stroke-width="2" stroke-linecap="round" stroke-linejoin="round"/>
<path d="M614.8 459.18L614.57 537.44L592.8 472.93L593.02 394.67L614.8 459.18Z" fill="#8028DD" stroke="#230C33" stroke-width="2" stroke-linecap="round" stroke-linejoin="round"/>
<path d="M505.16 426.33L504.94 534.58L434.71 494.04L434.93 385.78L505.16 426.33Z" fill="#8028DD" stroke="#230C33" stroke-width="2" stroke-linecap="round" stroke-linejoin="round"/>
<path d="M516.84 440.07L516.62 548.33C516.63 543.15 511.87 538.58 504.94 534.59L505.16 426.33C512.08 430.33 516.85 434.9 516.84 440.07Z" fill="#8028DD" stroke="#230C33" stroke-width="2" stroke-linecap="round" stroke-linejoin="round"/>
<path d="M409.28 488.71L409.06 596.96L333.08 553.1L333.3 444.84L409.28 488.71Z" fill="#8028DD" stroke="#230C33" stroke-width="2" stroke-linecap="round" stroke-linejoin="round"/>
<path d="M559.82 401.22C593.87 420.88 587.89 448.27 539.25 476.54C490.61 504.81 443.33 508.36 409.28 488.71L333.3 444.84L382.21 416.42L452.44 456.97C465.64 464.59 482.41 467.66 503.06 455.66C523.71 443.66 518.35 433.96 505.15 426.34L434.92 385.79L483.83 357.37L559.81 401.24L559.82 401.22Z" fill="#C67AFC" stroke="#230C33" stroke-width="2" stroke-linecap="round" stroke-linejoin="round"/>
<path d="M581.34 429.6L581.12 537.86C581.08 552.32 567.22 568.41 539.03 584.8C490.12 613.22 443.11 616.62 409.06 596.97L409.28 488.71C443.33 508.37 490.34 504.97 539.25 476.54C567.44 460.16 581.3 444.07 581.34 429.6Z" fill="#9D3FEF" stroke="#230C33" stroke-width="2" stroke-linecap="round" stroke-linejoin="round"/>
<path d="M695.62 485.59L695.4 563.85L689.32 549.15L689.54 470.9L695.62 485.59Z" fill="#8028DD" stroke="#230C33" stroke-width="2" stroke-linecap="round" stroke-linejoin="round"/>
<path d="M699.62 497.07L699.4 575.32L652.85 570.5L653.07 492.25L699.62 497.07Z" fill="#8028DD" stroke="#230C33" stroke-width="2" stroke-linecap="round" stroke-linejoin="round"/>
<path d="M706.67 460.94L715.27 487.97L728.49 495.6L712.84 504.7L699.62 497.07L653.07 492.25L670.06 482.22L695.45 485.69L695.62 485.59L689.54 470.9L706.67 460.94Z" fill="#C67AFC" stroke="#230C33" stroke-width="2" stroke-linecap="round" stroke-linejoin="round"/>
<path d="M712.84 504.7L712.62 582.95L699.4 575.32L699.62 497.07L712.84 504.7Z" fill="#8028DD" stroke="#230C33" stroke-width="2" stroke-linecap="round" stroke-linejoin="round"/>
<path d="M728.49 495.6L728.27 573.86L712.62 582.95L712.84 504.7L728.49 495.6Z" fill="#9D3FEF" stroke="#230C33" stroke-width="2" stroke-linecap="round" stroke-linejoin="round"/>
<path d="M670.9 501.31L670.68 579.57C670.68 581.11 669.83 582.76 668.23 584.53L668.45 506.27C670.05 504.49 670.9 502.84 670.9 501.31Z" fill="#C67AFC" stroke="#230C33" stroke-width="2" stroke-linecap="round" stroke-linejoin="round"/>
<path d="M655.23 508.08L655.01 586.34C655.01 585.81 654.61 585.33 653.8 584.86C651.83 583.72 649.53 584.11 645.54 586.43L645.76 508.17C649.76 505.85 652.05 505.46 654.02 506.6C654.82 507.06 655.23 507.54 655.23 508.08Z" fill="#8028DD" stroke="#230C33" stroke-width="2" stroke-linecap="round" stroke-linejoin="round"/>
<path d="M645.76 508.18L645.54 586.43L637.71 590.98L637.93 512.72L645.76 508.18Z" fill="#9D3FEF" stroke="#230C33" stroke-width="2" stroke-linecap="round" stroke-linejoin="round"/>
<path d="M671.21 515.69L670.99 593.95C670.99 593.43 670.64 592.97 669.98 592.59C668 591.45 666 591.51 662.01 593.83L662.23 515.57C666.23 513.25 668.22 513.19 670.2 514.33C670.86 514.71 671.21 515.17 671.21 515.69Z" fill="#8028DD" stroke="#230C33" stroke-width="2" stroke-linecap="round" stroke-linejoin="round"/>
<path d="M662.23 515.57L662 593.82L652.35 599.43L652.57 521.18L662.23 515.57Z" fill="#9D3FEF" stroke="#230C33" stroke-width="2" stroke-linecap="round" stroke-linejoin="round"/>
<path d="M691.98 511.49L691.76 589.75C691.76 593.12 687.93 597.3 679.06 602.46L679.28 524.2C688.16 519.04 691.98 514.86 691.98 511.49Z" fill="#9D3FEF" stroke="#230C33" stroke-width="2" stroke-linecap="round" stroke-linejoin="round"/>
<path d="M687.95 506.14C694.76 510.07 693.62 515.86 679.28 524.2L652.94 539.51L612.08 515.92L635.99 502.03C650.34 493.69 659.78 491.99 666.93 496.12C671.83 498.95 672.05 502.29 668.46 506.27C677.15 502.72 682.44 502.96 687.96 506.14H687.95ZM658.37 524.52L668.11 518.86C671.5 516.89 671.98 515.35 670.21 514.33C668.23 513.19 666.23 513.25 662.24 515.57L652.59 521.18L658.38 524.52M643.73 516.06L651.56 511.51C655.47 509.24 656.22 507.86 654.04 506.6C652.07 505.46 649.77 505.85 645.78 508.17L637.95 512.72L643.73 516.06Z" fill="#C67AFC"/>
<path d="M658.37 524.52L668.11 518.86C671.5 516.89 671.98 515.35 670.21 514.33C668.23 513.19 666.23 513.25 662.24 515.57L652.59 521.18L658.38 524.52M687.95 506.14C694.76 510.07 693.62 515.86 679.28 524.2L652.94 539.51L612.08 515.92L635.99 502.03C650.34 493.69 659.78 491.99 666.93 496.12C671.83 498.95 672.05 502.29 668.46 506.27C677.15 502.72 682.44 502.96 687.96 506.14H687.95ZM643.73 516.06L651.56 511.51C655.47 509.24 656.22 507.86 654.04 506.6C652.07 505.46 649.77 505.85 645.78 508.17L637.95 512.72L643.73 516.06Z" stroke="#230C33" stroke-width="2" stroke-linecap="round" stroke-linejoin="round"/>
<path d="M652.93 539.51L652.71 617.77L611.85 594.18L612.07 515.92L652.93 539.51Z" fill="#8028DD" stroke="#230C33" stroke-width="2" stroke-linecap="round" stroke-linejoin="round"/>
<path d="M679.27 524.2L679.05 602.46L652.71 617.77L652.93 539.51L679.27 524.2Z" fill="#9D3FEF" stroke="#230C33" stroke-width="2" stroke-linecap="round" stroke-linejoin="round"/>
<path d="M876.37 470.13L876.15 598.39C876.15 596.47 874.71 594.77 871.96 593.18C864.3 588.76 855.06 590.67 843.11 597.62L843.33 469.36C855.29 462.41 864.52 460.5 872.18 464.92C874.93 466.51 876.37 468.21 876.37 470.13Z" fill="#8028DD" stroke="#230C33" stroke-width="2" stroke-linecap="round" stroke-linejoin="round"/>
<path d="M934.9 456.65L934.68 584.91C934.66 590.36 931.98 596.07 926.92 601.93L927.14 473.67C932.2 467.81 934.89 462.1 934.9 456.65Z" fill="#9D3FEF" stroke="#230C33" stroke-width="2" stroke-linecap="round" stroke-linejoin="round"/>
<path d="M843.33 433.82L843.1 597.62L818.38 611.99L816.38 445.97L843.33 433.82Z" fill="#9D3FEF" stroke="#230C33" stroke-width="2" stroke-linecap="round" stroke-linejoin="round"/>
<path d="M1014.27 478.02L1014.05 606.28L957.67 639.53L957.9 511.27L1014.27 478.02Z" fill="#9D3FEF" stroke="#230C33" stroke-width="2" stroke-linecap="round" stroke-linejoin="round"/>
<path d="M957.9 511.27L957.67 639.53L884.74 632.36L884.96 504.1L957.9 511.27Z" fill="#8028DD" stroke="#230C33" stroke-width="2" stroke-linecap="round" stroke-linejoin="round"/>
<path d="M884.96 504.1L884.74 632.36L869.25 641.36L869.47 513.1L884.96 504.1Z" fill="#9D3FEF" stroke="#230C33" stroke-width="2" stroke-linecap="round" stroke-linejoin="round"/>
<path d="M863.33 566.22L863.11 694.48L735.42 620.76L735.64 492.5L863.33 566.22Z" fill="#8028DD" stroke="#230C33" stroke-width="2" stroke-linecap="round" stroke-linejoin="round"/>
<path d="M912.24 537.8L912.02 666.06L863.11 694.48L863.33 566.22L912.24 537.8Z" fill="#9D3FEF" stroke="#230C33" stroke-width="2" stroke-linecap="round" stroke-linejoin="round"/>
<path d="M957.9 511.27L884.96 504.1L869.47 513.1L912.25 537.8L863.34 566.22L735.65 492.5L810.65 448.91C852.5 424.59 889.7 419 919.28 436.08C937.8 446.77 939.12 459.81 927.14 473.67L1014.28 478.02L957.9 511.27ZM839.68 495.9L865.22 481.06C877.72 473.8 879.2 468.98 872.18 464.93C864.52 460.51 855.28 462.42 843.33 469.37L818.6 483.74L839.68 495.91" fill="#C67AFC"/>
<path d="M839.68 495.9L865.22 481.06C877.72 473.8 879.2 468.98 872.18 464.93C864.52 460.51 855.28 462.42 843.33 469.37L818.6 483.74L839.68 495.91M957.9 511.27L884.96 504.1L869.47 513.1L912.25 537.8L863.34 566.22L735.65 492.5L810.65 448.91C852.5 424.59 889.7 419 919.28 436.08C937.8 446.77 939.12 459.81 927.14 473.67L1014.28 478.02L957.9 511.27Z" stroke="#230C33" stroke-width="2" stroke-linecap="round" stroke-linejoin="round"/>
<path d="M762.81 587.89L762.59 666.15C762.58 670.95 759.94 676.11 754.94 681.66L755.16 603.4C760.16 597.85 762.8 592.69 762.81 587.89Z" fill="#9D3FEF" stroke="#230C33" stroke-width="2" stroke-linecap="round" stroke-linejoin="round"/>
<path d="M713.85 609.06L713.63 687.32C713.63 685.65 712.37 684.16 709.87 682.71C703.7 679.15 696.521 680.36 684.021 687.62L684.24 609.36C696.74 602.1 703.911 600.89 710.091 604.45C712.591 605.89 713.86 607.39 713.85 609.06Z" fill="#8028DD" stroke="#230C33" stroke-width="2" stroke-linecap="round" stroke-linejoin="round"/>
<path d="M684.23 609.36L684.01 687.61L659.55 701.83L659.77 623.57L684.23 609.36Z" fill="#9D3FEF" stroke="#230C33" stroke-width="2" stroke-linecap="round" stroke-linejoin="round"/>
<path d="M763.76 632.83L763.54 711.09C763.54 709.46 762.461 708.04 760.391 706.84C754.221 703.28 747.98 703.45 735.48 710.71L735.701 632.45C748.201 625.19 754.44 625.01 760.61 628.58C762.68 629.78 763.77 631.2 763.76 632.83Z" fill="#8028DD" stroke="#230C33" stroke-width="2" stroke-linecap="round" stroke-linejoin="round"/>
<path d="M735.7 632.46L735.48 710.71L705.31 728.25L705.53 649.99L735.7 632.46Z" fill="#9D3FEF" stroke="#230C33" stroke-width="2" stroke-linecap="round" stroke-linejoin="round"/>
<path d="M828.68 619.71L828.46 697.97C828.43 708.51 816.49 721.58 788.75 737.7L788.97 659.44C816.71 643.32 828.65 630.25 828.68 619.71Z" fill="#9D3FEF" stroke="#230C33" stroke-width="2" stroke-linecap="round" stroke-linejoin="round"/>
<path d="M706.63 707.29L706.41 785.54L578.72 711.82L578.94 633.57L706.63 707.29Z" fill="#8028DD" stroke="#230C33" stroke-width="2" stroke-linecap="round" stroke-linejoin="round"/>
<path d="M788.97 659.44L788.75 737.69L706.41 785.54L706.63 707.29L788.97 659.44Z" fill="#9D3FEF" stroke="#230C33" stroke-width="2" stroke-linecap="round" stroke-linejoin="round"/>
<path d="M816.08 603C837.37 615.29 833.8 633.38 788.97 659.44L706.63 707.29L578.94 633.57L653.67 590.14C698.51 564.08 728.01 558.77 750.36 571.67C765.68 580.52 766.35 590.98 755.16 603.4C782.3 592.31 798.85 593.05 816.09 603H816.08ZM723.62 660.43L754.05 642.74C764.65 636.58 766.14 631.77 760.6 628.58C754.43 625.02 748.19 625.19 735.69 632.45L705.52 649.98L723.61 660.42M677.85 634L702.31 619.79C714.54 612.68 716.88 608.37 710.07 604.44C703.9 600.88 696.72 602.09 684.22 609.35L659.76 623.56L677.85 634Z" fill="#C67AFC"/>
<path d="M723.62 660.43L754.05 642.74C764.65 636.58 766.14 631.77 760.6 628.58C754.43 625.02 748.19 625.19 735.69 632.45L705.52 649.98L723.61 660.42M816.08 603C837.37 615.29 833.8 633.38 788.97 659.44L706.63 707.29L578.94 633.57L653.67 590.14C698.51 564.08 728.01 558.77 750.36 571.67C765.68 580.52 766.35 590.98 755.16 603.4C782.3 592.31 798.85 593.05 816.09 603H816.08ZM677.85 634L702.31 619.79C714.54 612.68 716.88 608.37 710.07 604.44C703.9 600.88 696.72 602.09 684.22 609.35L659.76 623.56L677.85 634Z" stroke="#230C33" stroke-width="2" stroke-linecap="round" stroke-linejoin="round"/>
</g>
<defs>
<clipPath id="clip0_124_2">
<rect width="1350" height="1080" fill="white"/>
</clipPath>
</defs>
</svg>
