<svg  class="waves" width="404" height="470" viewBox="0 0 404 470" fill="none" xmlns="http://www.w3.org/2000/svg">
<path d="M292.899 315.772C292.899 315.772 294.201 305.615 292.899 299.971C291.597 294.327 293.55 273.27 292.899 270.665C292.248 268.06 295.07 266.54 294.853 262.633C294.637 258.725 290.728 252.43 289.644 247.872C288.559 243.313 285.519 229.854 282.48 225.512C279.441 221.17 274.014 216.612 274.448 215.309C274.881 214.007 277.921 214.658 279.441 213.139C280.96 211.619 284.65 204.889 282.262 202.501C279.875 200.114 275.75 199.245 275.533 195.338C275.315 191.43 278.572 187.74 276.835 183.832C275.098 179.924 273.145 177.754 272.71 173.629C272.275 169.505 270.322 169.071 269.02 164.295C267.718 159.519 270.106 149.75 265.33 146.494C260.554 143.238 251.653 134.554 246.66 134.337C241.667 134.12 234.504 134.337 231.465 135.423C228.426 136.509 221.262 132.884 218.874 134.262C216.486 135.64 218.44 138.462 216.703 140.416C214.967 142.37 210.842 137.811 208.02 139.114C205.198 140.417 200.205 144.323 198.468 150.836C196.732 157.349 197.6 159.954 198.468 163.861C199.337 167.769 195.863 171.242 195.863 175.583C195.863 179.925 191.956 184.701 192.173 187.089C192.39 189.477 190.436 195.121 190.436 200.766C190.436 206.41 198.034 215.31 198.034 215.31C198.034 215.31 181.752 222.908 177.194 223.342C172.635 223.777 157.439 254.602 156.354 260.68C155.268 266.758 157.873 270.883 157.873 270.883C157.873 270.883 155.391 282.389 156.089 293.025C156.788 303.662 154.004 315.773 154.004 315.773H292.898L292.899 315.772Z" stroke="#6900A9" stroke-miterlimit="10"/>
<path d="M301.518 323.972C301.518 323.972 303.024 312.973 301.518 306.862C300.012 300.75 302.27 277.949 301.518 275.128C300.765 272.307 304.028 270.662 303.776 266.43C303.525 262.199 299.008 255.382 297.753 250.446C296.499 245.51 292.985 230.936 289.471 226.235C285.958 221.534 279.683 216.597 280.185 215.187C280.687 213.776 284.2 214.482 285.958 212.836C287.715 211.191 291.981 203.903 289.221 201.318C286.46 198.733 281.692 197.792 281.441 193.561C281.189 189.33 284.954 185.334 282.946 181.103C280.939 176.872 278.68 174.521 278.178 170.055C277.677 165.589 275.417 165.119 273.911 159.947C272.406 154.775 275.166 144.198 269.645 140.672C264.123 137.146 253.833 127.744 248.061 127.509C242.288 127.274 234.006 127.509 230.492 128.684C226.979 129.86 218.696 125.935 215.935 127.427C213.175 128.919 215.433 131.975 213.426 134.091C211.418 136.207 206.649 131.27 203.387 132.681C200.124 134.091 194.352 138.322 192.344 145.374C190.337 152.426 191.34 155.246 192.344 159.477C193.348 163.708 189.332 167.469 189.332 172.17C189.332 176.87 184.814 182.043 185.065 184.628C185.316 187.213 183.058 193.325 183.058 199.436C183.058 205.547 191.842 215.185 191.842 215.185C191.842 215.185 173.018 223.413 167.748 223.883C162.477 224.353 144.909 257.731 143.654 264.313C142.399 270.895 145.411 275.361 145.411 275.361C145.411 275.361 142.54 287.819 143.349 299.338C144.156 310.855 140.938 323.969 140.938 323.969H301.519L301.518 323.972Z" stroke="#6900A9" stroke-miterlimit="10"/>
<path d="M310.316 334.06C310.316 334.06 312.019 322.047 310.316 315.371C308.613 308.696 311.168 283.792 310.316 280.71C309.465 277.629 313.155 275.832 312.871 271.21C312.586 266.589 307.477 259.143 306.058 253.752C304.638 248.36 300.664 232.442 296.69 227.306C292.715 222.171 285.619 216.78 286.186 215.239C286.753 213.699 290.727 214.469 292.715 212.672C294.702 210.875 299.527 202.916 296.405 200.092C293.282 197.267 287.889 196.24 287.605 191.619C287.321 186.998 291.579 182.633 289.308 178.011C287.037 173.39 284.482 170.822 283.914 165.944C283.346 161.066 280.791 160.552 279.088 154.904C277.385 149.256 280.508 137.702 274.262 133.851C268.017 129.999 256.379 119.73 249.849 119.473C243.32 119.216 233.952 119.473 229.978 120.756C226.004 122.04 216.636 117.753 213.513 119.383C210.39 121.013 212.946 124.351 210.674 126.662C208.403 128.973 203.01 123.581 199.319 125.121C195.629 126.662 189.099 131.283 186.828 138.985C184.557 146.688 185.693 149.769 186.828 154.39C187.964 159.011 183.421 163.12 183.421 168.254C183.421 173.388 178.312 179.038 178.596 181.862C178.88 184.686 176.325 191.362 176.325 198.037C176.325 204.712 186.26 215.239 186.26 215.239C186.26 215.239 164.969 224.225 159.008 224.739C153.047 225.253 133.176 261.711 131.756 268.9C130.336 276.089 133.743 280.968 133.743 280.968C133.743 280.968 130.496 294.575 131.41 307.156C132.324 319.736 128.683 334.06 128.683 334.06H310.313H310.316Z" stroke="#6900A9" stroke-miterlimit="10"/>
<path d="M323.056 347.833C323.056 347.833 325.006 334.38 323.056 326.904C321.105 319.429 324.031 291.538 323.056 288.088C322.08 284.638 326.308 282.625 325.982 277.45C325.657 272.274 319.803 263.936 318.178 257.898C316.552 251.859 312 234.033 307.448 228.282C302.895 222.532 294.766 216.493 295.416 214.768C296.066 213.043 300.619 213.906 302.895 211.893C305.172 209.881 310.699 200.968 307.122 197.804C303.546 194.642 297.367 193.491 297.042 188.316C296.717 183.14 301.595 178.253 298.993 173.077C296.392 167.901 293.465 165.026 292.814 159.563C292.164 154.1 289.238 153.525 287.286 147.199C285.335 140.873 288.912 127.934 281.758 123.622C274.604 119.309 261.272 107.808 253.793 107.521C246.314 107.233 235.583 107.521 231.031 108.958C226.478 110.396 215.748 105.595 212.171 107.42C208.594 109.246 211.521 112.983 208.919 115.571C206.318 118.159 200.139 112.121 195.912 113.846C191.685 115.571 184.206 120.747 181.604 129.373C179.003 137.998 180.304 141.449 181.604 146.624C182.905 151.8 177.702 156.4 177.702 162.151C177.702 167.901 171.849 174.227 172.174 177.39C172.499 180.552 169.573 188.028 169.573 195.504C169.573 202.979 180.954 214.768 180.954 214.768C180.954 214.768 156.566 224.831 149.737 225.406C142.908 225.981 120.146 266.81 118.52 274.861C116.894 282.912 120.796 288.375 120.796 288.375C120.796 288.375 117.078 303.614 118.124 317.703C119.17 331.792 115 347.832 115 347.832H323.055L323.056 347.833Z" stroke="#6900A9" stroke-miterlimit="10"/>
<path d="M334.609 359C334.609 359 336.856 344.42 334.609 336.319C332.362 328.217 335.733 297.991 334.609 294.252C333.485 290.513 338.354 288.331 337.979 282.723C337.604 277.114 330.864 268.077 328.992 261.534C327.119 254.99 321.876 235.671 316.634 229.438C311.391 223.206 302.029 216.662 302.778 214.793C303.527 212.923 308.77 213.858 311.391 211.677C314.013 209.496 320.379 199.836 316.259 196.408C312.14 192.981 305.024 191.734 304.651 186.125C304.276 180.516 309.894 175.22 306.897 169.61C303.902 164.001 300.53 160.885 299.781 154.965C299.033 149.044 295.662 148.421 293.415 141.565C291.168 134.71 295.287 120.687 287.048 116.014C278.809 111.339 263.455 98.8757 254.842 98.5642C246.229 98.2526 233.871 98.5642 228.628 100.122C223.385 101.68 211.027 96.4776 206.908 98.4551C202.789 100.434 206.159 104.484 203.163 107.289C200.167 110.093 193.051 103.55 188.183 105.42C183.315 107.289 174.702 112.898 171.705 122.246C168.71 131.594 170.208 135.334 171.705 140.942C173.203 146.551 167.211 151.537 167.211 157.769C167.211 164.001 160.471 170.857 160.844 174.284C161.219 177.711 157.849 185.813 157.849 193.915C157.849 202.016 170.957 214.793 170.957 214.793C170.957 214.793 142.87 225.698 135.005 226.322C127.141 226.945 100.927 271.192 99.054 279.917C97.1813 288.642 101.675 294.563 101.675 294.563C101.675 294.563 97.3927 311.078 98.5973 326.347C99.8029 341.615 95 358.999 95 358.999H334.608L334.609 359Z" stroke="#6900A9" stroke-miterlimit="10"/>
<path d="M348.107 378C348.107 378 350.686 361.465 348.107 352.277C345.527 343.089 349.397 308.81 348.107 304.569C346.816 300.329 352.407 297.855 351.976 291.494C351.546 285.133 343.806 274.885 341.658 267.463C339.507 260.042 333.488 238.132 327.469 231.064C321.449 223.996 310.7 216.575 311.56 214.454C312.42 212.334 318.439 213.394 321.449 210.921C324.459 208.447 331.768 197.493 327.039 193.605C322.309 189.718 314.139 188.303 313.71 181.943C313.279 175.582 319.73 169.575 316.289 163.213C312.85 156.852 308.979 153.318 308.119 146.604C307.26 139.889 303.39 139.182 300.809 131.408C298.23 123.633 302.96 107.73 293.499 102.43C284.04 97.1283 266.412 82.9932 256.522 82.6398C246.633 82.2865 232.444 82.6398 226.424 84.4066C220.405 86.1733 206.216 80.2734 201.487 82.5161C196.757 84.7599 200.627 89.3535 197.187 92.5347C193.747 95.7149 185.578 88.2945 179.988 90.4146C174.399 92.5347 164.51 98.8961 161.069 109.498C157.63 120.099 159.35 124.34 161.069 130.701C162.789 137.062 155.909 142.716 155.909 149.784C155.909 156.852 148.17 164.627 148.599 168.514C149.03 172.4 145.16 181.589 145.16 190.777C145.16 199.965 160.209 214.454 160.209 214.454C160.209 214.454 127.962 226.823 118.932 227.529C109.902 228.236 79.8047 278.417 77.6546 288.312C75.5045 298.207 80.6645 304.922 80.6645 304.922C80.6645 304.922 75.7471 323.651 77.1302 340.968C78.5144 358.284 73 377.999 73 377.999H348.105L348.107 378Z" stroke="#6900A9" stroke-miterlimit="10"/>
<path d="M369.367 419C369.367 419 372.436 398.164 369.367 386.586C366.298 375.007 370.902 331.811 369.367 326.468C367.832 321.124 374.484 318.006 373.972 309.991C373.46 301.975 364.25 289.061 361.693 279.709C359.134 270.357 351.971 242.748 344.809 233.841C337.646 224.934 324.854 215.582 325.878 212.91C326.901 210.239 334.064 211.575 337.646 208.458C341.227 205.341 349.925 191.536 344.297 186.637C338.669 181.739 328.947 179.957 328.436 171.942C327.924 163.925 335.599 156.356 331.506 148.34C327.413 140.324 322.807 135.871 321.784 127.409C320.761 118.948 316.156 118.057 313.085 108.26C310.016 98.4629 315.644 78.4231 304.386 71.744C293.131 65.0637 272.153 47.2515 260.385 46.8063C248.617 46.361 231.733 46.8063 224.57 49.0326C217.406 51.259 200.523 43.8243 194.895 46.6504C189.267 49.4779 193.872 55.2664 189.778 59.2751C185.685 63.2826 175.963 53.9319 169.312 56.6035C162.661 59.2751 150.893 67.2913 146.799 80.6507C142.707 94.0102 144.753 99.3547 146.799 107.37C148.845 115.386 140.659 122.51 140.659 131.417C140.659 140.324 131.449 150.121 131.96 155.019C132.473 159.917 127.868 171.495 127.868 183.073C127.868 194.652 145.776 212.91 145.776 212.91C145.776 212.91 107.402 228.496 96.6574 229.387C85.9125 230.277 50.0973 293.512 47.5388 305.981C44.9803 318.45 51.1204 326.912 51.1204 326.912C51.1204 326.912 45.269 350.514 46.9148 372.334C48.5619 394.155 42 418.999 42 418.999H369.366L369.367 419Z" stroke="#6900A9" stroke-miterlimit="10"/>
<path d="M397.39 468C397.39 468 401.107 441.913 397.39 427.417C393.674 412.921 399.249 358.838 397.39 352.148C395.531 345.459 403.586 341.555 402.966 331.52C402.346 321.484 391.194 305.315 388.098 293.606C385 281.897 376.326 247.33 367.654 236.179C358.981 225.027 343.492 213.319 344.731 209.974C345.97 206.629 354.644 208.301 358.981 204.399C363.317 200.496 373.849 183.213 367.034 177.079C360.22 170.947 348.448 168.715 347.829 158.68C347.209 148.644 356.503 139.167 351.546 129.13C346.59 119.094 341.013 113.519 339.774 102.925C338.535 92.3316 332.96 91.2166 329.242 78.9504C325.525 66.6841 332.34 41.594 318.709 33.2318C305.08 24.8679 279.679 2.56693 265.43 2.00945C251.181 1.45197 230.737 2.00945 222.063 4.79687C213.39 7.58428 192.946 -1.72405 186.131 1.81433C179.317 5.35435 184.893 12.6016 179.936 17.6206C174.98 22.638 163.209 10.9308 155.155 14.2757C147.102 17.6206 132.852 27.657 127.895 44.3831C122.94 61.1092 125.418 67.8007 127.895 77.8354C130.373 87.8717 120.461 96.7915 120.461 107.943C120.461 119.094 109.309 131.36 109.928 137.493C110.548 143.625 104.972 158.121 104.972 172.617C104.972 187.114 126.657 209.974 126.657 209.974C126.657 209.974 80.192 229.487 67.1816 230.602C54.1711 231.717 10.8046 310.888 7.7066 326.499C4.60864 342.11 12.0434 352.704 12.0434 352.704C12.0434 352.704 4.95823 382.254 6.95104 409.574C8.94546 436.894 1 467.998 1 467.998H397.389L397.39 468Z" stroke="#6900A9" stroke-miterlimit="10"/>
</svg>
