<?xml version="1.0" encoding="UTF-8"?><svg id="signuptop" xmlns="http://www.w3.org/2000/svg" viewBox="0 0 483 323"><defs><style>.cls-1,.cls-2,.cls-3{fill:#fff;}.cls-4{fill:#18181b;}.cls-5,.cls-6{fill:#3e00ff;}.cls-7,.cls-8{fill:rgba(24,24,27,.7);}.cls-9{stroke:#b299ff;stroke-linecap:round;stroke-width:2px;}.cls-9,.cls-10{fill:none;}.cls-11{fill:#3e0fff;opacity:.17;}.cls-11,.cls-12,.cls-13{isolation:isolate;}.cls-12{opacity:.35;}.cls-12,.cls-13,.cls-8,.cls-6,.cls-14{fill-rule:evenodd;}.cls-13{opacity:.4;}.cls-2{stroke:#000;stroke-miterlimit:10;}.cls-3{stroke:#18181b;}.cls-10{stroke:#3e00ff;}</style></defs><path class="cls-11" d="m232.6,30.9l99.9-13.1c9.8-1.3,20.6,4.9,24.3,13.7l96,233.5c3.7,8.9-1.3,17.1-11.1,18.4l-99.9,13.1c-9.8,1.3-20.6-4.9-24.3-13.7L221.5,49.3c-3.6-8.9,1.4-17.1,11.1-18.4Z"/><g><path class="cls-2" d="m460.7,256.9L364.7,23.4c-3.7-8.8-14.5-15-24.3-13.7l-99.9,13.1c-9.8,1.3-14.7,9.5-11.1,18.3l96,233.6c3.7,8.8,14.5,15,24.3,13.7l99.9-13.1c9.8-1.3,14.8-9.5,11.1-18.4ZM312.2,27.5l-24.2,3.2c-2.7.4-5.7-1.3-6.7-3.8-1-2.4.4-4.7,3.1-5l24.2-3.2c2.7-.4,5.7,1.3,6.7,3.8,1,2.4-.4,4.6-3.1,5Z"/><path class="cls-14" d="m345.9,16.9l6.5-.8c.2,0,.4.1.5.3l.8,1.8c.1.2,0,.4-.2.4l-6.5.8c-.2,0-.4-.1-.5-.3l-.8-1.8c-.1-.2,0-.4.2-.4Z"/><path class="cls-14" d="m332.8,19l-.2-.2c-.1-.3,0-.5.3-.5h.3c-.2.2-.3.4-.4.7Zm3.6.4c.3.8-.1,1.5-1,1.6s-1.9-.4-2.2-1.2c-.3-.8.1-1.5,1-1.6.9-.1,1.9.4,2.2,1.2Zm-1.3.4l-.8.1-.1-.3.5-.1-.4-.9h.3l.5,1.2Zm.4-1.9c-.1,0-.2.1-.2.1.3.1.7.3.9.5.1-.1,0-.2,0-.3-.1-.2-.4-.4-.7-.3Z"/><path class="cls-14" d="m340.9,18.7l-1.4-.8.1-.3,1.1.6-.6-1.5,1.9,1-.6.8,1.2.6-1,1.4-.6-1.5-.5.8-.3-.2.7-.9Zm.3-.3l.3-.5-.7-.4.4.9Zm1,.9l-.4.5-.4-.9.8.4Z"/><g><path class="cls-14" d="m240.5,30.1l.4-.1c.2,0,.4.1.5.3l1.1,2.6c.1.2,0,.4-.2.4l-.4.1c-.2,0-.4-.1-.5-.3l-1.1-2.6c-.1-.1,0-.3.2-.4Z"/><path class="cls-14" d="m239.5,31l-.4.1c-.2,0-.3.2-.2.4l.8,1.9c.1.2.3.3.5.3l.4-.1c.2,0,.3-.2.2-.4l-.8-1.9c-.1-.2-.3-.4-.5-.3Zm-1.7.9l.4-.1c.2,0,.4.1.5.3l.5,1.3c.1.2,0,.4-.2.4l-.4.1c-.2,0-.4-.1-.5-.3l-.5-1.3c-.1-.2,0-.4.2-.4Zm-1.4.7l.4-.1c.2,0,.4.1.5.3l.4.8c.1.2,0,.4-.2.4h-.5c-.2,0-.4-.1-.5-.3l-.4-.8c0-.1.1-.3.3-.3Z"/><path class="cls-14" d="m248.9,29.9c-.9-.4-1.9-.6-2.8-.5-.9.1-1.7.5-2.1,1.2l-.1.1s0,.1.1.1l.6.3c.1.1.1,0,.1,0h0c.4-.5.9-.8,1.7-.9.7-.1,1.5.1,2.2.4l.1.1c.1.1.1,0,.1,0l.3-.4c0-.2,0-.3-.2-.4h0Zm-2.3.6c.6-.1,1.2,0,1.8.3l.1.1.1.1-.3.4s-.1.1-.1,0l-.1-.1c-.4-.2-.8-.2-1.2-.2-.4.1-.7.2-.9.4h-.1l-.6-.3-.1-.1.1-.1c.2-.1.7-.4,1.3-.5Zm.5,1.2c.2,0,.5,0,.7.1l.1.1c.1,0,.1.1.1.2l-.5.7s-.1.1-.1,0l-.9-.5-.1-.1.1-.1c.2-.3.3-.4.6-.4Z"/></g></g><path class="cls-6" d="m237.8,44.4c-.2-.1-.3-.4-.2-.5l2-2.8c.1-.2.4-.2.7-.1.2.1.3.4.2.5l-1.8,2.5,3.6,1.8c.2.1.3.4.2.5-.1.2-.4.2-.7.1l-4-2Z"/><path class="cls-12" d="m345.3,16.2l6.9-.9c.5-.1,1.1.2,1.2.7l.9,2.1c.2.5-.1.9-.6.9l-6.9.9c-.5.1-1.1-.2-1.2-.7l-.9-2.1c-.2-.4.1-.8.6-.9Zm.1.4c-.3,0-.5.3-.3.6l.9,2.1c.1.3.4.4.8.4l6.9-.9c.3,0,.5-.3.4-.6l-.9-2.1c-.1-.3-.4-.4-.8-.4l-7,.9Z"/><path class="cls-13" d="m353.8,16.3c.4.1.7.4.9.7.1.3.1.7-.2.9l-.7-1.6Z"/><path class="cls-4" d="m249.2,70l-3.4-8.2,2-.3,2.7,6.6,3.4-.5.6,1.6-5.3.8Zm9.6-1.1c-.5.1-1,0-1.5-.1s-.9-.3-1.3-.5c-.4-.2-.7-.6-1.1-1-.3-.4-.6-.8-.8-1.3s-.3-.9-.3-1.4c0-.4,0-.8.2-1.1s.4-.6.7-.8c.4-.2.8-.4,1.3-.4.6-.1,1.1,0,1.5.1.5.1.9.3,1.3.6s.7.6,1,.9c.3.4.5.7.7,1.2l.2.5-4.4.6v.1c.2.4.4.7.8.9.3.2.8.3,1.3.2.4-.1.7-.2.9-.3.2-.2.3-.4.5-.6l1.4,1c-.2.4-.5.7-.9.9-.4.2-.9.4-1.5.5Zm-2.2-5.2c-.4.1-.7.2-.8.5-.1.3-.1.6.1,1v.1l2.4-.3-.1-.1c-.2-.4-.4-.6-.7-.9-.2-.2-.5-.3-.9-.3Zm9,4.2c-.7.1-1.2,0-1.7-.3s-.8-.7-1.1-1.3l-1.3-3-1,.1-.6-1.4.5-.1c.2,0,.4-.1.5-.2.1-.1,0-.3-.1-.5l-.4-1,1.7-.2.7,1.7,1.4-.2.6,1.4-1.4.2,1.5,3.5,1.3-.2.6,1.4-1.2.1Zm4.9-.5c-.6.1-1.2.1-1.8-.1-.5-.1-1-.4-1.5-.7l.7-1.2c.3.2.7.4,1,.5s.7.1,1.1.1c.4-.1.6-.1.7-.3.1-.1.1-.3,0-.5-.1-.3-.4-.4-.9-.4h-.8c-1.6,0-2.6-.5-3.1-1.6-.1-.3-.2-.6-.1-.8,0-.3.1-.5.3-.7.2-.2.4-.4.7-.5.3-.1.6-.2,1-.3s.7-.1,1-.1.6,0,.8.1c.2,0,.5.1.7.2.2.1.5.2.7.3l-.7,1.2c-.3-.2-.6-.3-.9-.4-.3-.1-.6-.1-.9-.1s-.5.1-.6.2c-.1.1-.1.2-.1.4.1.2.2.3.3.4.1.1.3.1.6.1h.8c1.6,0,2.6.5,3,1.6.1.3.2.6.1.9,0,.3-.1.5-.3.7-.2.2-.4.4-.7.5-.3.3-.6.4-1.1.5Zm13.8-1.5c.1.3.2.6.2.9s-.1.5-.4.7c-.2.2-.5.4-1,.5-.4.2-1,.3-1.7.4-.6.1-1.1.1-1.6.1-.4,0-.8-.1-1.1-.1-.3-.1-.5-.2-.7-.4-.2-.2-.3-.4-.4-.6-.1-.3-.1-.6,0-.8.1-.2.4-.4.8-.5l-.1-.1c-.4,0-.6-.1-.9-.3-.3-.2-.4-.4-.5-.7-.1-.2-.1-.3-.1-.4s.1-.2.2-.4c.1-.1.2-.2.3-.3.1-.1.3-.1.4-.2h0c-.5-.1-.9-.3-1.2-.6-.3-.3-.6-.6-.8-1-.3-.6-.2-1.2.1-1.6.4-.5,1-.8,2-.9.5-.1.9-.1,1.2,0l-.1-.2c-.1-.3-.1-.6,0-.8s.4-.3.7-.3l1.1-.1.5,1.3-1.5.2v.1c.5.1.9.3,1.2.6.3.3.6.6.7,1,.3.6.2,1.2-.1,1.6-.3.4-1,.7-2,.8-.4.1-.9.1-1.3,0-.2.2-.2.3-.1.5.1.1.2.3.4.3.2.1.4.1.7,0l2-.3c.8-.1,1.5-.1,2,.2.4.4.8.8,1.1,1.4Zm-1.7.4c-.1-.2-.2-.3-.4-.4-.2-.1-.5-.1-.9-.1l-2.3.3c-.1.1-.1.2-.1.3s0,.2.1.3c.1.2.3.4.5.5.3.1.7.1,1.2,0l.8-.1c.5-.1.9-.2,1-.3.1,0,.1-.2.1-.5Zm-3.6-3.7c.4-.1.6-.2.8-.3.1-.2.1-.4,0-.7l-.1-.1c-.1-.3-.3-.5-.6-.6-.2-.1-.5-.2-.9-.1-.4.1-.6.2-.8.3-.1.2-.1.4,0,.7l.1.1c.1.3.3.5.5.6.4.1.7.1,1,.1Zm8.8,2.5c-.5.1-1,0-1.5-.1s-.9-.3-1.3-.5-.7-.6-1.1-1c-.3-.4-.6-.8-.8-1.3-.2-.5-.3-.9-.3-1.4,0-.4,0-.8.2-1.1s.4-.6.7-.8c.4-.2.8-.4,1.3-.4.6-.1,1.1,0,1.5.1.5.1.9.3,1.3.6s.7.6,1,.9c.3.4.5.7.7,1.2l.2.5-4.4.6v.1c.2.4.4.7.8.9.3.2.8.3,1.3.2.4-.1.7-.2.9-.3.2-.2.3-.4.5-.6l1.4,1c-.2.4-.5.7-.9.9-.4.2-.9.4-1.5.5Zm-2.2-5.2c-.4.1-.7.2-.8.5-.1.3-.1.6.1,1v.1l2.4-.3-.1-.1c-.2-.4-.4-.6-.7-.9-.2-.2-.5-.3-.9-.3Zm9,4.2c-.7.1-1.2,0-1.7-.3s-.8-.7-1.1-1.3l-1.3-3-1,.1-.6-1.4.5-.1c.2,0,.4-.1.5-.2.1-.1,0-.3-.1-.5l-.4-1,1.7-.2.7,1.7,1.4-.2.6,1.4-1.4.2,1.5,3.5,1.3-.2.6,1.4-1.2.1Zm8-.9c-.6.1-1.2.1-1.8-.1-.5-.1-1-.4-1.5-.7l.7-1.2c.3.2.7.4,1,.5.4.1.7.1,1.1.1.4-.1.6-.1.7-.3.1-.1.1-.3,0-.5-.1-.3-.4-.4-.9-.4h-.8c-1.6,0-2.6-.5-3.1-1.6-.1-.3-.2-.6-.1-.8,0-.3.1-.5.3-.7.2-.2.4-.4.7-.5.3-.1.6-.2,1-.3s.7-.1,1-.1.6,0,.8.1c.2,0,.5.1.7.2.2.1.5.2.7.3l-.7,1.2c-.3-.2-.6-.3-.9-.4-.3-.1-.6-.1-.9-.1s-.5.1-.6.2c-.1.1-.1.2-.1.4.1.2.2.3.3.4.1.1.3.1.6.1h.8c1.6,0,2.6.5,3,1.6.1.3.2.6.1.9,0,.3-.1.5-.3.7-.2.2-.4.4-.7.5-.3.3-.7.4-1.1.5Zm6.4-1c-.7.1-1.2,0-1.7-.3s-.8-.7-1.1-1.3l-1.3-3-1,.1-.6-1.4.5-.1c.2,0,.4-.1.5-.2.1-.1,0-.3-.1-.5l-.4-1,1.7-.2.7,1.7,1.4-.2.6,1.4-1.4.2,1.5,3.5,1.3-.2.6,1.4-1.2.1Zm7.6-1c-.4.1-.7,0-1-.2s-.5-.4-.8-.7h-.1c.1.4,0,.7-.3,1-.3.2-.6.4-1.2.5-.7.1-1.3,0-1.8-.3s-.9-.7-1.1-1.2c-.3-.6-.2-1.2.2-1.5.4-.4,1-.6,1.9-.8l1.1-.1-.2-.4c-.1-.3-.3-.5-.5-.7-.3-.2-.6-.2-1-.2-.4.1-.7.2-.8.4-.2.2-.3.4-.4.6l-1.5-.8c.1-.4.4-.7.7-1,.4-.3.9-.5,1.6-.5,1-.1,1.8-.1,2.4.3.7.3,1.1.9,1.4,1.6l1.1,2.7.6-.1.6,1.4h-.9Zm-3-.8c.3,0,.6-.1.8-.3.2-.2.2-.4.1-.7l-.3-.7-.9.1c-.8.1-1,.4-.9.8l.1.2c.1.2.2.4.4.5.1.1.4.2.7.1Zm5.4.5l-2.5-6.2,1.9-.2.6,1.4h.1c-.1-.2-.1-.4,0-.5,0-.2.1-.4.2-.5s.2-.3.4-.4c.2-.1.4-.2.7-.2l.3-.1.7,1.6-.5.1c-.6.1-.9.2-1.2.4-.2.2-.2.4-.1.8l1.5,3.6-2.1.2Zm7.7-1c-.7.1-1.2,0-1.7-.3s-.8-.7-1.1-1.3l-1.3-3-1,.1-.6-1.4.5-.1c.2,0,.4-.1.5-.2.1-.1,0-.3-.1-.5l-.4-1,1.7-.2.7,1.7,1.4-.2.6,1.4-1.4.2,1.5,3.5,1.3-.2.6,1.4-1.2.1Zm5.4-.6c-.5.1-1,0-1.5-.1s-.9-.3-1.3-.5-.7-.6-1.1-1c-.3-.4-.6-.8-.8-1.3-.2-.5-.3-.9-.3-1.4,0-.4,0-.8.2-1.1s.4-.6.7-.8c.3-.2.8-.4,1.3-.4.6-.1,1.1,0,1.5.1.5.1.9.3,1.3.6s.7.6,1,.9c.3.4.5.7.7,1.2l.2.5-4.4.6v.1c.2.4.4.7.8.9.3.2.8.3,1.3.2.4-.1.7-.2.9-.3.2-.2.3-.4.5-.6l1.4,1c-.2.4-.5.7-.9.9-.3.2-.8.4-1.5.5Zm-2.1-5.2c-.4.1-.7.2-.8.5-.1.3-.1.6.1,1v.1l2.4-.3-.1-.1c-.2-.4-.4-.6-.7-.9-.2-.2-.5-.3-.9-.3Zm10.3,2.9h0c-.1.2-.1.3-.1.5-.1.2-.1.3-.3.4-.1.1-.3.2-.5.3s-.4.2-.6.2c-.9.1-1.6-.1-2.3-.6-.7-.5-1.2-1.3-1.7-2.3-.4-1.1-.5-1.9-.3-2.5s.8-1,1.6-1.1c.4-.1.9,0,1.3.2s.8.4,1,.8h.1l-1.5-3.6,1.9-.2,3.6,8.7-1.9.2-.3-1Zm-1.4-.1c.4-.1.6-.2.8-.4.2-.2.2-.4.1-.7l-.8-1.8c-.1-.3-.3-.5-.6-.6-.3-.1-.6-.2-1-.1-.4.1-.6.2-.8.5-.1.3-.1.6.1,1l.5,1.1c.2.4.4.7.7.9.3.1.7.1,1,.1Z"/><path class="cls-5" d="m331.8,252.9l105-13.7c4.8-.6,10.1,2.4,11.9,6.7,1.8,4.4-.6,8.3-5.4,9l-105,13.7c-4.8.6-10.1-2.4-11.9-6.7-1.8-4.3.6-8.4,5.4-9Z"/><path class="cls-1" d="m359.6,260.4c-.4.1-.8,0-1.2-.1-.3-.1-.7-.3-1-.5l.4-.6c.3.2.5.3.8.4s.5.1.8.1.5-.1.6-.3c.1-.2.1-.3,0-.6-.1-.2-.2-.3-.3-.4-.2-.1-.4-.2-.7-.2h-.5c-.5,0-.9-.1-1.3-.3-.3-.2-.6-.5-.7-.8-.1-.2-.1-.4-.1-.5,0-.2.1-.4.2-.5s.2-.2.4-.3c.2-.1.4-.2.7-.2.4-.1.8,0,1,.1.4.1.6.2.9.4l-.4.5c-.2-.1-.4-.2-.6-.3-.2-.1-.5-.1-.8,0-.3,0-.5.1-.6.2s-.1.3-.1.5c.1.2.2.3.4.4.2.1.4.1.7.1h.5c.5,0,1,.1,1.3.3.3.2.6.5.7.8.1.2.1.4.1.6s-.1.4-.2.5l-.4.4c-.1.2-.3.2-.6.3Zm4.2-.6h-.8c-.2-.1-.5-.1-.7-.3-.2-.1-.4-.3-.6-.5s-.3-.5-.4-.7c-.1-.3-.2-.5-.2-.7s0-.4.1-.6.2-.3.4-.4c.2-.1.4-.2.7-.2h.8c.2.1.5.2.7.3.2.1.4.3.5.5.2.2.3.4.4.6l.1.3-2.6.3.1.1c.1.3.3.5.5.6s.5.2.8.1c.2,0,.4-.1.5-.2s.2-.3.3-.4l.6.4c-.1.2-.2.4-.4.6-.1.1-.4.2-.8.2Zm-1.2-3c-.1,0-.3.1-.3.1-.1.1-.2.1-.2.2-.1.1-.1.2-.1.3s0,.2.1.4h0l1.8-.2v-.1c-.1-.3-.3-.5-.5-.6-.3,0-.5-.1-.8-.1Zm3.7,2.6l-1.4-3.4.8-.1.2.6h0c0-.2.1-.4.2-.5.1-.2.3-.2.6-.3.4-.1.7,0,1,.2.3.2.6.5.7.9l.9,2.2-.8.1-.9-2.1c-.2-.5-.6-.8-1-.7-.1,0-.2.1-.3.1s-.2.1-.2.1q-.1.1-.1.2v.2l.9,2.3-.6.2Zm6.4-1.4h0c0,.2-.1.4-.2.5s-.3.2-.6.2c-.5.1-.9-.1-1.3-.3-.4-.3-.7-.7-.9-1.3-.2-.6-.3-1-.1-1.4.1-.3.4-.5.9-.6.2,0,.5,0,.7.1s.4.2.6.4h0l-.8-2,.8-.1,2,4.8-.8.1-.3-.4Zm-.9.1c.2,0,.4-.1.5-.2s.1-.3.1-.5l-.5-1.2c-.1-.2-.2-.3-.4-.4s-.4-.1-.7-.1-.4.2-.6.3c-.1.2-.1.4,0,.7l.2.6c.1.3.3.5.5.6.4.2.6.3.9.2Zm5-4.2l1.6,3.9-.8.1-1.6-3.9-1.5.2-.3-.6,3.8-.5.3.6-1.5.2Zm4.9,3.6h-.8c-.2-.1-.5-.1-.7-.3-.2-.1-.4-.3-.6-.5s-.3-.5-.4-.7c-.1-.3-.2-.5-.2-.7s0-.4.1-.6c.1-.2.2-.3.4-.4s.4-.2.7-.2h.8c.2.1.5.2.7.3s.4.3.5.5c.2.2.3.4.4.6l.1.3-2.6.3.1.1c.1.3.3.5.5.6s.5.2.8.1c.2,0,.4-.1.5-.2s.2-.3.3-.4l.6.4c-.1.2-.2.4-.4.6-.1,0-.4.1-.8.2Zm-1.2-3c-.1,0-.3.1-.3.1-.1.1-.2.1-.2.2-.1.1-.1.2-.1.3s0,.2.1.4h0l1.8-.2v-.1c-.1-.3-.3-.5-.5-.6-.3-.1-.6-.1-.8-.1Zm3.2,2.7l.6-1.9-2-1.5.9-.1,1.3,1.1h0l.4-1.3.8-.1-.6,1.8,2,1.5-.9.1-1.4-1.1h0l-.4,1.4-.7.1Zm5.3-.8c-.3,0-.5,0-.7-.1s-.4-.3-.4-.5l-.9-2.1-.6.1-.2-.6h.3c.1,0,.2,0,.2-.1.1-.1,0-.1,0-.2l-.2-.6.7-.1.4.9.8-.1.2.6-.8.1.9,2.2.7-.1.2.6h-.6Zm5.7-4.4h0l-.1.8-.4,2-1.9-1.7-.7-.7h0l1.5,3.5-.8.1-1.9-4.6,1-.1,2.3,2.1h0l.4-2.5.9-.1,1.9,4.6-.8.1-1.4-3.5Zm5,3.1h-.8c-.2-.1-.5-.1-.7-.3-.2-.1-.4-.3-.6-.5s-.3-.5-.4-.7c-.1-.3-.2-.5-.2-.7s0-.4.1-.6c.1-.2.2-.3.4-.4s.4-.2.7-.2h.8c.2.1.5.2.7.3s.4.3.5.5c.2.2.3.4.4.6l.1.3-2.6.3.1.1c.1.3.3.5.5.6s.5.2.8.1c.2,0,.4-.1.5-.2.1-.1.2-.3.3-.4l.6.4c-.1.2-.2.4-.4.6-.2.1-.5.2-.8.2Zm-1.3-3c-.1,0-.3.1-.3.1-.1.1-.2.1-.2.2-.1.1-.1.2-.1.3s0,.2.1.4h0l1.8-.2v-.1c-.1-.3-.3-.5-.5-.6-.3-.1-.5-.1-.8-.1Zm5,2.5c-.4.1-.7,0-1-.1s-.6-.2-.8-.4l.4-.5.6.3c.2.1.4.1.7.1.2,0,.4-.1.5-.2.1-.1.1-.2.1-.4-.1-.1-.1-.2-.2-.2-.1-.1-.3-.1-.5-.1h-.3c-.4,0-.7-.1-1-.2-.3-.1-.5-.4-.6-.7-.1-.2-.1-.3-.1-.4s.1-.3.2-.4c.1-.1.2-.2.4-.3.2-.1.3-.1.5-.1.3-.1.6,0,.9.1s.5.2.7.3l-.3.5c-.1-.1-.3-.2-.5-.2-.2-.1-.4-.1-.6,0-.2,0-.4.1-.5.2-.1.1-.1.2,0,.3s.1.2.2.3.3.1.5.1h.4c.4,0,.8.1,1,.2.3.1.5.4.6.6.1.2.1.3.1.5,0,.1-.1.3-.2.4-.1.1-.2.2-.4.3-.4,0-.6,0-.8,0Zm3.5-.4c-.4.1-.7,0-1-.1s-.6-.2-.8-.4l.3-.5.6.3c.2.1.4.1.7.1.2,0,.4-.1.5-.2.1-.1.1-.2.1-.4-.1-.1-.1-.2-.2-.2-.1-.1-.3-.1-.5-.1h-.4c-.4,0-.7-.1-1-.2-.3-.1-.5-.4-.6-.7-.1-.2-.1-.3-.1-.4s.1-.3.2-.4c.1-.1.2-.2.4-.3.2-.1.3-.1.5-.1.3-.1.6,0,.9.1s.5.2.7.3l-.3.5c-.1-.1-.3-.2-.5-.2-.2-.1-.4-.1-.6,0-.2,0-.4.1-.5.2-.1.1-.1.2,0,.3s.1.2.2.3.3.1.5.1h.3c.4,0,.8.1,1,.2.3.1.5.4.6.6.1.2.1.3.1.5,0,.1-.1.3-.2.4-.1.1-.2.2-.4.3-.2-.1-.3,0-.5,0Zm5.1-.8c-.2,0-.4,0-.5-.1-.2-.1-.3-.2-.4-.4h0c0,.2-.1.4-.2.5l-.6.3c-.4.1-.7,0-1-.2-.3-.1-.5-.4-.6-.7s-.1-.6.1-.8.6-.4,1.1-.4l.7-.1-.1-.3c-.1-.2-.2-.4-.4-.5-.2-.1-.4-.1-.7-.1-.2,0-.4.1-.5.2-.1.1-.2.2-.2.4l-.6-.3c.1-.2.2-.4.3-.5.2-.2.5-.3.8-.3.5-.1.9,0,1.2.2.3.2.6.4.7.8l.7,1.7.4-.1.2.6-.4.1Zm-1.8-.2c.2,0,.4-.1.6-.2.1-.1.1-.3.1-.4l-.2-.5-.6.1c-.5.1-.7.3-.6.5l.1.1c.1.1.2.3.3.3,0,.1.1.1.3.1Zm6.4,0c.1.3.1.7-.1.9s-.7.4-1.3.5c-.3,0-.6.1-.8,0-.2,0-.4,0-.6-.1s-.3-.1-.4-.2c-.1-.1-.2-.2-.2-.4-.1-.2-.1-.3,0-.5.1-.1.2-.2.4-.3v-.1c-.3,0-.5-.2-.6-.5-.1-.2-.1-.3,0-.4.1-.1.2-.2.4-.3h0c-.3-.1-.5-.2-.7-.3-.2-.2-.3-.4-.4-.6-.1-.3-.1-.6.1-.9.2-.3.5-.4,1-.5h.7v-.1c-.1-.1-.1-.3,0-.4.1-.1.2-.2.3-.2l.6-.1.2.6-.8.1.1.1c.2.1.4.2.6.4s.3.3.4.5c.1.3.1.6-.1.9-.2.3-.5.4-1,.5h-.5c-.1.1-.2.1-.2.2q-.1.1,0,.2c0,.1.1.2.2.2h.4l.9-.1c.5-.1.8,0,1.1.1,0,.2.2.5.3.8Zm-.7.1c-.1-.1-.2-.2-.3-.2-.1-.1-.3-.1-.6,0l-1.3.2c-.1.1-.2.3-.1.4.1.1.2.2.3.3.2.1.4.1.7.1l.5-.1c.7-.1.9-.4.8-.7Zm-2-1.9c.2,0,.4-.1.5-.2s.1-.3,0-.5l-.1-.1c-.1-.2-.2-.4-.4-.4-.2-.1-.4-.1-.6-.1s-.4.1-.5.2c-.1.1-.1.3,0,.5l.1.1c.1.2.2.4.4.4.2.1.3.1.6.1Zm4.6,1.3h-.8c-.2-.1-.5-.1-.7-.3-.2-.1-.4-.3-.6-.5s-.3-.5-.4-.7c-.1-.3-.2-.5-.2-.7s0-.4.1-.6c.1-.2.2-.3.4-.4s.4-.2.7-.2h.8c.2.1.5.2.7.3s.4.3.5.5c.2.2.3.4.4.7l.1.3-2.6.3.1.1c.1.3.3.5.5.6s.5.2.8.1c.2,0,.4-.1.5-.2.1-.1.2-.3.3-.4l.6.4c-.1.2-.2.4-.4.6-.1-.1-.4,0-.8.1Zm-1.2-3c-.1,0-.3.1-.3.1-.1.1-.2.1-.2.2-.1.1-.1.2-.1.3s0,.2.1.4h0l1.8-.2v-.1c-.1-.3-.3-.5-.5-.6-.3-.1-.5-.2-.8-.1Z"/><path class="cls-10" d="m331.3,251.8l105-13.7c5.5-.7,11.6,2.7,13.6,7.7,2.1,5-.7,9.6-6.2,10.3l-105,13.7c-5.5.7-11.6-2.7-13.6-7.7-2-5,.7-9.6,6.2-10.3Z"/><path d="m311.8,223.7l1.3-.2c.2,0,.5,0,.6.1.2.1.4.3.4.5.1.1.1.2.1.3s0,.1-.1.2l-.1.1-.1.1h.2c.1,0,.2.1.2.1.1.1.2.1.2.2.1.1.1.2.2.3s.1.2.1.3,0,.2-.1.3-.1.2-.2.2c-.1.1-.2.1-.3.1l-1.4.2-1-2.8Zm1.4,2.4l.9-.1c.1,0,.3-.1.3-.2.1-.1.1-.2,0-.3l-.1-.1c-.1-.1-.1-.2-.3-.3-.1-.1-.3-.1-.4-.1l-.9.1.5,1Zm-.5-1.3l.8-.1c.1,0,.3-.1.3-.1.1-.1.1-.2,0-.3l-.1-.1c-.1-.1-.1-.2-.2-.3s-.2-.1-.4-.1l-.8.1.4.9Zm3.6-1l.4-.1v2.8s0,.1-.1.1-.1.1-.1.1c0,0-.1,0-.2.1h-.2l-.1-.3.4-.1v-.5l-1.7-2,.4-.1,1.1,1.3.2.3h0v-.4l-.1-1.2Zm4.5,1.6h-.3c-.1,0-.2-.1-.2-.2h0c0,.1,0,.2-.1.3s-.2.1-.4.2c-.2,0-.5,0-.6-.1-.2-.1-.3-.2-.4-.4s-.1-.4.1-.5c.1-.1.4-.2.7-.2l.4-.1-.1-.2c-.1-.1-.1-.2-.3-.3-.1-.1-.3-.1-.5-.1-.1,0-.3.1-.3.1-.1.1-.1.2-.1.3l-.3-.1c0-.1.1-.2.2-.3s.3-.1.5-.2c.3,0,.5,0,.7.1s.4.3.4.5l.5,1.1h.2l.1.3-.2-.2Zm-1.1-.1q.1,0,.2-.1c.1,0,.1-.1.2-.1l.1-.1v-.1l-.1-.3-.5.1c-.2,0-.3.1-.4.1q-.1.1,0,.2v.1c.1.1.1.2.2.2,0,0,.1,0,.3,0Zm1-2l.4-.1.1.3c0-.1.1-.2.1-.3.1-.1.2-.1.4-.2h.4c.1,0,.3.1.4.2.1.1.2.2.3.3.1.1.2.3.3.4.1.2.1.3.1.4s0,.2-.1.4c-.1.1-.1.2-.2.3s-.2.1-.3.1c-.3,0-.6,0-.8-.3l.5,1.1-.4.1-1.2-2.7Zm1.7,1.6c.2,0,.3-.1.4-.2.1-.1.1-.3,0-.5l-.1-.3c-.1-.2-.2-.3-.3-.4-.2-.1-.3-.2-.5-.1q-.1,0-.2.1c-.1,0-.1.1-.2.1l-.1.1v.1l.3.8c0,.1.1.1.1.2q.1.1.2.1t.2.1c0-.1.1,0,.2-.1Zm.9-2l.4-.1.1.3c0-.1.1-.2.1-.3.1-.1.2-.1.4-.2h.4c.1,0,.3.1.4.2.1.1.2.2.3.3.1.1.2.3.3.4.1.1.1.3.1.4s0,.2-.1.4c-.1.1-.1.2-.2.3s-.2.1-.3.1c-.3,0-.6,0-.8-.3l.5,1.1-.4.1-1.2-2.7Zm1.7,1.7c.2,0,.3-.1.4-.2.1-.1.1-.3,0-.5l-.1-.3c-.1-.2-.2-.3-.3-.4-.2-.1-.3-.2-.5-.1q-.1,0-.2.1c-.1,0-.1.1-.2.1l-.1.1v.1l.3.8c0,.1.1.1.1.2q.1.1.2.1c.1,0,.1.1.2.1,0-.1.1-.1.2-.1Zm2.1,0h-.3c-.1-.1-.2-.1-.2-.2l-1.1-2.6.4-.1,1.1,2.6h.3l.1.3h-.3Zm1.4-2.4l.4-.1v2.8s0,.1-.1.1l-.1.1s-.1,0-.2.1h-.2l-.1-.3.4-.1v-.5l-1.7-2,.4-.1,1.1,1.3.2.3h0v-.4l-.1-1.2Zm.9-.6h-.2l-.1-.1h0v-.1s.1-.1.2-.1h.2c.1,0,.1.1.1.1h0v.1l-.2.1Zm0,.5l.4-.1.8,2-.4.1-.8-2Zm2,1.9l-.8-2,.4-.1.1.3c0-.1,0-.2.1-.3s.2-.1.4-.2c.2,0,.5,0,.6.1.2.1.4.3.4.5l.5,1.3-.4.1-.5-1.2c-.2-.4-.4-.5-.8-.5q-.1,0-.2.1c-.1,0-.1.1-.2.1l-.1.1v.2l.6,1.4-.1.1Zm4.5-.3c.1.2.1.4-.1.5-.1.1-.4.2-.7.3-.4.1-.6,0-.8,0-.2-.1-.3-.2-.4-.3s-.1-.2,0-.3.1-.1.2-.2h0c-.2-.1-.3-.1-.3-.3-.1-.1-.1-.2,0-.2q.1-.1.2-.1c-.2-.1-.3-.1-.4-.2-.1-.1-.2-.2-.3-.4-.1-.1-.1-.2-.1-.3s0-.2.1-.2q.1-.1.2-.2c.1-.1.2-.1.3-.1h.5c0-.1-.1-.1,0-.2,0-.1.1-.1.2-.1h.3l.1.3-.4.1.1.1c.1.1.2.1.3.2.1.1.2.2.2.3.1.1.1.2.1.3s0,.2-.1.2q-.1.1-.2.2c-.1.1-.2.1-.3.1h-.2c-.1,0-.1.1-.2.1,0,0-.1.1,0,.2,0,.1.1.1.2.1h.2l.5-.1c.3,0,.5,0,.7.1-.1-.3.1-.1.1.1Zm-.3,0c0-.1-.1-.2-.2-.2-.1-.1-.2,0-.4,0l-.8.1c-.1.1-.1.2-.1.3s.1.2.2.2c.1.1.2.1.4.1h.3c.2,0,.3-.1.4-.2.2-.1.2-.2.2-.3Zm-1.3-1.1c.1,0,.3-.1.3-.1.1-.1.1-.2,0-.3l-.1-.1c-.1-.1-.1-.2-.2-.3s-.2-.1-.4-.1c-.1,0-.3.1-.3.1-.1.1-.1.2,0,.3l.1.1c.1.1.1.2.2.3.2.1.3.1.4.1Zm2.5-1.2l-.4.1-.1-.3.4-.1-.2-.4c-.1-.1-.1-.3,0-.4.1-.1.2-.2.3-.2l.3-.1.1.3-.5.1.2.6.5-.1.1.3-.5.1.7,1.8-.4.1-.5-1.8Zm3,1.6h-.5c-.1,0-.3-.1-.4-.2-.1-.1-.2-.2-.4-.3-.1-.1-.2-.3-.3-.4-.1-.1-.1-.3-.1-.4s0-.2.1-.4c.1-.1.1-.2.2-.2.1-.1.2-.1.4-.1h.4c.1,0,.3.1.4.2.1.1.3.2.3.3.1.1.2.3.3.4.1.1.1.3.1.4s0,.2-.1.4c-.1.1-.1.2-.2.2,0,0-.1,0-.2.1Zm-.2-.3c.2,0,.3-.1.4-.2.1-.1.1-.3,0-.5l-.1-.3c-.1-.2-.2-.4-.4-.4-.2-.1-.3-.1-.5-.1s-.3.1-.4.2c-.1.1-.1.3,0,.5l.1.3c.1.2.2.4.4.4.2,0,.4.1.5.1Zm1.8,0l-.8-2,.4-.1.2.4h0c0-.1,0-.2.1-.3s.2-.2.4-.2h.1l.1.3h-.2c-.2,0-.3.1-.4.2-.1.1-.1.2-.1.3l.6,1.4h-.4Zm4.9,0l-.4.1h-.3c-.1-.1-.2-.1-.2-.2l-.1-.3c-.2,0-.4,0-.5-.1-.2-.1-.3-.1-.5-.2-.2-.1-.3-.2-.4-.4s-.2-.4-.3-.6c-.1-.2-.2-.4-.2-.6s0-.4.1-.5.2-.2.3-.3c.1-.1.3-.1.5-.1h.6c.2,0,.3.1.5.2.2.1.3.3.4.4.1.2.2.4.4.6.2.4.2.8.1,1-.1.3-.3.4-.6.5l.1.3.5-.1v.3Zm-1.1-.8c.1,0,.2,0,.3-.1.1-.1.2-.1.2-.2.1-.1.1-.2.1-.3s0-.2-.1-.4l-.2-.5c-.1-.1-.1-.3-.2-.4-.1-.1-.2-.2-.3-.3-.1-.1-.2-.1-.4-.2h-.4c-.1,0-.2,0-.3.1-.1.1-.2.1-.2.2-.1.1-.1.2-.1.3s0,.2.1.4l.2.5c.1.1.1.3.2.4.1.1.2.2.3.2.1.1.2.1.4.2.2.1.3.1.4.1Zm3.4-.5q0,.1-.1.2l-.1.1s-.1.1-.2.1-.1.1-.2.1c-.2,0-.5,0-.6-.1-.2-.1-.3-.3-.4-.5l-.5-1.3.4-.1.5,1.2c.2.4.4.5.8.5q.1,0,.2-.1c.1,0,.1-.1.2-.1-.1,0-.1-.1,0,0q0-.2-.1-.3l-.6-1.4.4-.1.8,2-.4.1-.1-.3Zm.4-2.3h-.2l-.1-.1h0v-.1s.1-.1.2-.1h.2l.1.1h0v.1s-.1,0-.2.1Zm0,.5l.4-.1.8,2-.4.1-.8-2Zm2.1,1.8l-.8-2,.4-.1.1.3c0-.1,0-.2.1-.3s.2-.1.4-.2c.2,0,.5,0,.6.1.2.1.4.3.4.5l.5,1.3-.4.1-.5-1.2c-.2-.4-.4-.5-.8-.5q-.1,0-.2.1c-.1,0-.1.1-.2.1l-.1.1v.2l.6,1.4-.1.1Zm2.5-.8h.2q.1.1.1.2h0c.1.1.1.2.1.4,0,.1-.1.3-.2.4h-.3c.1-.1.1-.2.1-.3v-.2q-.1,0-.2-.1l-.1-.1h0v-.2c.2-.1.3-.1.3-.1Zm2.9-2l.4-.1v2.8s0,.1-.1.1l-.1.1s-.1,0-.2.1h-.2l-.1-.3.4-.1v-.5l-1.7-2,.4-.1,1.1,1.3.2.3h0v-.4l-.1-1.2Zm2.6,1.8h-.5c-.1,0-.3-.1-.4-.2-.1-.1-.2-.2-.4-.3-.1-.1-.2-.3-.3-.4-.1-.1-.1-.3-.1-.4s0-.2.1-.4c.1-.1.1-.2.2-.2.1-.1.2-.1.4-.1h.4c.1,0,.3.1.4.2.1.1.3.2.3.3.1.1.2.3.3.4.1.1.1.3.1.4s0,.2-.1.4c-.1.1-.1.2-.2.2,0,.1-.1.1-.2.1Zm-.1-.3c.2,0,.3-.1.4-.2.1-.1.1-.3,0-.5l-.1-.3c-.1-.2-.2-.4-.4-.4-.2-.1-.3-.1-.5-.1s-.3.1-.4.2c-.1.1-.1.3,0,.5l.1.3c.1.2.2.4.4.4.1.1.3.2.5.1Zm3-.4q0,.1-.1.2l-.1.1s-.1.1-.2.1q-.1.1-.2.1c-.2,0-.5,0-.6-.1-.2-.1-.3-.3-.4-.5l-.5-1.3.4-.1.5,1.2c.2.4.4.5.8.5q.1,0,.2-.1c.1,0,.1-.1.2-.1-.1,0-.1-.1,0,0q0-.2-.1-.3l-.6-1.4.4-.1.8,2-.4.1-.1-.3Zm4-.2h-.3c-.1-.1-.2-.1-.2-.2h0c0,.1,0,.2-.1.3s-.2.1-.4.2c-.2,0-.5,0-.6-.1-.2-.1-.3-.2-.4-.4s-.1-.4.1-.5c.1-.1.3-.2.7-.2l.4-.1-.1-.2c-.1-.1-.1-.2-.3-.3-.1-.1-.3-.1-.5-.1-.1,0-.3.1-.3.1-.1.1-.1.2-.1.3l-.3-.1c0-.1.1-.2.2-.3s.3-.1.5-.2c.3,0,.5,0,.7.1s.3.3.4.5l.5,1.1h.2l.1.3-.2-.2Zm-1.1-.1q.1,0,.2-.1c.1,0,.1-.1.2-.1s.1-.1.1-.1v-.1l-.1-.3-.5.1c-.2,0-.3.1-.4.1q-.1.1,0,.2v.1c.1.1.1.2.2.2.1,0,.2,0,.3,0Zm3.9,0c.1.2.1.4-.1.5-.1.1-.4.2-.7.3-.4.1-.6,0-.8,0-.2-.1-.3-.2-.4-.3s-.1-.2,0-.3.1-.1.2-.2h0c-.2-.1-.3-.1-.3-.3-.1-.1-.1-.2,0-.2q.1-.1.2-.1c-.2-.1-.3-.1-.4-.2-.1-.1-.2-.2-.3-.4-.1-.1-.1-.2-.1-.3s0-.2.1-.2q.1-.1.2-.2c.1-.1.2-.1.3-.1h.5c0-.1-.1-.1,0-.2,0-.1.1-.1.2-.1h.3l.1.3-.4.1.1.1c.1.1.2.1.3.2.1.1.2.2.2.3.1.1.1.2.1.3s0,.2-.1.2q-.1.1-.2.2c-.1.1-.2.1-.3.1h-.2c-.1,0-.1.1-.2.1,0,0-.1.1,0,.2,0,.1.1.1.2.1h.2l.5-.1c.3,0,.5,0,.7.1-.1-.3,0-.1.1.1Zm-.4,0c0-.1-.1-.2-.2-.2-.1-.1-.2,0-.4,0l-.8.1c-.1.1-.1.2-.1.3s.1.2.2.2c.1.1.2.1.4.1h.3c.2,0,.3-.1.4-.2.3-.1.3-.2.2-.3Zm-1.2-1.1c.1,0,.3-.1.3-.1.1-.1.1-.2,0-.3l-.1-.1c-.1-.1-.1-.2-.2-.3s-.2-.1-.4-.1c-.1,0-.3.1-.3.1-.1.1-.1.2,0,.3l.1.1c.1.1.1.2.2.3.1.1.2.1.4.1Zm2,.8l-.8-2,.4-.1.2.4h0c0-.1,0-.2.1-.3s.2-.2.4-.2h.1l.1.3h-.2c-.2,0-.3.1-.4.2-.1.1-.1.2-.1.3l.6,1.4h-.4Zm2.5-.3h-.5c-.1,0-.3-.1-.4-.2-.1-.1-.2-.2-.4-.3-.1-.1-.2-.3-.3-.4-.1-.1-.1-.3-.1-.4s0-.2.1-.4c.1-.1.1-.2.2-.3s.2-.1.4-.1h.4c.1,0,.3.1.4.2.1.1.2.2.3.3s.2.2.2.4l.1.1-1.6.2v.1c0,.1.1.2.1.2q.1.1.2.2c.1.1.2.1.3.1h.3c.1,0,.3-.1.3-.1.1-.1.1-.2.1-.3l.3.1c0,.1-.1.3-.2.4.1.1,0,.1-.2.2Zm-.8-1.9c-.1,0-.2.1-.3.1s-.1.1-.2.2c0,.1-.1.1-.1.2v.2h0l1.2-.2h0c-.1-.2-.2-.3-.3-.4,0-.1-.1-.1-.3-.1Zm3.2,1.5h-.5c-.1,0-.3-.1-.4-.2-.1-.1-.2-.2-.3-.3-.1-.1-.2-.3-.3-.4-.1-.1-.1-.3-.1-.4s0-.2.1-.4c.1-.1.1-.2.2-.3s.2-.1.4-.1h.4c.1,0,.3.1.4.2.1.1.2.2.3.3.1.1.2.2.2.4l.1.1-1.6.2v.1c0,.1.1.2.1.2q.1.1.2.2c.1.1.2.1.3.1h.3c.1,0,.3-.1.3-.1.1-.1.1-.2.1-.3l.3.1c0,.1-.1.3-.2.4.1.1-.1.2-.3.2Zm-.7-1.8c-.1,0-.2.1-.3.1s-.1.1-.2.2q-.1.1-.1.2v.2h0l1.2-.2h0c-.1-.2-.2-.3-.3-.4,0-.1-.1-.1-.3-.1Zm3.9,1.4h-.3c-.1-.1-.2-.1-.2-.2l-.6-1.4-.4.1-.1-.3h.2q.1,0,.1-.1v-.1l-.2-.4h.3l.2.6.5-.1.1.3-.5.1.6,1.5.5-.1.1.3-.3-.2Zm2-.2h-.5c-.1,0-.3-.1-.4-.2-.1-.1-.2-.2-.4-.3-.1-.1-.2-.3-.3-.4-.1-.1-.1-.3-.1-.4s0-.2.1-.4c.1-.1.1-.2.2-.2.1-.1.2-.1.4-.1h.4c.1,0,.3.1.4.2.1.1.3.2.4.3s.2.3.3.4c.1.1.1.3.1.4s0,.2-.1.4c-.1.1-.1.2-.2.2,0,0-.1.1-.3.1Zm-.1-.3c.2,0,.3-.1.4-.2.1-.1.1-.3,0-.5l-.1-.3c-.1-.2-.2-.4-.4-.4-.2-.1-.3-.1-.5-.1s-.3.1-.4.2c-.1.1-.1.3,0,.5l.1.3c.1.2.2.4.4.4.1.1.3.1.5.1Zm5,.3l-.4.1h-.3c-.1,0-.2-.1-.2-.2l-.1-.3c-.2,0-.3,0-.5-.1s-.3-.1-.5-.2c-.2-.1-.3-.2-.4-.4s-.2-.4-.3-.6c-.1-.2-.2-.4-.2-.6s0-.4.1-.5.2-.2.3-.3c.1-.1.3-.1.5-.1h.6c.2,0,.3.1.5.2.2.1.3.3.4.4.1.2.2.4.4.6.2.4.2.8.1,1-.1.3-.3.4-.6.5l.1.3.5-.1v.3Zm-1.1-.8c.1,0,.2,0,.3-.1.1-.1.2-.1.2-.2.1-.1.1-.2.1-.3s0-.2-.1-.4l-.2-.5c-.1-.1-.1-.3-.2-.4-.1-.1-.2-.2-.3-.3-.1-.1-.2-.1-.4-.2h-.4c-.1,0-.2,0-.3.1-.1.1-.2.1-.2.2-.1.1-.1.2-.1.3s0,.2.1.4l.2.5c.1.1.1.3.2.4.1.1.2.2.3.2.1.1.2.1.4.2.1.1.3.1.4.1Zm3.3-.6q0,.1-.1.2l-.1.1s-.1.1-.2.1-.1.1-.2.1c-.2,0-.5,0-.6-.1-.2-.1-.4-.3-.4-.5l-.5-1.3.4-.1.5,1.2c.2.4.4.5.8.5q.1,0,.2-.1c.1,0,.1-.1.2-.1h0q0-.2-.1-.3l-.6-1.4.4-.1.8,2-.4.1-.1-.3Zm.5-2.3h-.2l-.1-.1h0v-.1s.1-.1.2-.1h.2l.1.1h0v.1q-.1.1-.2.1Zm0,.5l.4-.1.8,2-.4.1-.8-2Zm2,1.9l-.8-2,.4-.1.1.3c0-.1,0-.2.1-.3s.2-.1.4-.2c.2,0,.5,0,.6.1.2.1.4.3.4.5l.5,1.3-.4.1-.5-1.2c-.2-.4-.4-.5-.8-.5q-.1,0-.2.1c-.1,0-.1.1-.2.1l-.1.1v.2l.6,1.4-.1.1Zm1.6-3.3h.2q.1.1.1.2h0c.1.1.1.2.1.4,0,.1-.1.3-.2.4h-.3c.1-.1.1-.2.1-.3v-.3q-.1,0-.2-.1l-.1-.1h0v-.2c.1,0,.2,0,.3,0Zm2.7,2.8h-.6c-.2-.1-.3-.2-.5-.2l.2-.2c.1.1.3.1.4.2.1.1.3,0,.4,0s.3-.1.3-.1c.1-.1.1-.2,0-.2,0-.1-.1-.2-.2-.2-.1-.1-.2-.1-.4-.1h-.5c-.1,0-.2-.1-.3-.1-.1-.1-.2-.1-.2-.1-.1-.1-.1-.2-.1-.2-.1-.1-.1-.2,0-.2,0-.1.1-.1.1-.2q.1-.1.2-.2c.1,0,.2-.1.3-.1h.5c.1.1.3.1.4.2l-.1.2c-.1-.1-.2-.1-.3-.1-.1-.1-.2,0-.4,0-.1,0-.3.1-.3.1q-.1.1,0,.2c.1.1.1.2.2.2.1.1.2.1.4.1h.2c.2,0,.5,0,.6.1s.3.2.3.4c.1.2.1.4,0,.5-.2-.2-.4-.1-.6,0Zm-54.3,18.1h-.2q-.1-.1-.1-.2h0v-.2s.1-.1.2-.1h.2q.1.1.1.2h0v.2c0,.1-.1.1-.2.1Zm-17.1,12.9l-1.9-2.7.4-.1.9,1.3.7,1-.1-1.1-.2-1.4.4-.1.9,1.3.7,1-.1-1.1-.2-1.4.4-.1.4,2.8-.4.1-.9-1.3-.7-1,.1,1.1.2,1.4-.6.3Zm4.3-.6h-.5c-.1,0-.3-.1-.4-.2-.1-.1-.2-.2-.4-.3-.1-.1-.2-.3-.3-.4-.1-.1-.1-.3-.1-.4s0-.2.1-.4c.1-.1.1-.2.2-.3s.2-.1.4-.1h.4c.1,0,.3.1.4.2.1.1.2.2.3.3.1.1.2.2.2.4l.1.1-1.6.2v.1c0,.1.1.2.1.2q.1.1.2.2c.1.1.2.1.3.1h.3c.1,0,.3-.1.3-.1.1-.1.1-.2.1-.3l.3.1c0,.1-.1.3-.2.4.2.1.1.2-.2.2Zm-.7-1.8c-.1,0-.2.1-.3.1s-.1.1-.2.2q-.1.1-.1.2v.2h0l1.2-.2h0c-.1-.2-.2-.3-.3-.4,0-.1-.2-.1-.3-.1Zm4.7.9c0,.3-.2.4-.5.5h-.4c-.1,0-.3-.1-.4-.2-.1-.1-.2-.2-.3-.3-.1-.1-.2-.3-.2-.4-.1-.1-.1-.3-.1-.4s0-.2.1-.4c.1-.1.1-.2.2-.3s.2-.1.3-.1.3,0,.5.1c.1.1.3.1.3.3l-.5-1.2.4-.1,1.2,2.9-.4.1-.2-.5Zm-.5.2h.2c.1,0,.1-.1.2-.1l.1-.1v-.2l-.3-.8s-.1-.1-.1-.2q-.1-.1-.2-.1-.1-.1-.2-.1h-.2c-.2,0-.3.1-.4.2-.1.1-.1.3,0,.5l.1.3c.1.2.2.3.3.4.2.2.3.2.5.2Zm2.7-.1h-.5c-.1,0-.3-.1-.4-.2-.1-.1-.2-.2-.3-.3-.1-.1-.2-.3-.3-.4-.1-.1-.1-.3-.1-.4s0-.2.1-.4c.1-.1.1-.2.2-.2.1-.1.2-.1.4-.1h.4c.1,0,.3.1.4.2.1.1.3.2.3.3.1.1.2.3.3.4.1.1.1.3.1.4s0,.2-.1.4c-.1.1-.1.2-.2.2,0,.1-.1.1-.3.1Zm-.1-.2c.2,0,.3-.1.4-.2.1-.1.1-.3,0-.5l-.1-.3c-.1-.2-.2-.4-.4-.4-.2-.1-.3-.1-.5-.1s-.3.1-.4.2c-.1.1-.1.3,0,.5l.1.3c.1.2.2.4.4.4.2,0,.3.1.5.1Zm1.8,0l-.8-2,.4-.1.1.3c0-.1,0-.2.1-.3s.2-.1.4-.2c.2,0,.5,0,.6.1.2.1.4.3.4.5l.5,1.3-.4.1-.5-1.2c-.2-.4-.4-.5-.8-.5q-.1,0-.2.1c-.1,0-.1.1-.2.1l-.1.1v.2l.6,1.4-.1.1Zm1.5-3.3h.2q.1.1.1.2h0c.1.1.1.2.1.4,0,.1-.1.3-.2.4h-.3c.1-.1.1-.2.1-.3v-.3q-.1,0-.2-.1l-.1-.1h0v-.2q.2,0,.3,0Zm2.7,2.7h-.3c-.1,0-.2-.1-.2-.2l-.6-1.4-.4.1-.1-.3h.2q.1,0,.1-.1v-.1l-.2-.4h.3l.2.6.5-.1.1.3-.5.1.6,1.5.5-.1.1.3-.3-.2Zm2.9-.3h-.6c-.2-.1-.3-.2-.5-.2l.2-.2c.1.1.3.1.4.2.1.1.3,0,.4,0s.3-.1.3-.1c.1-.1.1-.2,0-.2,0-.1-.1-.2-.2-.2s-.2-.1-.4-.1h-.5c-.1,0-.2-.1-.3-.1-.1-.1-.2-.1-.2-.1-.1-.1-.1-.2-.1-.2-.1-.1-.1-.2,0-.2,0-.1.1-.1.1-.2q.1-.1.2-.2c.1,0,.2-.1.3-.1h.5c.1.1.3.1.4.2l-.1.2c-.1-.1-.2-.1-.3-.1-.1-.1-.2,0-.4,0-.1,0-.3.1-.3.1q-.1.1,0,.2c.1.1.1.2.2.2.1.1.2.1.3.1h.2c.2,0,.5,0,.6.1s.3.2.3.4c.1.2.1.4,0,.5.1,0-.2,0-.5,0Zm2.4-.3h-.5c-.1,0-.3-.1-.4-.2-.1-.1-.2-.2-.3-.3-.1-.1-.2-.3-.3-.4-.1-.1-.1-.3-.1-.4s0-.2.1-.4c.1-.1.1-.2.2-.3s.2-.1.4-.1h.4c.1,0,.3.1.4.2.1.1.2.2.3.3.1.1.2.2.2.4l.1.1-1.6.2v.1c0,.1.1.2.1.2q.1.1.2.2c.1.1.2.1.3.1h.3c.1,0,.3-.1.3-.1.1-.1.1-.2.1-.3l.3.1c0,.1-.1.3-.2.4.1.1-.1.1-.3.2Zm-.7-1.9c-.1,0-.2.1-.3.1s-.1.1-.2.2q-.1.1-.1.2v.2h0l1.2-.2h0c-.1-.2-.2-.3-.3-.4,0-.1-.2-.1-.3-.1Zm2.7,1.6h-.3c-.1-.1-.2-.1-.2-.2l-1.1-2.6.4-.1,1.1,2.6h.3l.1.3h-.3Zm1.2-.2h-.3c-.1-.1-.2-.1-.2-.2l-1.1-2.6.4-.1,1.1,2.6h.3l.1.3h-.3Zm2.6-2.5l.4-.1v2.8s0,.1-.1.1l-.1.1s-.1,0-.2.1h-.2l-.1-.3.4-.1v-.5l-1.7-2,.4-.1,1.1,1.3.2.3h0v-.4l-.1-1.2Zm2.5,1.9h-.5c-.1,0-.3-.1-.4-.2-.1-.1-.2-.2-.4-.3-.1-.1-.2-.3-.3-.4-.1-.1-.1-.3-.1-.4s0-.2.1-.4c.1-.1.1-.2.2-.2.1-.1.2-.1.4-.1h.4c.1,0,.3.1.4.2.1.1.3.2.4.3s.2.3.3.4c.1.1.1.3.1.4s0,.2-.1.4c-.1.1-.1.2-.2.2,0,0-.1.1-.3.1Zm-.1-.3c.2,0,.3-.1.4-.2.1-.1.1-.3,0-.5l-.1-.3c-.1-.2-.2-.4-.4-.4-.2-.1-.3-.1-.5-.1s-.3.1-.4.2c-.1.1-.1.3,0,.5l.1.3c.1.2.2.4.4.4.1.1.3.1.5.1Zm3-.5q0,.1-.1.2l-.1.1s-.1.1-.2.1q-.1.1-.2.1c-.2,0-.5,0-.6-.1-.2-.1-.3-.3-.4-.5l-.5-1.3.4-.1.5,1.2c.2.4.4.5.8.5q.1,0,.2-.1c.1,0,.1-.1.2-.1,0,0,0-.1,0,0q0-.2-.1-.3l-.6-1.4.4-.1.8,2-.4.1-.1-.3Zm1.3.2l-.8-2,.4-.1.2.4h0c0-.1,0-.2.1-.3s.2-.2.4-.2h.1l.1.3h-.2c-.2,0-.3.1-.4.2-.1.1-.1.2-.1.3l.6,1.4h-.4Zm4.1-.9c0,.3-.2.4-.5.5h-.4c-.1,0-.3-.1-.4-.2-.1-.1-.2-.2-.3-.3-.1-.1-.2-.3-.2-.4-.1-.1-.1-.3-.1-.4s0-.2.1-.4c.1-.1.1-.2.2-.3s.2-.1.3-.1.3,0,.5.1c.1.1.3.1.4.3l-.5-1.2.4-.1,1.2,2.9-.4.1-.3-.5Zm-.5.2h.2c.1,0,.1-.1.2-.1l.1-.1v-.2l-.3-.8s-.1-.1-.1-.2q-.1-.1-.2-.1-.1-.1-.2-.1h-.2c-.2,0-.3.1-.4.2-.1.1-.1.3,0,.5l.1.3c.1.2.2.3.3.4.1.2.3.2.5.2Zm3.4-.2h-.3c-.1-.1-.2-.1-.2-.2h0c0,.1,0,.2-.1.3s-.2.1-.4.2c-.2,0-.5,0-.6-.1-.2-.1-.3-.2-.4-.4s-.1-.4.1-.5c.1-.1.3-.2.7-.2l.4-.1-.1-.2c-.1-.1-.1-.2-.3-.3-.1-.1-.3-.1-.5-.1-.1,0-.3.1-.3.1-.1.1-.1.2-.1.3l-.3-.1c0-.1.1-.2.2-.3s.3-.1.5-.2c.3,0,.5,0,.7.1s.3.3.4.5l.5,1.1h.2l.1.3-.2-.2Zm-1-.1q.1,0,.2-.1c.1,0,.1-.1.2-.1l.1-.1v-.1l-.1-.3-.5.1c-.2,0-.3.1-.4.1q-.1.1,0,.2v.1c.1.1.1.2.2.2,0,0,.1,0,.3,0Zm2.3-.1h-.3c-.1-.1-.2-.1-.2-.2l-.6-1.4-.4.1-.1-.3h.2q.1,0,.1-.1v-.1l-.2-.4h.3l.2.6.5-.1.1.3-.5.1.6,1.5.5-.1.1.3-.3-.2Zm2.7-.4h-.3c-.1-.1-.2-.1-.2-.2h0c0,.1,0,.2-.1.3s-.2.1-.4.2c-.2,0-.5,0-.6-.1-.2-.1-.3-.2-.4-.4s-.1-.4.1-.5c.1-.1.4-.2.7-.2l.4-.1-.1-.2c-.1-.1-.1-.2-.3-.3-.1-.1-.3-.1-.5-.1-.1,0-.3.1-.3.1-.1.1-.1.2-.1.3l-.3-.1c0-.1.1-.2.2-.3s.3-.1.5-.2c.3,0,.5,0,.7.1s.4.3.4.5l.5,1.1h.2l.1.3-.2-.2Zm-1.1,0q.1,0,.2-.1c.1,0,.1-.1.2-.1l.1-.1v-.1l-.1-.3-.5.1c-.2,0-.3.1-.4.1s-.1.1,0,.2v.1c.1.1.1.2.2.2.1,0,.2,0,.3,0Zm3.5-.3h-.3c-.1-.1-.2-.1-.2-.2l-.6-1.4-.4.1-.1-.3h.2q.1,0,.1-.1v-.1l-.2-.4h.3l.2.6.5-.1.1.3-.5.1.6,1.5.5-.1.1.3-.3-.2Zm2-.2h-.5c-.1,0-.3-.1-.4-.2-.1-.1-.2-.2-.4-.3-.1-.1-.2-.3-.3-.4-.1-.1-.1-.3-.1-.4s0-.2.1-.4c.1-.1.1-.2.2-.2.1-.1.2-.1.4-.1h.4c.1,0,.3.1.4.2.1.1.3.2.4.3s.2.3.3.4c.1.1.1.3.1.4s0,.2-.1.4-.1.2-.2.2c0,.1-.2.1-.3.1Zm-.1-.2c.2,0,.3-.1.4-.2.1-.1.1-.3,0-.5l-.1-.3c-.1-.2-.2-.4-.4-.4-.2-.1-.3-.1-.5-.1s-.3.1-.4.2c-.1.1-.1.3,0,.5l.1.3c.1.2.2.4.4.4.1,0,.3.1.5.1Zm4.5-.4h-.3c-.1-.1-.2-.1-.2-.2h0c0,.1,0,.2-.1.3s-.2.1-.4.2c-.2,0-.5,0-.6-.1-.2-.1-.3-.2-.4-.4s-.1-.4.1-.5c.1-.1.4-.2.7-.2l.4-.1-.1-.2c-.1-.1-.1-.2-.3-.3-.1-.1-.3-.1-.5-.1-.1,0-.3.1-.3.1-.1.1-.1.2-.1.3l-.3-.1c0-.1.1-.2.2-.3s.3-.1.5-.2c.3,0,.5,0,.7.1s.4.3.4.5l.5,1.1h.2l.1.3-.2-.2Zm-1.1-.1q.1,0,.2-.1c.1,0,.1-.1.2-.1s.1-.1.1-.1v-.1l-.1-.3-.5.1c-.2,0-.3.1-.4.1q-.1.1,0,.2v.1c.1.1.1.2.2.2,0,0,.1,0,.3,0Zm1.8,0l-.8-2,.4-.1.1.3c0-.1,0-.2.1-.3s.2-.1.4-.2c.2,0,.5,0,.6.1.2.1.4.3.4.5l.5,1.3-.4.1-.5-1.2c-.2-.4-.4-.5-.8-.5q-.1,0-.2.1c-.1,0-.1.1-.2.1s-.1.1-.1.1v.2l.6,1.4-.1.1Zm3.1-2.5l.4-.1v2.8s0,.1-.1.1-.1.1-.1.1c0,0-.1,0-.2.1h-.2l-.1-.3.4-.1v-.5l-1.7-2,.4-.1,1.1,1.3.2.3h0v-.4l-.1-1.2Zm3.3,1.7h-.3c-.1-.1-.2-.1-.2-.2l-.6-1.4-.4.1-.1-.3h.2q.1,0,.1-.1v-.1l-.2-.4h.3l.2.6.5-.1.1.3-.5.1.6,1.5.5-.1.1.3-.3-.2Zm-.1-3.1l.4-.1.5,1.2c0-.1,0-.2.1-.3s.2-.1.4-.2c.2,0,.5,0,.6.1.2.1.4.3.4.5l.5,1.3-.4.1-.5-1.2c-.2-.4-.4-.5-.8-.5q-.1,0-.2.1c-.1,0-.1.1-.2.1s-.1.1-.1.1v.2l.6,1.4-.4.1-.9-2.9Zm2.9,0h-.2c-.1,0-.1-.1-.1-.1h0v-.1s.1-.1.2-.1h.2c.1,0,.1.1.1.1h0v.1c-.1.1-.1.2-.2.1Zm0,.6l.4-.1.8,2-.4.1-.8-2Zm2,1.9l-.8-2,.4-.1.2.4h0c0-.1,0-.2.1-.3s.2-.2.4-.2h.1l.1.3h-.2c-.2,0-.3.1-.4.2-.1.1-.1.2-.1.3l.6,1.4h-.4Zm3-.8c0,.3-.2.4-.5.5h-.4c-.1,0-.3-.1-.4-.2-.1-.1-.2-.2-.3-.3-.1-.1-.2-.3-.2-.4-.1-.1-.1-.3-.1-.4s0-.2.1-.4c.1-.1.1-.2.2-.3s.2-.1.3-.1.3,0,.5.1c.1.1.3.1.4.3l-.5-1.2.4-.1,1.2,2.9-.4.1-.3-.5Zm-.6.2h.2c.1,0,.1-.1.2-.1l.1-.1v-.2l-.3-.8s-.1-.1-.1-.2q-.1-.1-.2-.1-.1-.1-.2-.1h-.2c-.2,0-.3.1-.4.2-.1.1-.1.3,0,.5l.1.3c.1.2.2.3.3.4.1.2.3.2.5.2Zm2.1-2.2l.4-.1.1.3c0-.1.1-.2.1-.3.1-.1.2-.1.4-.2h.4c.1,0,.3.1.4.2.1.1.2.2.3.3.1.1.2.3.3.4.1.1.1.3.1.4s0,.2-.1.4c-.1.1-.1.2-.2.3s-.2.1-.3.1c-.3,0-.6,0-.8-.3l.5,1.1-.4.1-1.2-2.7Zm1.7,1.7c.2,0,.3-.1.4-.2.1-.1.1-.3,0-.5l-.1-.3c-.1-.2-.2-.3-.3-.4-.2-.1-.3-.2-.5-.1q-.1,0-.2.1c-.1,0-.1.1-.2.1l-.1.1v.1l.3.8c0,.1.1.1.1.2q.1.1.2.1c.1,0,.1.1.2.1q.1-.1.2-.1Zm3.4-.2h-.3c-.1-.1-.2-.1-.2-.2h0c0,.1,0,.2-.1.3s-.2.1-.4.2c-.2,0-.5,0-.6-.1-.2-.1-.3-.2-.4-.4s-.1-.4.1-.5c.1-.1.4-.2.7-.2l.4-.1-.1-.2c-.1-.1-.1-.2-.3-.3-.1-.1-.3-.1-.5-.1-.1,0-.3.1-.3.1-.1.1-.1.2-.1.3l-.3-.1c0-.1.1-.2.2-.3s.3-.1.5-.2c.3,0,.5,0,.7.1s.4.3.4.5l.5,1.1h.2l.1.3-.2-.2Zm-1.1-.1q.1,0,.2-.1c.1,0,.1-.1.2-.1l.1-.1v-.1l-.1-.3-.5.1c-.2,0-.3.1-.4.1q-.1.1,0,.2v.1c.1.1.1.2.2.2,0,0,.2,0,.3,0Zm1.9,0l-.8-2,.4-.1.2.4h0c0-.1,0-.2.1-.3s.2-.2.4-.2h.1l.1.3h-.2c-.2,0-.3.1-.4.2-.1.1-.1.2-.1.3l.6,1.4h-.4Zm2.1-.3h-.3c-.1,0-.2-.1-.2-.2l-.6-1.4-.4.1-.1-.3h.2q.1,0,.1-.1v-.1l-.2-.4h.3l.2.6.5-.1.1.3-.5.1.6,1.5.5-.1.1.3-.3-.2Zm.3-2.7h-.2l-.1-.1h0v-.1s.1-.1.2-.1h.2c.1,0,.1.1.1.1h0v.1c0,.1-.1.1-.2.1Zm0,.5l.4-.1.8,2-.4.1-.8-2Zm2.9,1.8h-.5c-.1,0-.3-.1-.4-.2-.1-.1-.2-.2-.4-.3-.1-.1-.2-.3-.3-.4-.1-.1-.1-.3-.1-.4s0-.2.1-.4c.1-.1.1-.2.2-.3s.2-.1.4-.1h.4c.1,0,.3.1.4.2.1.1.2.2.3.3.1.1.2.2.2.4l.1.1-1.6.2v.1c0,.1.1.2.1.2q.1.1.2.2c.1.1.2.1.3.1h.3c.1,0,.3-.1.3-.1.1-.1.1-.2.1-.3l.3.1c0,.1-.1.3-.2.4.2.1,0,.2-.2.2Zm-.8-1.8c-.1,0-.2.1-.3.1s-.1.1-.2.2q-.1.1-.1.2v.2h0l1.2-.2h0c-.1-.2-.2-.3-.3-.4.1-.1-.1-.2-.3-.1Zm3.1,1.5h-.6c-.2-.1-.3-.2-.5-.2l.2-.2c.1.1.3.1.4.2.1.1.3,0,.4,0s.3-.1.3-.1c.1-.1.1-.2,0-.2,0-.1-.1-.2-.2-.2s-.2-.1-.4-.1h-.5c-.1,0-.2-.1-.3-.1-.1-.1-.2-.1-.2-.1-.1-.1-.1-.2-.1-.2-.1-.1-.1-.2,0-.2,0-.1.1-.1.1-.2q.1-.1.2-.2c.1,0,.2-.1.3-.1h.5c.1.1.3.1.4.2l-.1.2c-.1-.1-.2-.1-.3-.1-.1-.1-.2,0-.4,0-.1,0-.3.1-.3.1q-.1.1,0,.2c.1.1.1.2.2.2.1.1.2.1.4.1h.2c.2,0,.5,0,.6.1s.3.2.3.4c.1.2.1.4,0,.5-.2-.1-.3,0-.6,0Zm1.7-.2h-.2q-.1-.1-.1-.2h0v-.2s.1-.1.2-.1h.2q.1.1.1.2h0v.2c0,.1-.1.1-.2.1Z"/><path class="cls-5" d="m395.8,215.6l-1.1-2.7,1.8-.2.1.3-1.5.2.4.9,1.4-.2.1.3-1.4.2.4.9,1.5-.2.1.3-1.8.2Zm3-.4h-.3c-.1,0-.2-.1-.2-.2l-1.1-2.6.4-.1,1.1,2.6h.3l.1.3h-.3Zm1.7-.2h-.5c-.1,0-.3-.1-.4-.2-.1-.1-.2-.2-.3-.3-.1-.1-.2-.3-.3-.4-.1-.1-.1-.3-.1-.4s0-.2.1-.4c.1-.1.1-.2.2-.3s.2-.1.4-.1h.4c.1,0,.3.1.4.2.1.1.2.2.3.3.1.1.2.2.2.4l.1.1-1.6.2v.1c0,.1.1.2.1.2q.1.1.2.2c.1.1.2.1.3.1h.3c.1,0,.3-.1.3-.1.1-.1.1-.2.1-.3l.3.1c0,.1-.1.3-.2.4.1.1-.1.2-.3.2Zm-.7-1.9c-.1,0-.2.1-.3.1s-.1.1-.2.2q-.1.1-.1.2v.2h0l1.2-.2h0c-.1-.2-.2-.3-.3-.4,0,0-.1-.1-.3-.1Zm3.2,1.6h-.5c-.1,0-.3-.1-.4-.2-.1-.1-.2-.2-.4-.3-.1-.1-.2-.3-.3-.4-.1-.1-.1-.3-.1-.4s0-.2.1-.4c.1-.1.1-.2.2-.2.1-.1.2-.1.4-.1s.4,0,.6.1.3.2.5.3l-.2.2c-.1-.1-.2-.2-.3-.2s-.2-.1-.4-.1c-.1,0-.2.1-.3.1s-.1.1-.1.2q-.1.1,0,.2t.1.3l.1.3c.1.2.2.3.3.4.2.1.3.2.5.1.3,0,.5-.2.4-.4l.3.1c0,.1-.1.3-.2.4.1-.1-.1,0-.3,0Zm1.9-.3h-.3c-.1-.1-.2-.1-.2-.2l-.6-1.4-.4.1-.1-.3h.2q.1,0,.1-.1v-.1l-.2-.4h.3l.2.6.5-.1.1.3-.5.1.6,1.5.5-.1.1.3-.3-.2Zm1.1-.2l-.8-2,.4-.1.2.4h0c0-.1,0-.2.1-.3s.2-.2.4-.2h.1l.1.3h-.2c-.2,0-.3.1-.4.2-.1.1-.1.2-.1.3l.6,1.4h-.4Zm2.5-.2h-.5c-.1,0-.3-.1-.4-.2-.1-.1-.2-.2-.4-.3-.1-.1-.2-.3-.3-.4-.1-.1-.1-.3-.1-.4s0-.2.1-.4c.1-.1.1-.2.2-.2.1-.1.2-.1.4-.1h.4c.1,0,.3.1.4.2.1.1.3.2.4.3s.2.3.3.4c.1.1.1.3.1.4s0,.2-.1.4c-.1.1-.1.2-.2.2,0,0-.1,0-.3.1Zm-.1-.3c.2,0,.3-.1.4-.2.1-.1.1-.3,0-.5l-.1-.3c-.1-.2-.2-.4-.4-.4-.2-.1-.3-.1-.5-.1s-.3.1-.4.2c-.1.1-.1.3,0,.5l.1.3c.1.2.2.4.4.4.1.1.3.1.5.1Zm1.8,0l-.8-2,.4-.1.1.3c0-.1,0-.2.1-.3s.2-.1.4-.2c.2,0,.5,0,.6.1.2.1.4.3.4.5l.5,1.3-.4.1-.5-1.2c-.2-.4-.4-.5-.8-.5q-.1,0-.2.1c-.1,0-.1.1-.2.1l-.1.1v.2l.6,1.4-.1.1Zm1.7-2.9h-.2l-.1-.1h0v-.1s.1-.1.2-.1h.2l.1.1h0v.1c-.1.1-.2.1-.2.1Zm0,.5l.4-.1.8,2-.4.1-.8-2Zm2.8,1.9h-.5c-.1,0-.3-.1-.4-.2-.1-.1-.2-.2-.4-.3-.1-.1-.2-.3-.3-.4-.1-.1-.1-.3-.1-.4s0-.2.1-.4c.1-.1.1-.2.2-.2.1-.1.2-.1.4-.1s.4,0,.6.1.3.2.5.3l-.2.2c-.1-.1-.2-.2-.3-.2s-.2-.1-.4-.1c-.1,0-.2.1-.3.1s-.1.1-.1.2q-.1.1,0,.2,0,.1.1.3l.1.3c.1.2.2.3.3.4.2.1.3.2.5.1.3,0,.5-.2.4-.4l.3.1c0,.1-.1.3-.2.4.1-.2,0-.1-.3,0Zm-98.5,18.3c-.4.1-.7,0-1-.2s-.6-.5-.8-1c-.2-.5-.2-.8-.1-1.1s.4-.4.7-.5c.2,0,.5,0,.7.1s.4.2.6.4l-.2.2c-.1-.1-.2-.2-.4-.3-.2-.1-.3-.1-.5-.1-.1,0-.2,0-.3.1-.1.1-.2.1-.2.2-.1.1-.1.2,0,.3,0,.1,0,.2.1.4l.2.4c.1.3.3.5.5.6s.4.2.7.2c.2,0,.3-.1.4-.2.1-.1.1-.2.1-.4l.4.1c0,.2-.1.4-.2.5-.2.2-.5.3-.7.3Zm2.5-.3h-.5c-.1,0-.3-.1-.4-.2-.1-.1-.2-.2-.4-.3-.1-.1-.2-.3-.3-.4-.1-.1-.1-.3-.1-.4s0-.2.1-.4c.1-.1.1-.2.2-.2.1-.1.2-.1.4-.1h.4c.1,0,.3.1.4.2.1.1.3.2.4.3s.2.3.3.4c.1.1.1.3.1.4s0,.2-.1.4c-.1.1-.1.2-.2.2,0,.1-.1.1-.3.1Zm-.1-.3c.2,0,.3-.1.4-.2.1-.1.1-.3,0-.5l-.1-.3c-.1-.2-.2-.4-.4-.4-.2-.1-.3-.1-.5-.1s-.3.1-.4.2c-.1.1-.1.3,0,.5l.1.3c.1.2.2.4.4.4.1.1.3.2.5.1Zm1.8.1l-.8-2,.4-.1.1.3v-.2c0-.1.1-.1.1-.1l.1-.1s.1-.1.2-.1.3,0,.5.1c.1.1.3.1.4.3,0-.1,0-.2.1-.3s.2-.2.4-.2.4,0,.6.1.3.3.4.5l.5,1.3-.4.1-.5-1.2c-.1-.2-.2-.3-.3-.4-.1-.1-.3-.1-.4-.1s-.1,0-.2.1l-.1.1-.1.1v.2l.6,1.4-.4.1-.5-1.2c-.1-.2-.2-.3-.3-.4-.1-.1-.3-.1-.4-.1s-.1,0-.2.1c-.1,0-.1.1-.2.1s-.1.1-.1.1v.2l.6,1.4-.1-.1Zm3.8-.5l-.8-2,.4-.1.1.3v-.2c0-.1.1-.1.1-.1l.1-.1s.1-.1.2-.1.3,0,.5.1c.1.1.3.1.4.3,0-.1,0-.2.1-.3s.2-.2.4-.2.4,0,.6.1.3.3.4.5l.5,1.3-.4.1-.5-1.2c-.1-.2-.2-.3-.3-.4-.1-.1-.3-.1-.4-.1s-.1,0-.2.1l-.1.1-.1.1v.2l.6,1.4-.4.1-.5-1.2c-.1-.2-.2-.3-.3-.4-.1-.1-.3-.1-.4-.1s-.1,0-.2.1c-.1,0-.1.1-.2.1l-.1.1v.2l.6,1.4-.1-.1Zm5.2-1.1q0,.1-.1.2l-.1.1s-.1.1-.2.1-.1.1-.2.1c-.2,0-.5,0-.6-.1-.2-.1-.4-.3-.4-.5l-.5-1.3.4-.1.5,1.2c.2.4.4.5.8.5q.1,0,.2-.1c.1,0,.1-.1.2-.1q-.1,0,0,0,0-.2-.1-.3l-.6-1.4.4-.1.8,2-.4.1-.1-.3Zm1.2.2l-.8-2,.4-.1.1.3c0-.1,0-.2.1-.3s.2-.1.4-.2c.2,0,.5,0,.6.1.2.1.3.3.4.5l.5,1.3-.4.1-.5-1.2c-.2-.4-.4-.5-.8-.5q-.1,0-.2.1c-.1,0-.1.1-.2.1s-.1.1-.1.1v.2l.6,1.4-.1.1Zm1.7-2.8h-.2c-.1,0-.1-.1-.1-.1h0v-.1s.1-.1.2-.1h.2c.1,0,.1.1.1.1h0v.1s-.1.1-.2.1Zm0,.5l.4-.1.8,2-.4.1-.8-2Zm2.9,1.8h-.5c-.1,0-.3-.1-.4-.2-.1-.1-.2-.2-.4-.3-.1-.1-.2-.3-.3-.4-.1-.2-.1-.3-.1-.4s0-.2.1-.4c.1-.1.1-.2.2-.2.1-.1.2-.1.4-.1s.4,0,.6.1.3.2.5.3l-.2.2c-.1-.1-.2-.2-.3-.2s-.2-.1-.4-.1c-.1,0-.2.1-.3.1s-.1.1-.1.2q-.1.1,0,.2,0,.1.1.3l.1.3c.1.2.2.3.3.4.2.1.3.2.5.1.3,0,.5-.2.4-.4l.3.1c0,.1-.1.3-.2.4.1-.1-.1,0-.3,0Zm3-.5h-.3c-.1-.1-.2-.1-.2-.2h0c0,.1,0,.2-.1.3s-.2.1-.4.2c-.2,0-.5,0-.6-.1-.2-.1-.3-.2-.4-.4s-.1-.4.1-.5c.1-.1.4-.2.7-.2l.4-.1-.1-.2c-.1-.1-.1-.2-.3-.3-.1-.1-.3-.1-.5-.1-.1,0-.3.1-.3.1-.1.1-.1.2-.1.3l-.3-.1c0-.1.1-.2.2-.3s.3-.1.5-.2c.3,0,.5,0,.7.1s.4.3.4.5l.5,1.1h.2l.1.3-.2-.2Zm-1-.1q.1,0,.2-.1c.1,0,.1-.1.2-.1s.1-.1.1-.1v-.1l-.1-.3-.5.1c-.2,0-.3.1-.4.1s-.1.1,0,.2v.1c.1.1.1.2.2.2,0,0,.1,0,.3,0Zm2.3,0h-.3c-.1-.1-.2-.1-.2-.2l-.6-1.4-.4.1-.1-.3h.2q.1,0,.1-.1v-.1l-.2-.4h.3l.2.6.5-.1.1.3-.5.1.6,1.5.5-.1.1.3-.3-.2Zm.3-2.7h-.2c-.1,0-.1-.1-.1-.1h0v-.1s.1-.1.2-.1h.2c.1,0,.1.1.1.1h0v.1q-.1.1-.2.1Zm0,.5l.4-.1.8,2-.4.1-.8-2Zm2.9,1.8h-.5c-.2,0-.3-.1-.4-.2-.1-.1-.2-.2-.3-.3-.1-.1-.2-.3-.3-.4-.1-.1-.1-.3-.1-.4s0-.2.1-.4c.1-.1.1-.2.2-.2.1-.1.2-.1.4-.1h.4c.1,0,.3.1.4.2.1.1.3.2.4.3s.2.3.3.4c.1.1.1.3.1.4s0,.2-.1.4c-.1.1-.1.2-.2.2s-.3.1-.4.1Zm-.2-.3c.2,0,.3-.1.4-.2.1-.1.1-.3,0-.5l-.1-.3c-.1-.2-.2-.4-.4-.4-.2-.1-.3-.1-.5-.1s-.3.1-.4.2c-.1.1-.1.3,0,.5l.1.3c.1.2.2.4.4.4.2.1.4.1.5.1Zm1.8,0l-.8-2,.4-.1.1.3c0-.1,0-.2.1-.3s.2-.1.4-.2c.2,0,.5,0,.6.1.2.1.4.3.4.5l.5,1.3-.4.1-.5-1.2c-.2-.4-.4-.5-.8-.5q-.1,0-.2.1c-.1,0-.1.1-.2.1s-.1.1-.1.1v.2l.6,1.4-.1.1Zm2.6-.8h.2q.1.1.1.2h0c.1.1.1.2.1.4,0,.1-.1.3-.2.4h-.3c.1-.1.1-.2.1-.3v-.2q-.1,0-.2-.1l-.1-.1h0v-.2c.1-.1.2-.1.3-.1Zm3.5.1c-.4.1-.7,0-1-.2s-.6-.5-.8-1c-.2-.5-.2-.8-.1-1.1s.4-.4.7-.5c.2,0,.5,0,.7.1s.4.2.6.4l-.2.2c-.1-.1-.2-.2-.4-.3-.2-.1-.3-.1-.5-.1-.1,0-.2,0-.3.1-.1.1-.2.1-.2.2-.1.1-.1.2,0,.3,0,.1,0,.2.1.4l.2.4c.1.3.3.5.5.6s.4.2.7.2c.2,0,.3-.1.4-.2.1-.1.1-.2.1-.4l.4.1c0,.2-.1.4-.2.5-.3.2-.5.3-.7.3Zm1.6-.3l-.8-2,.4-.1.2.4h0c0-.1,0-.2.1-.3s.2-.2.4-.2h.1l.1.3h-.2c-.2,0-.3.1-.4.2-.1.1-.1.2-.1.3l.6,1.4h-.4Zm2.5-.3h-.5c-.1,0-.3-.1-.4-.2-.1-.1-.2-.2-.3-.3-.1-.1-.2-.3-.3-.4-.1-.1-.1-.3-.1-.4s0-.2.1-.4c.1-.1.1-.2.2-.3s.2-.1.4-.1h.4c.1,0,.3.1.4.2.1.1.2.2.3.3.1.1.2.2.2.4l.1.1-1.6.2v.1c0,.1.1.2.1.2q.1.1.2.2c.1.1.2.1.3.1h.3c.1,0,.3-.1.3-.1.1-.1.1-.2.1-.3l.3.1c0,.1-.1.3-.2.4.1.1-.1.2-.3.2Zm-.7-1.8c-.1,0-.2.1-.3.1s-.1.1-.2.2c0,.1-.1.1-.1.2v.2h0l1.2-.2h0c-.1-.2-.2-.3-.3-.4,0-.1-.1-.2-.3-.1Zm3.6,1.1c0,.3-.2.4-.5.5h-.4c-.1,0-.3-.1-.4-.2-.1-.1-.2-.2-.3-.3-.1-.1-.2-.3-.2-.4-.1-.2-.1-.3-.1-.4s0-.2.1-.4c.1-.1.1-.2.2-.3s.2-.1.3-.1.3,0,.5.1c.1.1.3.1.4.3l-.5-1.2.4-.1,1.2,2.9-.4.1-.3-.5Zm-.5.1h.2c.1,0,.1-.1.2-.1l.1-.1v-.2l-.3-.8s-.1-.1-.1-.2q-.1-.1-.2-.1c-.1,0-.1-.1-.2-.1h-.2c-.2,0-.3.1-.4.2-.1.1-.1.3,0,.5l.1.3c.1.2.2.3.3.4.1.2.3.3.5.2Zm1-2.5h-.2l-.1-.1h0v-.1s.1-.1.2-.1h.2l.1.1h0v.1q-.1.1-.2.1Zm0,.5l.4-.1.8,2-.4.1-.8-2Zm2.5,1.8h-.3c-.1-.1-.2-.1-.2-.2l-.6-1.4-.4.1-.1-.3h.2q.1,0,.1-.1v-.1l-.2-.4h.3l.2.6.5-.1.1.3-.5.1.6,1.5.5-.1.1.3-.3-.2Zm3.3-.4c-.4.1-.7,0-1-.2s-.6-.5-.8-1c-.2-.5-.2-.8-.1-1.1s.4-.4.7-.5c.2,0,.5,0,.7.1s.4.2.6.4l-.2.2c-.1-.1-.2-.2-.4-.3-.2-.1-.3-.1-.5-.1-.1,0-.2,0-.3.1-.1.1-.2.1-.2.2-.1.1-.1.2,0,.3,0,.1,0,.2.1.4l.2.4c.1.3.3.5.5.6s.4.2.7.2c.2,0,.3-.1.4-.2.1-.1.1-.2.1-.4l.4.1c0,.2-.1.4-.2.5-.2.2-.4.3-.7.3Zm2.6-.3h-.5c-.1,0-.3-.1-.4-.2-.1-.1-.2-.2-.4-.3-.1-.1-.2-.3-.3-.4-.1-.1-.1-.3-.1-.4s0-.2.1-.4c.1-.1.1-.2.2-.2.1-.1.2-.1.4-.1h.4c.1,0,.3.1.4.2.1.1.3.2.4.3s.2.3.3.4c.1.1.1.3.1.4s0,.2-.1.4c-.1.1-.1.2-.2.2s-.2.1-.3.1Zm-.2-.3c.2,0,.3-.1.4-.2.1-.1.1-.3,0-.5l-.1-.3c-.1-.2-.2-.4-.4-.4-.2-.1-.3-.1-.5-.1s-.3.1-.4.2c-.1.1-.1.3,0,.5l.1.3c.1.2.2.4.4.4.2.1.3.1.5.1Zm1.8,0l-.8-2,.4-.1.1.3c0-.1,0-.2.1-.3s.2-.1.4-.2c.2,0,.5,0,.6.1.2.1.4.3.4.5l.5,1.3-.4.1-.5-1.2c-.2-.4-.4-.5-.8-.5q-.1,0-.2.1c-.1,0-.1.1-.2.1s-.1.1-.1.1v.2l.6,1.4-.1.1Zm3.3-.4h-.6c-.2-.1-.3-.2-.5-.2l.2-.2c.1.1.3.1.4.2.1.1.3,0,.4,0s.3-.1.3-.1c.1-.1.1-.2,0-.2,0-.1-.1-.2-.2-.2s-.2-.1-.4-.1h-.5c-.1,0-.2-.1-.3-.1-.1-.1-.2-.1-.2-.1-.1-.1-.1-.2-.1-.2-.1-.1-.1-.2,0-.2,0-.1.1-.1.1-.2q.1-.1.2-.2c.1,0,.2-.1.3-.1h.5c.1.1.3.1.4.2l-.1.2c-.1-.1-.2-.1-.3-.1-.1-.1-.2,0-.4,0-.1,0-.3.1-.3.1q-.1.1,0,.2c.1.1.1.2.2.2.1.1.2.1.4.1h.2c.2,0,.5,0,.6.1s.3.2.3.4c.1.2.1.4,0,.5-.2,0-.4,0-.6,0Zm2.3-.2h-.5c-.1,0-.3-.1-.4-.2-.1-.1-.2-.2-.4-.3-.1-.1-.2-.3-.3-.4-.1-.1-.1-.3-.1-.4s0-.2.1-.4c.1-.1.1-.2.2-.3s.2-.1.4-.1h.4c.1,0,.3.1.4.2.1.1.2.2.3.3.1.1.2.2.2.4l.1.1-1.6.2v.1c0,.1.1.2.1.2q.1.1.2.2c.1.1.2.1.3.1h.3c.1,0,.3-.1.3-.1.1-.1.1-.2.1-.3l.3.1c0,.1-.1.3-.2.4.2.1,0,.1-.2.2Zm-.8-1.9c-.1,0-.2.1-.3.1s-.1.1-.2.2q-.1.1-.1.2v.2h0l1.2-.2h0c-.1-.2-.2-.3-.3-.4.1-.1-.1-.1-.3-.1Zm2.4,1.6l-.8-2,.4-.1.1.3c0-.1,0-.2.1-.3s.2-.1.4-.2c.2,0,.5,0,.6.1.2.1.4.3.4.5l.5,1.3-.4.1-.5-1.2c-.2-.4-.4-.5-.8-.5q-.1,0-.2.1c-.1,0-.1.1-.2.1l-.1.1v.2l.6,1.4-.1.1Zm3.1-.4h-.3c-.1,0-.2-.1-.2-.2l-.6-1.4-.4.1-.1-.3h.2q.1,0,.1-.1v-.1l-.2-.4h.3l.2.6.5-.1.1.3-.5.1.6,1.5.5-.1.1.3-.3-.2Zm1.1-.6h.2q.1.1.1.2h0c.1.1.1.2.1.4,0,.1-.1.3-.2.4h-.3c.1-.1.1-.2.1-.3v-.2q-.1,0-.2-.1l-.1-.1h0v-.2c.1-.1.2-.1.3-.1Zm2.4.1l-1.1-2.7,1.2-.2c.3,0,.5,0,.7.1s.4.3.5.6c.1.2.1.4,0,.6-.1.2-.3.2-.5.3l-.8.1.5,1.2h-.5Zm-.3-1.5l.8-.1c.1,0,.3-.1.3-.1.1-.1.1-.2,0-.3l-.1-.2c-.1-.1-.1-.2-.2-.3s-.2-.1-.4-.1l-.8.1.4,1Zm2.9,1.2l-.8-2,.4-.1.2.4h0c0-.1,0-.2.1-.3s.2-.2.4-.2h.1l.1.3h-.2c-.2,0-.3.1-.4.2-.1.1-.1.2-.1.3l.6,1.4h-.4Zm.8-2.8h-.2l-.1-.1h0v-.1s.1-.1.2-.1h.2c.1,0,.1.1.1.1h0v.1c-.1.1-.1.2-.2.1Zm.1.5l.4-.1.8,2-.4.1-.8-2Zm2.4,1.9l-1.6-1.9.4-.1.8.9.5.7h0l-.1-.7v-1.1h.3v2.1l-.3.1Zm3.3-.5h-.3c-.1-.1-.2-.1-.2-.2h0c0,.1,0,.2-.1.3s-.2.1-.4.2c-.2,0-.5,0-.6-.1-.2-.1-.3-.2-.4-.4s-.1-.4.1-.5c.1-.1.3-.2.7-.2l.4-.1-.1-.2c-.1-.1-.1-.2-.3-.3-.1-.1-.3-.1-.5-.1-.1,0-.3.1-.3.1-.1.1-.1.2-.1.3l-.3-.1c0-.1.1-.2.2-.3s.3-.1.5-.2c.3,0,.5,0,.7.1s.3.3.4.5l.5,1.1h.2l.1.3-.2-.2Zm-1-.1q.1,0,.2-.1c.1,0,.1-.1.2-.1s.1-.1.1-.1v-.1l-.1-.3-.5.1c-.2,0-.3.1-.4.1q-.1.1,0,.2v.1c.1.1.1.2.2.2,0,0,.1.1.3,0Zm2.7,0h-.5c-.1,0-.3-.1-.4-.2-.1-.1-.2-.2-.3-.3-.1-.1-.2-.3-.3-.4-.1-.1-.1-.3-.1-.4s0-.2.1-.4c.1-.1.1-.2.2-.2.1-.1.2-.1.4-.1s.4,0,.6.1.3.2.5.3l-.2.2c-.1-.1-.2-.2-.3-.2-.1-.1-.2-.1-.4-.1-.1,0-.2.1-.3.1s-.1.1-.1.2q-.1.1,0,.2,0,.1.1.3l.1.3c.1.2.2.3.3.4.2.1.3.2.5.1.3,0,.5-.2.4-.4l.3.1c0,.1-.1.3-.2.4,0-.2-.2-.1-.4,0Zm1.9-2.5l.4-.1v2.8s0,.1-.1.1l-.1.1s-.1,0-.2.1h-.2l-.1-.3.4-.1v-.5l-1.7-2,.4-.1,1.1,1.3.2.3h0v-.4l-.1-1.2Zm2.9,1.8l-1.1-2.7,1.2-.2c.3,0,.5,0,.7.1s.3.3.5.6c.1.2.1.4,0,.6-.1.2-.3.2-.5.3l-.8.1.5,1.2h-.5Zm-.2-1.5l.8-.1c.1,0,.3-.1.3-.1.1-.1.1-.2,0-.3l-.1-.2c-.1-.1-.1-.2-.2-.3s-.2-.1-.4-.1l-.8.1.4,1Zm3.6,1.1h-.5c-.1,0-.3-.1-.4-.2-.1-.1-.2-.2-.4-.3-.1-.1-.2-.3-.3-.4-.1-.1-.1-.3-.1-.4s0-.2.1-.4c.1-.1.1-.2.2-.2.1-.1.2-.1.4-.1h.4c.1,0,.3.1.4.2.1.1.3.2.4.3s.2.3.3.4c.1.1.1.3.1.4s0,.2-.1.4c-.1.1-.1.2-.2.2,0,0-.1.1-.3.1Zm-.1-.3c.2,0,.3-.1.4-.2.1-.1.1-.3,0-.5l-.1-.3c-.1-.2-.2-.4-.4-.4-.2-.1-.3-.1-.5-.1s-.3.1-.4.2c-.1.1-.1.3,0,.5l.1.3c.1.2.2.4.4.4.2,0,.3.1.5.1Zm2.2-.1h-.3c-.1,0-.2-.1-.2-.2l-1.1-2.6.4-.1,1.1,2.6h.3l.1.3h-.3Zm0-2.6h-.2l-.1-.1h0v-.1s.1-.1.2-.1h.2l.1.1h0v.1q-.1.1-.2.1Zm0,.5l.4-.1.8,2-.4.1-.8-2Zm2.9,1.8h-.5c-.1,0-.3-.1-.4-.2-.1-.1-.2-.2-.4-.3-.1-.1-.2-.3-.3-.4-.1-.1-.1-.3-.1-.4s0-.2.1-.4c.1-.1.1-.2.2-.2.1-.1.2-.1.4-.1s.4,0,.6.1.3.2.5.3l-.2.2c-.1-.1-.2-.2-.3-.2-.1-.1-.2-.1-.4-.1-.1,0-.2.1-.3.1s-.1.1-.1.2q-.1.1,0,.2,0,.1.1.3l.1.3c.1.2.2.3.3.4.2.1.3.2.5.1.3,0,.5-.2.4-.4l.3.1c0,.1-.1.3-.2.4,0-.1-.1,0-.3,0Zm1.9-2.4l.4-.1v2.8s0,.1-.1.1l-.1.1s-.1,0-.2.1h-.2l-.1-.3.4-.1v-.5l-1.7-2,.4-.1,1.1,1.3.2.3h0v-.4l-.1-1.2Zm-90.4,19.5l-1.1-2.7,1.2-.2c.3,0,.5,0,.7.1s.4.3.5.6c.1.2.1.4,0,.6-.1.2-.3.2-.5.3l-.8.1.5,1.2h-.5Zm-.3-1.5l.8-.1c.1,0,.3-.1.3-.1.1-.1.1-.2,0-.3l-.1-.2c-.1-.1-.1-.2-.2-.3s-.2-.1-.4-.1l-.8.1.4,1Zm4.5.9h-.3c-.1,0-.2-.1-.2-.2h0c0,.1,0,.2-.1.3s-.2.1-.4.2c-.2,0-.5,0-.6-.1-.2-.1-.3-.2-.4-.4s-.1-.4.1-.5c.1-.1.4-.2.7-.2l.4-.1-.1-.2c-.1-.1-.1-.2-.3-.3-.1-.1-.3-.1-.5-.1-.1,0-.3.1-.3.1-.1.1-.1.2-.1.3l-.2-.2c0-.1.1-.2.2-.3s.3-.1.5-.2c.3,0,.5,0,.7.1s.4.3.4.5l.5,1.1h.2l.1.3-.3-.1Zm-1.1-.1q.1,0,.2-.1c.1,0,.1-.1.2-.1l.1-.1v-.1l-.1-.3-.5.1c-.2,0-.3.1-.4.1q-.1.1,0,.2v.1c.1.1.1.2.2.2.1,0,.2,0,.3,0Zm2.4-.1h-.3c-.1,0-.2-.1-.2-.2l-.6-1.4-.4.1-.1-.3h.2q.1,0,.1-.1v-.1l-.2-.4h.3l.2.6.5-.1.1.3-.5.1.6,1.5.5-.1.1.3-.3-.2Zm1.1-.1l-.8-2,.4-.1.2.4h0c0-.1,0-.2.1-.3s.2-.2.4-.2h.1l.1.3h-.2c-.2,0-.3.1-.4.2-.1.1-.1.2-.1.3l.6,1.4h-.4Zm.8-2.7h-.2l-.1-.1h0v-.1s.1-.1.2-.1h.2l.1.1h0v.1s-.1.1-.2.1Zm.1.5l.4-.1.8,2-.4.1-.8-2Zm2.8,1.8h-.5c-.1,0-.3-.1-.4-.2-.1-.1-.2-.2-.4-.3-.1-.1-.2-.3-.3-.4-.1-.1-.1-.3-.1-.4s0-.2.1-.4c.1-.1.1-.2.2-.2.1-.1.2-.1.4-.1h.4c.1,0,.3.1.4.2.1.1.3.2.3.3.1.1.2.3.3.4.1.1.1.3.1.4s0,.2-.1.4c-.1.1-.1.2-.2.2.1,0,0,.1-.2.1Zm-.1-.3c.2,0,.3-.1.4-.2.1-.1.1-.3,0-.5l-.1-.3c-.1-.2-.2-.4-.4-.4-.2-.1-.3-.1-.5-.1s-.3.1-.4.2c-.1.1-.1.3,0,.5l.1.3c.1.2.2.4.4.4.1.1.3.1.5.1Zm2.2-.1h-.3c-.1,0-.2-.1-.2-.2l-.6-1.4-.4.1-.1-.3h.2q.1,0,.1-.1v-.1l-.2-.4h.3l.2.6.5-.1.1.3-.5.1.6,1.5.5-.1.1.3-.3-.2Zm4.2-.5l-.6-.8-1.2.2v.9l-.4.1-.1-2.9.5-.1,2.2,2.6h-.4Zm-1.9-2.3v1.4l1-.1-1-1.3Zm3.7,2.1h-.5c-.1-.1-.3-.1-.4-.2-.1-.1-.2-.2-.4-.3-.1-.1-.2-.3-.3-.4-.1-.2-.1-.3-.1-.4s0-.2.1-.4c.1-.1.1-.2.2-.2.1-.1.2-.1.4-.1s.4,0,.6.1.3.2.5.3l-.2.2c-.1-.1-.2-.2-.3-.2s-.2-.1-.4-.1c-.1,0-.2.1-.3.1s-.1.1-.1.2q-.1.1,0,.2,0,.1.1.3l.1.3c.1.2.2.3.3.4.2.1.3.2.5.1.3,0,.5-.2.4-.4l.3.1c0,.1-.1.3-.2.4.1-.1-.1,0-.3,0Zm1.9-.3h-.3c-.1,0-.2-.1-.2-.2l-.6-1.4-.4.1-.1-.3h.2q.1,0,.1-.1v-.1l-.2-.4h.3l.2.6.5-.1.1.3-.5.1.6,1.5.5-.1.1.3-.3-.2Z"/><path class="cls-5" d="m412.2,218.9h-.3c-.1-.1-.2-.1-.2-.2h0c0,.1,0,.2-.1.3s-.2.1-.4.2c-.2,0-.5,0-.6-.1-.2-.1-.3-.2-.4-.4s-.1-.4.1-.5c.1-.1.4-.2.7-.2l.4-.1-.1-.2c-.1-.1-.1-.2-.3-.3-.1-.1-.3-.1-.5-.1-.1,0-.3.1-.3.1-.1.1-.1.2-.1.3l-.3-.1c0-.1.1-.2.2-.3s.3-.1.5-.2c.3,0,.5,0,.7.1s.4.3.4.5l.5,1.1h.2l.1.3-.2-.2Zm-1.1,0q.1,0,.2-.1c.1,0,.1-.1.2-.1l.1-.1v-.1l-.1-.3-.5.1c-.2,0-.3.1-.4.1q-.1.1,0,.2v.1c.1.1.1.2.2.2,0,0,.1,0,.3,0Zm1.9-.1l-.8-2,.4-.1.1.3c0-.1,0-.2.1-.3s.2-.1.4-.2c.2,0,.5,0,.6.1.2.1.4.3.4.5l.5,1.3-.4.1-.5-1.2c-.2-.4-.4-.5-.8-.5q-.1,0-.2.1c-.1,0-.1.1-.2.1l-.1.1v.2l.6,1.4-.1.1Zm3.8-.8c0,.3-.2.4-.5.5h-.4c-.1,0-.3-.1-.4-.2-.1-.1-.2-.2-.3-.3-.1-.1-.2-.3-.2-.4-.1-.1-.1-.3-.1-.4s0-.2.1-.4c.1-.1.1-.2.2-.3s.2-.1.3-.1.3,0,.5.1c.1.1.3.1.4.3l-.5-1.2.4-.1,1.2,2.9-.4.1-.3-.5Zm-.5.2h.2c.1,0,.1-.1.2-.1l.1-.1v-.2l-.3-.8s-.1-.1-.1-.2q-.1-.1-.2-.1t-.2-.1h-.2c-.2,0-.3.1-.4.2-.1.1-.1.3,0,.5l.1.3c.1.2.2.3.3.4.1.2.2.2.5.2Zm3.4-.2h-.3c-.1,0-.2-.1-.2-.2l-.6-1.4-.4.1-.1-.3h.2q.1,0,.1-.1v-.1l-.2-.4h.3l.2.6.5-.1.1.3-.5.1.6,1.5.5-.1.1.3-.3-.2Zm-.1-3.1l.4-.1.5,1.2c0-.1,0-.2.1-.3s.2-.1.4-.2c.2,0,.5,0,.6.1.2.1.4.3.4.5l.5,1.3-.4.1-.5-1.2c-.2-.4-.4-.5-.8-.5q-.1,0-.2.1c-.1,0-.1.1-.2.1l-.1.1v.2l.6,1.4-.4.1-.9-2.9Zm4.6,2.5h-.5c-.1,0-.3-.1-.4-.2-.1-.1-.2-.2-.4-.3-.1-.1-.2-.3-.3-.4-.1-.1-.1-.3-.1-.4s0-.2.1-.4c.1-.1.1-.2.2-.3s.2-.1.4-.1h.4c.1,0,.3.1.4.2.1.1.2.2.3.3.1.1.2.2.2.4l.1.1-1.6.2v.1c0,.1.1.2.1.2q.1.1.2.2c.1.1.2.1.3.1h.3c.1,0,.3-.1.3-.1.1-.1.1-.2.1-.3l.3.1c0,.1-.1.3-.2.4.2.1,0,.2-.2.2Zm-.8-1.8c-.1,0-.2.1-.3.1s-.1.1-.2.2q-.1.1-.1.2v.2h0l1.2-.2h0c-.1-.2-.2-.3-.3-.4.1-.1-.1-.1-.3-.1Z"/><path d="m412.2,218.9h-.3c-.1-.1-.2-.1-.2-.2h0c0,.1,0,.2-.1.3s-.2.1-.4.2c-.2,0-.5,0-.6-.1-.2-.1-.3-.2-.4-.4s-.1-.4.1-.5c.1-.1.4-.2.7-.2l.4-.1-.1-.2c-.1-.1-.1-.2-.3-.3-.1-.1-.3-.1-.5-.1-.1,0-.3.1-.3.1-.1.1-.1.2-.1.3l-.3-.1c0-.1.1-.2.2-.3s.3-.1.5-.2c.3,0,.5,0,.7.1s.4.3.4.5l.5,1.1h.2l.1.3-.2-.2Zm-1.1,0q.1,0,.2-.1c.1,0,.1-.1.2-.1l.1-.1v-.1l-.1-.3-.5.1c-.2,0-.3.1-.4.1q-.1.1,0,.2v.1c.1.1.1.2.2.2,0,0,.1,0,.3,0Zm1.9-.1l-.8-2,.4-.1.1.3c0-.1,0-.2.1-.3s.2-.1.4-.2c.2,0,.5,0,.6.1.2.1.4.3.4.5l.5,1.3-.4.1-.5-1.2c-.2-.4-.4-.5-.8-.5q-.1,0-.2.1c-.1,0-.1.1-.2.1l-.1.1v.2l.6,1.4-.1.1Zm3.8-.8c0,.3-.2.4-.5.5h-.4c-.1,0-.3-.1-.4-.2-.1-.1-.2-.2-.3-.3-.1-.1-.2-.3-.2-.4-.1-.1-.1-.3-.1-.4s0-.2.1-.4c.1-.1.1-.2.2-.3s.2-.1.3-.1.3,0,.5.1c.1.1.3.1.4.3l-.5-1.2.4-.1,1.2,2.9-.4.1-.3-.5Zm-.5.2h.2c.1,0,.1-.1.2-.1l.1-.1v-.2l-.3-.8s-.1-.1-.1-.2q-.1-.1-.2-.1t-.2-.1h-.2c-.2,0-.3.1-.4.2-.1.1-.1.3,0,.5l.1.3c.1.2.2.3.3.4.1.2.2.2.5.2Zm3.4-.2h-.3c-.1,0-.2-.1-.2-.2l-.6-1.4-.4.1-.1-.3h.2q.1,0,.1-.1v-.1l-.2-.4h.3l.2.6.5-.1.1.3-.5.1.6,1.5.5-.1.1.3-.3-.2Zm-.1-3.1l.4-.1.5,1.2c0-.1,0-.2.1-.3s.2-.1.4-.2c.2,0,.5,0,.6.1.2.1.4.3.4.5l.5,1.3-.4.1-.5-1.2c-.2-.4-.4-.5-.8-.5q-.1,0-.2.1c-.1,0-.1.1-.2.1l-.1.1v.2l.6,1.4-.4.1-.9-2.9Zm4.6,2.5h-.5c-.1,0-.3-.1-.4-.2-.1-.1-.2-.2-.4-.3-.1-.1-.2-.3-.3-.4-.1-.1-.1-.3-.1-.4s0-.2.1-.4c.1-.1.1-.2.2-.3s.2-.1.4-.1h.4c.1,0,.3.1.4.2.1.1.2.2.3.3.1.1.2.2.2.4l.1.1-1.6.2v.1c0,.1.1.2.1.2q.1.1.2.2c.1.1.2.1.3.1h.3c.1,0,.3-.1.3-.1.1-.1.1-.2.1-.3l.3.1c0,.1-.1.3-.2.4.2.1,0,.2-.2.2Zm-.8-1.8c-.1,0-.2.1-.3.1s-.1.1-.2.2q-.1.1-.1.2v.2h0l1.2-.2h0c-.1-.2-.2-.3-.3-.4.1-.1-.1-.1-.3-.1Z"/><path class="cls-4" d="m257.3,88.6l-1.9-4.6,2.9-.4.1.3-2.5.3.7,1.7,2.4-.3.1.3-2.4.3.8,1.8,2.5-.3.1.3-2.8.6Zm4.1-.6l-1.4-3.3.4-.1.2.5h0c0-.2.1-.4.2-.5s.4-.2.6-.3c.4-.1.7,0,1.1.2.3.2.5.5.7.9l.9,2.1-.4.1-.9-2.1c-.1-.3-.3-.6-.6-.7-.2-.1-.5-.2-.8-.1-.1,0-.2,0-.4.1-.1.1-.2.1-.3.2-.1.1-.1.2-.1.3s0,.2.1.3l1,2.4h-.3Zm4.7-.6c-.1,0-.3,0-.4-.1s-.2-.2-.2-.3l-1.1-2.6-.6.1-.1-.3.4-.1c.1,0,.1-.1.2-.1v-.2l-.3-.7.4-.1.4.9.8-.1.1.3-.8.1,1.1,2.7.8-.1.1.3-.8.3Zm3.1-.3h-.7c-.2-.1-.4-.1-.7-.3-.2-.1-.4-.3-.6-.5s-.3-.5-.4-.7c-.1-.3-.2-.5-.2-.7s0-.4.1-.6.2-.3.4-.4c.2-.1.4-.2.6-.2s.5,0,.7.1.4.1.6.3c.2.1.4.3.5.5.2.2.3.4.4.6l.1.2-2.7.4.1.2c.1.2.2.3.3.5.1.1.2.2.4.3.2.1.3.1.5.2.2,0,.4.1.5,0,.5-.1.8-.4.8-.8l.4.2c0,.2-.1.5-.3.7-.1-.1-.4,0-.8,0Zm-1.3-3.2c-.2,0-.3.1-.4.2s-.2.2-.3.3c-.1.1-.1.3-.1.4s0,.3.1.5h0l2.3-.3h0c-.1-.2-.2-.3-.3-.5-.1-.2-.2-.2-.4-.3-.1-.1-.3-.1-.4-.2-.2-.1-.3-.1-.5-.1Zm3.9,2.8l-1.4-3.3.4-.1.2.6h0c0-.2.1-.3.2-.5s.3-.2.7-.3h.2l.2.4h-.3c-.3,0-.5.1-.7.3-.2.2-.2.3-.1.6l.9,2.3h-.3Zm5.1-4.2l.4-.1v4.5c0,.1,0,.2-.1.3-.1.1-.2.1-.4.1l-.4.1-.1-.3.7-.1v-.9l-2.8-3.3.4-.1,2.3,2.8h0v-3Zm3.9,3.1h-.7c-.2-.1-.4-.1-.6-.3-.2-.1-.4-.3-.6-.5s-.3-.5-.4-.7c-.1-.3-.2-.5-.2-.7s0-.4.1-.6.2-.3.4-.4c.2-.1.4-.2.6-.2h.7c.2.1.4.1.6.3.2.1.4.3.6.5s.3.4.4.7c.1.3.2.5.2.8,0,.2,0,.4-.1.6s-.2.3-.4.4c-.1,0-.3,0-.6.1Zm-.1-.4c.4-.1.6-.2.7-.4.1-.2.1-.5-.1-.9l-.2-.4c-.2-.4-.4-.7-.7-.9-.3-.2-.6-.3-1-.2-.4.1-.6.2-.7.4-.1.2-.1.5.1.9l.2.4c.2.4.4.7.7.9.3.2.6.3,1,.2Zm4.8-.9c-.1.1-.1.2-.1.2,0,.1-.1.2-.1.2-.1.1-.2.1-.3.2-.1.1-.2.1-.4.1-.4.1-.7,0-1.1-.2-.3-.2-.6-.5-.7-.9l-.9-2.1.4-.1.9,2.1c.1.3.3.6.6.8.2.1.5.2.8.1.1,0,.2,0,.4-.1.1-.1.2-.1.3-.2.1-.1.1-.2.1-.3s0-.2-.1-.4l-1-2.4.4-.1,1.4,3.3-.4.1-.2-.3Zm2,.3l-1.4-3.3.4-.1.2.6h0c0-.2.1-.3.2-.5s.4-.2.7-.3h.2l.2.4h-.3c-.3,0-.5.1-.7.3-.2.2-.2.3-.1.6l.9,2.3h-.3Zm2.9-3.9l.4-.1.2.5h0c0-.2.1-.4.2-.5s.4-.2.6-.3c.5-.1.9.1,1.3.3.4.3.7.7.9,1.3.2.6.3,1,.1,1.4-.2.3-.5.5-.9.6-.3,0-.5,0-.8-.1-.2-.1-.4-.2-.6-.4h0l.8,1.8-.4.1-1.8-4.6Zm2.8,2.9c.4-.1.6-.2.7-.4.1-.2.1-.5-.1-.9l-.2-.5c-.2-.4-.4-.6-.7-.8-.3-.2-.6-.3-1-.2-.1,0-.3.1-.4.1-.1.1-.2.1-.3.2-.1.1-.1.2-.1.3v.3l.5,1.3c.1.1.1.2.2.3.1.1.2.2.3.2.1.1.3.1.4.1h.7Zm.8-4.9l.4-.1.8,2h0c0-.2.1-.4.2-.5s.3-.2.6-.3c.4-.1.7,0,1.1.2.3.2.5.5.7.9l.9,2.1-.4.1-.9-2.1c-.1-.3-.3-.6-.6-.7-.2-.1-.5-.2-.8-.1-.1,0-.2,0-.4.1-.1.1-.2.1-.3.2-.1.1-.1.2-.1.3s0,.2.1.3l1,2.4-.4.1-1.9-4.9Zm7.4,4.2h-.7c-.2-.1-.4-.1-.6-.3-.2-.1-.4-.3-.6-.5s-.3-.5-.4-.7c-.1-.3-.2-.5-.2-.7s0-.4.1-.6.2-.3.4-.4c.2-.1.4-.2.6-.2h.7c.2.1.4.1.6.3.2.1.4.3.6.5s.3.4.4.7c.1.3.2.5.2.8,0,.2,0,.4-.1.6s-.2.3-.4.4c-.2,0-.4.1-.6.1Zm-.2-.3c.4-.1.6-.2.7-.4.1-.2.1-.5-.1-.9l-.2-.4c-.2-.4-.4-.7-.7-.9-.3-.2-.6-.3-1-.2-.4.1-.6.2-.7.4-.1.2-.1.5.1.9l.2.4c.2.4.4.7.7.9.3.1.7.2,1,.2Zm2.8-.1l-1.4-3.3.4-.1.2.5h0c0-.2.1-.4.2-.5s.3-.2.6-.3c.4-.1.7,0,1.1.2.3.2.5.5.7.9l.9,2.1-.4.1-.9-2.1c-.1-.3-.3-.6-.6-.7-.2-.1-.5-.2-.8-.1-.1,0-.2,0-.4.1-.1.1-.2.1-.3.2-.1.1-.1.2-.1.3s0,.2.1.3l1,2.4h-.3Zm5.4-.6h-.7c-.2-.1-.4-.1-.7-.3-.2-.1-.4-.3-.6-.5s-.3-.5-.4-.7c-.1-.3-.2-.5-.2-.7s0-.4.1-.6.2-.3.4-.4c.2-.1.4-.2.6-.2s.5,0,.7.1.4.1.6.3c.2.1.4.3.5.5.2.2.3.4.4.6l.1.2-2.7.4.1.2c.1.2.2.3.3.5.1.1.2.2.4.3.2.1.3.1.5.2.2,0,.3.1.5,0,.5-.1.8-.4.8-.8l.4.2c0,.2-.1.5-.3.7-.2-.2-.4-.1-.8,0Zm-1.3-3.2c-.2,0-.3.1-.4.2s-.2.2-.3.3c-.1.1-.1.3-.1.4s0,.3.1.5h0l2.3-.3h0c-.1-.2-.2-.3-.3-.5-.1-.2-.2-.2-.4-.3-.1-.1-.3-.1-.4-.2-.2-.2-.3-.2-.5-.1Zm5.6,2.5l-1.4-3.3.4-.1.2.5h0c0-.2.1-.4.2-.5s.4-.2.6-.3c.4-.1.7,0,1.1.2.3.2.5.5.7.9l.9,2.1-.4.1-.9-2.1c-.1-.3-.3-.6-.6-.7-.2-.1-.5-.2-.8-.1-.1,0-.2,0-.4.1-.1.1-.2.1-.3.2-.1.1-.1.2-.1.3s0,.2.1.3l1,2.4h-.3Zm6.2-1.4c-.1.1-.1.2-.1.2,0,.1-.1.2-.1.2-.1.1-.2.1-.3.2-.1.1-.2.1-.4.1-.4.1-.7,0-1.1-.2-.3-.2-.6-.5-.7-.9l-.9-2.1.4-.1.9,2.1c.1.3.4.6.6.8.2.1.5.2.8.1.1,0,.2,0,.4-.1.1-.1.2-.1.3-.2.1-.1.1-.2.1-.3s0-.2-.1-.4l-1-2.4.4-.1,1.4,3.3-.4.1-.2-.3Zm1.9.3l-1.4-3.3.4-.1.2.5h0v-.2c0-.1.1-.2.1-.2l.2-.2c.1-.1.2-.1.4-.1s.5,0,.8.1c.2.1.5.2.7.5h0c0-.2.1-.4.2-.5.1-.2.4-.3.7-.3.4-.1.7,0,1,.2s.5.5.7.9l.9,2.1-.4.1-.9-2.1c-.3-.7-.7-1-1.3-.9-.1,0-.2,0-.4.1-.1.1-.2.1-.2.2-.1.1-.1.2-.1.3s0,.2.1.3l1,2.4-.4.1-.9-2.1c-.3-.7-.7-1-1.3-.9-.1,0-.2,0-.4.1-.1.1-.2.1-.3.2-.1.1-.1.2-.1.3s0,.2.1.3l1,2.4-.4-.2Zm4.3-5.6l.4-.1.8,2h0c0-.2.1-.4.2-.5s.4-.2.6-.3c.5-.1.9.1,1.3.3.4.3.7.7.9,1.3.2.6.3,1,.1,1.4-.2.3-.5.5-.9.6-.3,0-.5,0-.8-.1-.2-.1-.4-.2-.6-.4h0l.2.5-.4.1-1.8-4.8Zm3.4,4.4c.4-.1.6-.2.7-.4.1-.2.1-.5-.1-.9l-.1-.6c-.2-.4-.4-.6-.7-.8-.3-.2-.6-.3-1-.2-.1,0-.3.1-.4.1-.1.1-.2.1-.3.2-.1.1-.1.2-.1.3v.3l.5,1.3c.1.1.1.2.2.3.1.1.2.2.3.2.1.1.3.1.4.1.3.1.5.1.6.1Zm4.1-.2h-.7c-.2-.1-.4-.1-.7-.3-.2-.1-.4-.3-.6-.5s-.3-.5-.4-.7-.2-.5-.2-.7,0-.4.1-.6.2-.3.4-.4c.2-.1.4-.2.6-.2s.5,0,.7.1.4.1.6.3c.2.1.4.3.5.5.2.2.3.4.4.6l.1.2-2.7.4.1.2c.1.2.2.3.3.5.1.1.2.2.4.3.2.1.3.1.5.2.2,0,.4.1.5,0,.5-.1.8-.4.8-.8l.4.2c0,.2-.1.5-.3.7-.1-.2-.4-.1-.8,0Zm-1.3-3.2c-.2,0-.3.1-.4.2s-.2.2-.3.3c-.1.1-.1.3-.1.4s0,.3.1.5h0l2.3-.3h0c-.1-.2-.2-.3-.3-.5-.1-.2-.2-.2-.4-.3-.1-.1-.3-.1-.4-.2-.2-.1-.3-.1-.5-.1Zm3.9,2.8l-1.4-3.3.4-.1.2.6h0c0-.2.1-.3.2-.5s.4-.2.7-.3h.2l.2.4h-.3c-.3,0-.5.1-.7.3-.2.2-.2.3-.1.6l.9,2.3h-.3Zm6.8-.9c-.1,0-.3,0-.4-.1s-.2-.2-.2-.3l-.1-.1h0c0,.2-.1.4-.2.5-.2.1-.3.2-.6.3-.4.1-.7,0-1-.1s-.5-.4-.6-.7c-.1-.3-.1-.5.1-.7s.5-.4,1-.4l.9-.1-.2-.4c-.2-.6-.7-.8-1.3-.7-.2,0-.4.1-.6.2-.1.1-.2.3-.2.5l-.3-.2c0-.2.1-.4.2-.5.2-.2.4-.3.8-.3.4-.1.8,0,1.1.1.3.2.5.4.7.8l.8,2,.5-.1.1.3h-.5Zm-1.6-.1c.1,0,.3-.1.4-.1.1-.1.2-.1.3-.2.1-.1.1-.2.1-.3v-.3l-.3-.6-.9.1c-.4.1-.6.1-.7.3-.1.1-.1.3-.1.5l.1.1c.1.2.2.4.4.4.2.1.4.2.7.1Zm2.9-.1l-1.4-3.3.4-.1.2.5h0c0-.2.1-.4.2-.5s.3-.2.6-.3c.4-.1.7,0,1.1.2.3.2.5.5.7.9l.9,2.1-.4.1-.9-2.1c-.1-.3-.3-.6-.6-.7-.2-.1-.5-.2-.8-.1-.1,0-.2,0-.4.1-.1.1-.2.1-.3.2-.1.1-.1.2-.1.3s0,.2.1.3l1,2.4h-.3Zm6.2-1.4c0,.2-.1.4-.3.5-.1.1-.4.2-.6.3-.5.1-.9-.1-1.3-.3-.4-.3-.7-.7-.9-1.3-.2-.6-.3-1-.1-1.4.2-.3.5-.5.9-.6.3,0,.5,0,.8.1.2.1.4.2.6.4h0l-.8-2,.4-.1,2,4.8-.4.1-.3-.5Zm-.9.4c.1,0,.3-.1.4-.1.1-.1.2-.1.3-.2.1-.1.1-.2.1-.3s0-.2-.1-.3l-.5-1.3c-.1-.1-.1-.2-.2-.3-.1-.1-.2-.2-.3-.2-.1-.1-.3-.1-.4-.1h-.4c-.4.1-.6.2-.7.4-.1.2-.1.5.1.9l.2.5c.2.4.4.6.7.8.1.2.4.3.8.2Zm6.8-1.2c0,.2-.1.4-.3.5-.1.1-.4.2-.6.3-.5.1-.9-.1-1.3-.3-.4-.3-.7-.7-.9-1.3-.2-.6-.3-1-.1-1.4.2-.3.5-.5.9-.6.3,0,.5,0,.8.1.2.1.4.2.6.4h0l-.8-2,.4-.1,2,4.8-.4.1-.3-.5Zm-1,.5c.1,0,.3-.1.4-.1.1-.1.2-.1.3-.2.1-.1.1-.2.1-.3s0-.2-.1-.3l-.5-1.3c-.1-.1-.1-.2-.2-.3-.1-.1-.2-.2-.3-.2-.1-.1-.3-.1-.4-.1h-.4c-.4.1-.6.2-.7.4-.1.2-.1.5.1.9l.2.5c.2.4.4.6.7.8.1.2.5.2.8.2Zm5.5-.5c-.1,0-.3,0-.4-.1s-.2-.2-.2-.3l-.1-.1h0c0,.2-.1.4-.2.5-.2.1-.4.2-.6.3-.4.1-.7,0-1-.1s-.5-.4-.6-.7c-.1-.3-.1-.5.1-.7s.5-.4,1-.4l.9-.1-.2-.4c-.2-.6-.7-.8-1.3-.7-.2,0-.4.1-.6.2-.1.1-.2.3-.2.5l-.3-.2c0-.2.1-.4.2-.5.2-.2.4-.3.8-.3.4-.1.8,0,1.1.1.3.2.5.4.7.8l.8,2,.5-.1.1.3h-.5Zm-1.7,0c.1,0,.3-.1.4-.1.1-.1.2-.1.3-.2.1-.1.1-.2.1-.3v-.3l-.3-.6-.9.1c-.4.1-.6.1-.7.3-.1.1-.1.3-.1.5l.1.1c.1.2.2.4.4.4.3.1.5.1.7.1Zm3.6-.2c-.1,0-.3,0-.4-.1s-.2-.2-.2-.3l-1.1-2.6-.6.1-.1-.3.4-.1c.1,0,.1-.1.2-.1v-.2l-.3-.7.4-.1.4.9.8-.1.1.3-.8.1,1.1,2.7.8-.1.1.3-.8.3Zm3.1-.4h-.7c-.2-.1-.4-.1-.7-.3-.2-.1-.4-.3-.6-.5s-.3-.5-.4-.7c-.1-.3-.2-.5-.2-.7s0-.4.1-.6.2-.3.4-.4c.2-.1.4-.2.6-.2s.5,0,.7.1.4.1.6.3c.2.1.4.3.5.5.2.2.3.4.4.6l.1.2-2.7.4.1.2c.1.2.2.3.3.5.1.1.2.2.4.3.2.1.3.1.5.2.2,0,.4.1.5,0,.5-.1.8-.4.8-.8l.4.2c0,.2-.1.5-.3.7-.1-.1-.4,0-.8,0Zm-1.3-3.1c-.2,0-.3.1-.4.2s-.2.2-.3.3c-.1.1-.1.3-.1.4s0,.3.1.5h0l2.3-.3h0c-.1-.2-.2-.3-.3-.5-.1-.2-.2-.2-.4-.3-.1-.1-.3-.1-.4-.2-.2-.1-.3-.2-.5-.1Zm6.9,2.4h-.7c-.2-.1-.4-.1-.6-.3-.2-.1-.4-.3-.6-.5s-.3-.5-.4-.7c-.1-.3-.2-.5-.2-.7s0-.4.1-.6.2-.3.4-.4c.2-.1.4-.2.6-.2h.7c.2.1.4.1.6.3.2.1.4.3.6.5s.3.4.4.7c.1.3.2.5.2.8,0,.2,0,.4-.1.6s-.2.3-.4.4c-.1,0-.3.1-.6.1Zm-.1-.3c.4-.1.6-.2.7-.4.1-.2.1-.5-.1-.9l-.2-.4c-.2-.4-.4-.7-.7-.9-.3-.2-.6-.3-1-.2-.4.1-.6.2-.7.4-.1.2-.1.5.1.9l.2.4c.2.4.4.7.7.9.3.2.6.2,1,.2Zm1.6-3.1l-.6.1-.1-.3.6-.1-.4-.9c-.1-.2-.1-.3,0-.4s.2-.2.4-.2l.6-.1.1.3-.8.1.5,1.2.8-.1.1.3-.8.1,1.3,3-.4.1-1.3-3.1Zm-114.2,21.9l.4-.1.8,2h0c0-.2.1-.4.2-.5s.4-.2.6-.3c.5-.1.9.1,1.3.3.4.3.7.7.9,1.3.2.6.3,1,.1,1.4-.2.3-.5.5-.9.6-.3,0-.5,0-.8-.1-.2-.1-.4-.2-.6-.4h0l.2.5-.4.1-1.8-4.8Zm3.3,4.5c.4-.1.6-.2.7-.4.1-.2.1-.5-.1-.9l-.2-.5c-.2-.4-.4-.6-.7-.8-.3-.2-.6-.3-1-.2-.1,0-.3.1-.4.1-.1.1-.2.1-.3.2-.1.1-.1.2-.1.3v.3l.5,1.3c.1.1.1.2.2.3.1.1.2.2.3.2.1.1.3.1.4.1h.7Zm1.3-4.4h-.2q-.1-.1-.1-.2v-.3q.1-.1.2-.1h.2l.2.2v.3q-.2,0-.3.1Zm.2.9l.4-.1,1.4,3.3-.4.1-1.4-3.3Zm3.1,3.1l-1.4-3.3.4-.1.2.6h0c0-.2.1-.3.2-.5s.3-.2.7-.3h.2l.2.4h-.3c-.3,0-.5.1-.7.3-.2.2-.2.3-.1.6l.9,2.3h-.3Zm3.3-.4c-.1,0-.3,0-.4-.1s-.2-.2-.2-.3l-1.1-2.6-.6.1-.1-.3.4-.1c.1,0,.1-.1.2-.1v-.2l-.3-.7.4-.1.4.9.8-.1.1.3-.8.1,1.1,2.7.8-.1.1.3-.8.3Zm-.2-5.1l.4-.1.8,2h0c0-.2.1-.4.2-.5s.4-.2.6-.3c.4-.1.7,0,1.1.2.3.2.5.5.7.9l.9,2.1-.4.1-.9-2.1c-.1-.3-.3-.6-.6-.7-.2-.1-.5-.2-.8-.1-.1,0-.2,0-.4.1-.1.1-.2.1-.3.2-.1.1-.1.2-.1.3s0,.2.1.3l1,2.4-.4.1-1.9-4.9Zm6.3,4.4h-.3l-.2-.2v-.1c0-.1-.1-.1,0-.2s.1-.1.2-.1h.3l.2.2v.1c0,.1.1.1,0,.2,0,0-.1,0-.2.1Zm4.1-.6l-3.2-4.4.5-.1,2.8,3.9h0l-.5-4.2.5-.1,2.9,3.9h0l-.6-4.2.4-.1.6,4.8-.5.1-2.9-4,.5,4.3-.5.1Zm6.9-.9h-.7c-.2-.1-.4-.1-.7-.3-.2-.1-.4-.3-.6-.5s-.3-.5-.4-.7c-.1-.3-.2-.5-.2-.7s0-.4.1-.6.2-.3.4-.4c.2-.1.4-.2.6-.2s.5,0,.7.1.4.1.6.3c.2.1.4.3.5.5.2.2.3.4.4.6l.1.2-2.7.4.1.2c.1.2.2.3.3.5.1.1.2.2.4.3.2.1.3.1.5.2.2,0,.4.1.5,0,.5-.1.8-.4.8-.8l.4.2c0,.2-.1.5-.3.7-.3-.1-.5,0-.8,0Zm-1.4-3.1c-.2,0-.3.1-.4.2s-.2.2-.3.3c-.1.1-.1.3-.1.4s0,.3.1.5h0l2.3-.3h0c-.1-.2-.2-.3-.3-.5-.1-.2-.2-.2-.4-.3-.1-.1-.3-.1-.4-.2-.2-.2-.3-.2-.5-.1Zm2-2.2h.3l.2.2v.1c.1.2.1.4.1.6s-.1.4-.2.6l-.4.1c.1-.2.2-.3.2-.5v-.5c-.1,0-.2,0-.2-.1q-.1-.1-.1-.2v-.1c0-.1-.1-.1,0-.2-.1.1,0,0,.1,0Zm4.1,4.6c-.1,0-.3,0-.4-.1s-.2-.2-.2-.3l-1.8-4.4.4-.1,1.9,4.5.6-.1.1.3-.6.2Zm1.8-.2c-.1,0-.3,0-.4-.1s-.2-.2-.2-.3l-1.8-4.4.4-.1,1.9,4.5.6-.1.1.3-.6.2Zm3.8-.5c-.1,0-.3,0-.4-.1s-.2-.2-.2-.3l-1.1-2.6-.6.1-.1-.3.4-.1c.1,0,.1-.1.2-.1v-.2l-.3-.7.4-.1.3,1.1.8-.1.1.3-.8.1,1.1,2.7.8-.1.1.3-.7.1Zm3.1-.3h-.7c-.2-.1-.4-.1-.7-.3-.2-.1-.4-.3-.6-.5s-.3-.5-.4-.7c-.1-.3-.2-.5-.2-.7s0-.4.1-.6.2-.3.4-.4c.2-.1.4-.2.6-.2s.5,0,.7.1.4.1.6.3c.2.1.4.3.5.5.2.2.3.4.4.6l.1.2-2.7.4.1.2c.1.2.2.3.3.5.1.1.2.2.4.3.2.1.3.1.5.2.2,0,.3.1.5,0,.5-.1.8-.4.8-.8l.4.2c0,.2-.1.5-.3.7-.1-.2-.4,0-.8,0Zm-1.3-3.2c-.2,0-.3.1-.4.2s-.2.2-.3.3c-.1.1-.1.3-.1.4s0,.3.1.5h0l2.3-.3h0c-.1-.2-.2-.3-.3-.5-.1-.2-.2-.2-.4-.3-.1-.1-.3-.1-.4-.2-.2-.1-.3-.1-.5-.1Zm3.4,2.8l.7-1.9-2-1.5.5-.1,1.6,1.2h0l.5-1.5.5-.1-.6,1.8,2,1.5-.5.1-1.7-1.3-.6,1.6-.4.2Zm4.6-.6c-.1,0-.3,0-.4-.1s-.2-.2-.2-.3l-1.1-2.6-.6.1-.1-.3.4-.1c.1,0,.1-.1.2-.1v-.2l-.3-.7.4-.1.4.9.8-.1.1.3-.8.1,1.1,2.7.8-.1.1.3-.8.3Zm4.3-4.1l.4-.1v4.5c0,.1,0,.2-.1.3-.1.1-.2.1-.4.1l-.4.1-.1-.3.6-.1v-.9l-2.8-3.3.4-.1,2.3,2.8h0l.1-3Zm3.9,3.1h-.7c-.2-.1-.4-.1-.6-.3-.2-.1-.4-.3-.6-.5s-.3-.5-.4-.7c-.1-.3-.2-.5-.2-.7s0-.4.1-.6.2-.3.4-.4c.2-.1.4-.2.6-.2h.7c.2.1.4.1.6.3.2.1.4.3.6.5s.3.4.4.7c.1.3.2.5.2.8,0,.2,0,.4-.1.6s-.2.3-.4.4c-.1,0-.3.1-.6.1Zm-.1-.3c.4-.1.6-.2.7-.4.1-.2.1-.5-.1-.9l-.2-.4c-.2-.4-.4-.7-.7-.9-.3-.2-.6-.3-1-.2-.4.1-.6.2-.7.4-.1.2-.1.5.1.9l.2.4c.2.4.4.7.7.9.3.2.6.2,1,.2Zm4.9-.9c-.1.1-.1.2-.1.2,0,.1-.1.2-.1.2-.1.1-.2.1-.3.2-.1.1-.2.1-.4.1-.4.1-.7,0-1.1-.2-.3-.2-.6-.5-.7-.9l-.9-2.1.4-.1.9,2.1c.1.3.4.6.6.8.2.1.5.2.8.1.1,0,.2,0,.4-.1.1-.1.2-.1.3-.2.1-.1.1-.2.1-.3s0-.2-.1-.4l-1-2.4.4-.1,1.4,3.3-.4.1-.2-.3Zm6.2-.3c-.1,0-.3,0-.4-.1s-.2-.2-.2-.3l-.1-.1h0c0,.2-.1.4-.2.5-.2.1-.3.2-.6.3-.4.1-.7,0-1-.1s-.5-.4-.6-.7c-.1-.3-.1-.5.1-.7s.5-.4,1-.4l.9-.1-.2-.4c-.2-.6-.7-.8-1.3-.7-.2,0-.4.1-.6.2-.1.1-.2.3-.2.5l-.3-.2c0-.2.1-.4.2-.5.2-.2.4-.3.8-.3.4-.1.8,0,1.1.1.3.2.5.4.7.8l.8,2,.5-.1.1.3h-.5Zm-1.7,0c.1,0,.3-.1.4-.1.1-.1.2-.1.3-.2.1-.1.1-.2.1-.3v-.3l-.3-.6-.9.1c-.4.1-.6.1-.7.3-.1.1-.1.3-.1.5l.1.1c.1.2.2.4.4.4.2.1.5.1.7.1Zm5.1-.5c-.1,0-.3,0-.4-.1s-.2-.2-.2-.3l-1.8-4.4.4-.1,1.9,4.5.6-.1.1.3-.6.2Zm-.1-4.4h-.2q-.1-.1-.1-.2v-.3q.1-.1.2-.1h.2l.2.2v.3c-.1.1-.2.1-.3.1Zm.2.9l.4-.1,1.4,3.3-.4.1-1.4-3.3Zm3.1,3.1l-1.4-3.3.4-.1.2.5h0c0-.2.1-.4.2-.5s.4-.2.6-.3c.4-.1.7,0,1.1.2.3.2.5.5.7.9l.9,2.1-.4.1-.9-2.1c-.1-.3-.3-.6-.6-.7-.2-.1-.5-.2-.8-.1-.1,0-.2,0-.4.1-.1.1-.2.1-.3.2-.1.1-.1.2-.1.3s0,.2.1.3l1,2.4h-.3Zm2.1-5.3l.4-.1,1.3,3.2h0l.4-.6.7-1.3.5-.1-.9,1.5,2.4,1.8-.5.1-2.1-1.6-.4.6.5,1.2-.4.1-1.9-4.8Zm6.3,1l-.6.1-.1-.3.6-.1-.4-.9c-.1-.2-.1-.3,0-.4s.2-.2.4-.2l.6-.1.1.3-.8.1.5,1.2.8-.1.1.3-.8.1,1.3,3-.4.1-1.3-3.1Zm3.3,2.8l-1.4-3.3.4-.1.2.6h0c0-.2.1-.3.2-.5s.4-.2.7-.3h.2l.2.4h-.3c-.3,0-.5.1-.7.3-.2.2-.2.3-.1.6l.9,2.3h-.3Zm3.9-.4h-.7c-.2-.1-.4-.1-.6-.3-.2-.1-.4-.3-.6-.5s-.3-.5-.4-.7c-.1-.3-.2-.5-.2-.7s0-.4.1-.6.2-.3.4-.4c.2-.1.4-.2.6-.2h.7c.2.1.4.1.6.3.2.1.4.3.6.5s.3.4.4.7c.1.3.2.5.2.8,0,.2,0,.4-.1.6s-.2.3-.4.4c-.1,0-.3.1-.6.1Zm-.1-.3c.4-.1.6-.2.7-.4.1-.2.1-.5-.1-.9l-.2-.4c-.2-.4-.4-.7-.7-.9-.3-.2-.6-.3-1-.2-.4.1-.6.2-.7.4-.1.2-.1.5.1.9l.2.4c.2.4.4.7.7.9.3.1.6.2,1,.2Zm2.7-.1l-1.4-3.3.4-.1.2.5h0v-.2c0-.1.1-.2.1-.2l.2-.2c.1-.1.2-.1.4-.1s.5,0,.8.1c.2.1.5.2.7.5h0c0-.2.1-.4.2-.5.1-.2.4-.3.7-.3.4-.1.7,0,1,.2s.5.5.7.9l.9,2.1-.4.1-.9-2.1c-.3-.7-.7-1-1.3-.9-.1,0-.2,0-.4.1-.1.1-.2.1-.2.2-.1.1-.1.2-.1.3s0,.2.1.3l1,2.4-.4.1-.9-2.1c-.3-.7-.7-1-1.3-.9-.1,0-.2,0-.4.1-.1.1-.2.1-.3.2-.1.1-.1.2-.1.3s0,.2.1.3l1,2.4-.4-.2Zm7.2-3.1c-.1-.3-.2-.6-.3-.9s-.1-.6,0-.9c0-.3.1-.5.1-.7.1-.2.2-.4.3-.6l.5-.1c-.1.2-.2.4-.3.6-.1.2-.1.5-.1.7v.8c0,.3.1.5.2.8l.2.5c.1.3.2.5.4.8.2.2.4.5.6.7s.4.4.7.6c.3.2.5.4.8.5h-.5c-.2-.1-.5-.3-.7-.5-.3-.2-.5-.4-.7-.6s-.4-.5-.6-.8c-.3-.3-.5-.6-.6-.9Zm5.2-1.7c.1.3.2.7.2,1s0,.6-.1.9-.2.5-.3.7c-.1.2-.3.4-.5.6l-.6.1c.2-.2.4-.4.5-.6s.3-.4.3-.6c.1-.2.1-.4.2-.7v-.8h0c0,.2-.1.4-.3.6-.2.2-.4.2-.7.3h-.7c-.2,0-.4-.1-.6-.2s-.3-.2-.5-.4c-.2-.2-.3-.4-.4-.6s-.1-.4-.1-.6.1-.4.1-.5c.1-.2.2-.3.4-.4.2-.1.4-.2.6-.2h.7c.2.1.4.1.6.3.2.1.4.3.5.5.5.1.6.4.7.6Zm-1.3,1.1c.4-.1.6-.2.8-.4.1-.2.1-.5,0-.8l-.1-.1c-.1-.3-.4-.6-.6-.7-.3-.2-.6-.2-1-.2-.3.1-.6.2-.8.4-.1.2-.1.5,0,.8l.1.1c.1.3.4.5.6.7.3.2.6.2,1,.2Zm3.9-1c.4-.1.6-.2.7-.3.1-.2.2-.4.1-.6v-.1c-.1-.3-.3-.4-.5-.6-.2-.1-.5-.1-.8-.1s-.5.1-.6.3c-.1.1-.2.3-.2.5l-.4-.2c0-.1.1-.2.1-.3.1-.1.1-.2.2-.3.1-.1.2-.2.4-.2.2-.1.3-.1.5-.1h.6c.2,0,.4.1.5.2.2.1.3.2.5.3.1.1.2.3.3.5.1.3.1.5,0,.7s-.3.4-.6.5h0c.1,0,.3,0,.5.1.1.1.3.1.4.2s.3.2.4.3c.1.1.2.3.3.5.1.2.1.4.1.5,0,.2-.1.3-.2.4s-.2.2-.4.3c-.2.1-.4.2-.6.2-.4.1-.8,0-1.1-.1-.3-.1-.6-.3-.8-.5l.2-.2c.2.2.5.3.7.4s.5.1.8,0c.4-.1.6-.2.8-.4.1-.2.2-.4,0-.7l-.1-.1c-.1-.3-.3-.5-.6-.6-.3-.1-.6-.2-1-.1l-.6.1-.1-.3.5-.2Zm4.1,2.2l-.1-.3,1.5-.2-1.6-3.9h0l-.9,1.3-.4-.2,1-1.4.6-.1,1.7,4.2,1.4-.2.1.3-3.3.5Zm4.6-2.8c.1.3.2.6.3.9,0,.3.1.6.1.9s-.1.5-.1.7c-.1.2-.2.4-.3.6l-.4.1c.1-.2.2-.4.3-.6.1-.2.1-.5.2-.7v-.8c0-.2-.1-.5-.2-.8l-.2-.5c-.1-.3-.2-.5-.4-.8-.2-.2-.4-.5-.6-.7s-.4-.4-.7-.6c-.3-.2-.5-.4-.8-.5l.4-.1c.2.1.5.3.7.5.3.2.5.4.7.6s.4.5.6.8c.1.4.3.7.4,1Zm-107.5,25.2l-3.2.4-.2-.4,1.1-1.8c.1-.2.2-.5.3-.7.1-.2,0-.5-.1-.7l-.1-.1c-.1-.3-.3-.5-.5-.6s-.5-.2-.9-.2c-.3.1-.5.1-.7.3-.1.2-.2.4-.2.6l-.5-.1v-.4c0-.1.1-.3.2-.4s.2-.2.4-.3c.2-.1.3-.1.6-.2h.7c.2,0,.4.1.6.2s.3.2.4.4c.1.2.2.3.3.5.1.2.1.3.1.5v.5c0,.1-.1.3-.2.4s-.1.3-.3.4l-1,1.5,2.8-.4.4.6Zm1.2-.2l-.1-.3,1.5-.2-1.6-3.9h0l-.9,1.3-.4-.2,1-1.4.6-.1,1.7,4.2,1.4-.2.1.3-3.3.5Zm5.9-.6h-.8c-.2,0-.5-.1-.6-.2-.2-.1-.4-.2-.5-.4-.1-.2-.2-.3-.3-.5-.1-.3-.1-.6,0-.8.1-.2.3-.4.6-.5h0c-.3,0-.6-.1-.8-.3-.2-.2-.4-.4-.5-.7-.1-.3-.1-.6.1-.9s.5-.4,1-.5.9,0,1.2.2c.4.2.6.4.8.8.1.3.1.5.1.7-.1.2-.3.4-.5.5h0c.4,0,.6.1.9.3.3.2.5.4.6.7.1.2.1.4.1.5,0,.2-.1.3-.2.4s-.2.2-.4.3c-.3.3-.5.3-.8.4Zm-.2-.4c.4-.1.7-.2.8-.4.2-.2.2-.4.1-.7l-.1-.1c-.1-.3-.3-.5-.6-.6-.3-.1-.6-.2-1-.1s-.7.2-.8.4c-.2.2-.2.4-.1.7l.1.1c.1.3.3.5.6.6s.7.1,1,.1Zm-.9-2.3c.4-.1.6-.1.7-.3.1-.2.2-.4.1-.6l-.1-.1c-.1-.3-.3-.4-.5-.6-.3-.1-.5-.1-.9-.1-.4.1-.6.2-.7.3-.1.2-.2.4-.1.6l.1.1c.1.3.3.5.5.6s.5.2.9.1Zm3,.4l-.2-.4,1.8-.2.2.4-1.8.2Zm4.4,1.3l.3-4.5-2.4.3.4.9-.4.1-.5-1.3,3.2-.4.1.3-.3,4.5-.4.1Zm6.8-.9l-3.2.4-.2-.4,1.1-1.8c.1-.2.2-.5.3-.7.1-.2,0-.5-.1-.7l-.1-.1c-.1-.3-.3-.5-.5-.6s-.5-.2-.9-.2c-.3.1-.5.1-.7.3-.1.2-.2.4-.2.6l-.5-.1v-.4c0-.1.1-.3.2-.4s.2-.2.4-.3c.1-.1.3-.1.6-.2h.7c.2,0,.4.1.6.2s.3.2.4.4c.1.2.2.3.3.5.1.2.1.3.1.5v.5c0,.1-.1.3-.2.4s-.1.3-.3.4l-1,1.5,2.8-.4.4.6Zm2.7-.2h-.8c-.2-.1-.4-.1-.7-.3-.2-.1-.4-.3-.5-.5-.2-.2-.3-.4-.4-.7-.1-.3-.2-.7-.3-1,0-.3,0-.6.1-.9s.2-.5.3-.7c.1-.2.3-.4.5-.6l.6-.1c-.2.2-.4.4-.5.6s-.3.4-.3.6c-.1.2-.1.4-.2.7v.8h0c0-.2.1-.4.3-.6.2-.2.4-.2.7-.3h.6c.2,0,.4.1.6.2s.3.2.5.4c.2.2.3.4.4.6s.1.4.1.6-.1.4-.1.5c-.1.1-.2.3-.4.4,0,.2-.2.2-.5.3Zm-.1-.4c.4-.1.6-.2.8-.4.1-.2.1-.5,0-.8l-.1-.1c-.1-.3-.4-.5-.6-.7-.3-.1-.6-.2-1-.2-.4.1-.6.2-.8.4-.1.2-.1.5,0,.8l.1.1c.1.3.3.6.6.7.3.2.6.3,1,.2Zm6-.5l-3.2.4-.2-.4,1.1-1.8c.1-.2.2-.5.3-.7.1-.2,0-.5-.1-.7l-.1-.1c-.1-.3-.3-.5-.5-.6s-.5-.2-.9-.2c-.3.1-.5.1-.7.3-.1.2-.2.4-.2.6l-.5-.1v-.4c0-.1.1-.3.2-.4s.2-.2.4-.3c.2-.1.3-.1.6-.2h.7c.2,0,.4.1.6.2s.3.2.4.4c.1.2.2.3.3.5.1.2.1.3.1.5v.5c0,.1-.1.3-.2.4s-.1.3-.3.4l-1,1.5,2.8-.4.4.6Zm3.6-.5c-.1,0-.3,0-.4-.1s-.2-.2-.2-.3l-1.1-2.6-.6.1-.1-.3.4-.1c.1,0,.1-.1.2-.1v-.2l-.3-.7.4-.1.4.9.8-.1.1.3-.8.1,1.1,2.7.8-.1.1.3-.8.3Zm3.1-.3h-.7c-.2-.1-.4-.1-.6-.3-.2-.1-.4-.3-.6-.5s-.3-.5-.4-.7c-.1-.3-.2-.5-.2-.7s0-.4.1-.6.2-.3.4-.4c.2-.1.4-.2.6-.2h.7c.2.1.4.1.6.3.2.1.4.3.6.5s.3.4.4.7c.1.3.2.5.2.8,0,.2,0,.4-.1.6s-.2.3-.4.4c-.1,0-.4.1-.6.1Zm-.2-.3c.4-.1.6-.2.7-.4.1-.2.1-.5-.1-.9l-.2-.4c-.2-.4-.4-.7-.7-.9-.3-.2-.6-.3-1-.2-.4.1-.6.2-.7.4-.1.2-.1.5.1.9l.2.4c.2.4.4.7.7.9.4.2.7.2,1,.2Zm2.6-3.6l.4-.1,2.3,2.8h0l-.1-3.1.4-.1v3.5l-.5.1-2.5-3.1Zm6.7,2.7h-.7c-.2-.1-.4-.1-.7-.3-.2-.1-.4-.3-.6-.5s-.3-.5-.4-.7c-.1-.3-.2-.5-.2-.7s0-.4.1-.6.2-.3.4-.4c.2-.1.4-.2.6-.2s.5,0,.7.1.4.1.6.3c.2.1.4.3.5.5.2.2.3.4.4.6l.1.2-2.7.4.1.2c.1.2.2.3.3.5.1.1.2.2.4.3.2.1.3.1.5.2.2,0,.4.1.5,0,.5-.1.8-.4.8-.8l.4.2c0,.2-.1.5-.3.7-.2-.1-.5,0-.8,0Zm-1.4-3.1c-.2,0-.3.1-.4.2s-.2.2-.3.3c-.1.1-.1.3-.1.4s0,.3.1.5h0l2.3-.3h0c-.1-.2-.2-.3-.3-.5-.1-.2-.2-.2-.4-.3-.1-.1-.3-.1-.4-.2-.1-.2-.3-.2-.5-.1Zm3.9,2.7l-1.4-3.3.4-.1.2.6h0c0-.2.1-.3.2-.5s.4-.2.7-.3h.2l.2.4h-.3c-.3,0-.5.1-.7.3-.2.2-.2.3-.1.6l.9,2.3h-.3Zm1.1-4.6h-.2q-.1-.1-.1-.2v-.3q.1-.1.2-.1h.2l.2.2v.3c-.2,0-.3.1-.3.1Zm.1.9l.4-.1,1.4,3.3-.4.1-1.4-3.3Zm2.1.1l-.6.1-.1-.3.6-.1-.4-.9c-.1-.2-.1-.3,0-.4s.2-.2.4-.2l.6-.1.1.3-.8.1.5,1.2.8-.1.1.3-.8.1,1.3,3-.4.1-1.3-3.1Zm4.2-.9l.4-.1v4.5c0,.1,0,.2-.1.3s-.2.1-.4.1l-.4.1-.1-.3.6-.1v-.9l-2.8-3.3.4-.1,2.3,2.8h0l.1-3Zm5.1-.7l.4-.1v4.5c0,.1,0,.2-.1.3-.1.1-.2.1-.4.1l-.4.1-.1-.3.6-.1v-.9l-2.8-3.3.4-.1,2.3,2.8h0l.1-3Zm4,3.1h-.7c-.2-.1-.4-.1-.6-.3-.2-.1-.4-.3-.6-.5s-.3-.5-.4-.7c-.1-.3-.2-.5-.2-.7s0-.4.1-.6.2-.3.4-.4c.2-.1.4-.2.6-.2h.7c.2.1.4.1.6.3.2.1.4.3.6.5s.3.4.4.7c.1.3.2.5.2.8,0,.2,0,.4-.1.6s-.2.3-.4.4c-.2,0-.4.1-.6.1Zm-.2-.3c.4-.1.6-.2.7-.4.1-.2.1-.5-.1-.9l-.2-.4c-.2-.4-.4-.7-.7-.9-.3-.2-.6-.3-1-.2-.4.1-.6.2-.7.4-.1.2-.1.5.1.9l.2.4c.2.4.4.7.7.9.3.2.6.2,1,.2Zm4.9-.9c-.1.1-.1.2-.1.2,0,.1-.1.2-.1.2-.1.1-.2.1-.3.2-.1.1-.2.1-.4.1-.4.1-.7,0-1.1-.2-.3-.2-.6-.5-.7-.9l-.9-2.1.4-.1.9,2.1c.1.3.3.6.6.8.2.1.5.2.8.1.1,0,.2,0,.4-.1.1-.1.2-.1.3-.2.1-.1.1-.2.1-.3s0-.2-.1-.4l-1-2.4.4-.1,1.4,3.3-.4.1-.2-.3Zm1.9.3l-1.4-3.3.4-.1.2.6h0c0-.2.1-.3.2-.5s.4-.2.7-.3h.2l.2.4h-.3c-.3,0-.5.1-.7.3-.2.2-.2.3-.1.6l.9,2.3h-.3Zm4.3-.6l-1.4-3.3.4-.1.2.5h0c0-.2.1-.4.2-.5s.3-.2.6-.3c.4-.1.7,0,1.1.2.3.2.5.5.7.9l.9,2.1-.4.1-.9-2.1c-.1-.3-.3-.6-.6-.7-.2-.1-.5-.2-.8-.1-.1,0-.2,0-.4.1-.1.1-.2.1-.3.2-.1.1-.1.2-.1.3s0,.2.1.3l1,2.4h-.3Zm6.2-1.3c-.1.1-.1.2-.1.2,0,.1-.1.2-.1.2-.1.1-.2.1-.3.2-.1.1-.2.1-.4.1-.4.1-.7,0-1.1-.2-.3-.2-.6-.5-.7-.9l-.9-2.1.4-.1.9,2.1c.1.3.4.6.6.8.2.1.5.2.8.1.1,0,.2,0,.4-.1.1-.1.2-.1.3-.2.1-.1.1-.2.1-.3s0-.2-.1-.4l-1-2.4.4-.1,1.4,3.3-.4.1-.2-.3Zm2,.3l-1.4-3.3.4-.1.2.5h0v-.2c0-.1.1-.2.1-.2l.2-.2c.1-.1.2-.1.4-.1s.5,0,.8.1c.2.1.5.2.7.5h0c0-.2.1-.4.2-.5.1-.2.3-.3.7-.3.4-.1.7,0,1,.2s.5.5.7.9l.9,2.1-.4.1-.9-2.1c-.3-.7-.7-1-1.3-.9-.1,0-.2,0-.4.1-.1.1-.2.1-.2.2-.1.1-.1.2-.1.3s0,.2.1.3l1,2.4-.4.1-.9-2.1c-.3-.7-.7-1-1.3-.9-.1,0-.2,0-.4.1-.1.1-.2.1-.3.2-.1.1-.1.2-.1.3s0,.2.1.3l1,2.4-.4-.2Zm4.3-5.7l.4-.1.8,2h0c0-.2.1-.4.2-.5s.3-.2.6-.3c.5-.1.9.1,1.3.3s.7.7.9,1.3c.2.6.3,1,.1,1.4-.2.3-.5.5-.9.6-.3,0-.5,0-.8-.1-.2-.1-.4-.2-.6-.4h0l.2.5-.4.1-1.8-4.8Zm3.3,4.4c.4-.1.6-.2.7-.4.1-.2.1-.5-.1-.9l-.2-.5c-.2-.4-.4-.6-.7-.8-.3-.2-.6-.3-1-.2-.1,0-.3.1-.4.1-.1.1-.2.1-.3.2-.1.1-.1.2-.1.3v.3l.5,1.3c.1.1.1.2.2.3.1.1.2.2.3.2.1.1.3.1.4.1h.7Zm4.2-.2h-.7c-.2-.1-.4-.1-.7-.3-.2-.1-.4-.3-.6-.5s-.3-.5-.4-.7c-.1-.3-.2-.5-.2-.7s0-.4.1-.6.2-.3.4-.4c.2-.1.4-.2.6-.2s.5,0,.7.1.4.1.6.3c.2.1.4.3.5.5.2.2.3.4.4.6l.1.2-2.7.4.1.2c.1.2.2.3.3.5.1.1.2.2.4.3.2.1.3.1.5.2.2,0,.3.1.5,0,.5-.1.8-.4.8-.8l.4.2c0,.2-.1.5-.3.7-.2-.2-.5-.1-.8,0Zm-1.3-3.2c-.2,0-.3.1-.4.2s-.2.2-.3.3c-.1.1-.1.3-.1.4s0,.3.1.5h0l2.3-.3h0c-.1-.2-.2-.3-.3-.5-.1-.2-.2-.2-.4-.3-.1-.1-.3-.1-.4-.2-.2-.1-.4-.1-.5-.1Zm3.9,2.8l-1.4-3.3.4-.1.2.6h0c0-.2.1-.3.2-.5s.3-.2.7-.3h.2l.2.4h-.3c-.3,0-.5.1-.7.3-.2.2-.2.3-.1.6l.9,2.3h-.3Zm2.3-.3h-.3l-.2-.2v-.1c0-.1-.1-.1,0-.2s.1-.1.2-.1h.3l.2.2v.1c0,.1.1.1,0,.2,0,.1-.1.1-.2.1Zm-93.3,25.8l-.6,3-2.9-2.6h0l1.7,4.1-.4.1-1.9-4.6.6-.1,2.7,2.4h0l.5-2.8.6-.1,1.9,4.6-.4.1-1.8-4.1Zm4.8,3.8h-.7c-.2-.1-.4-.1-.7-.3-.2-.1-.4-.3-.6-.5s-.3-.5-.4-.7c-.1-.3-.2-.5-.2-.7s0-.4.1-.6.2-.3.4-.4c.2-.1.4-.2.6-.2s.5,0,.7.1.4.1.6.3c.2.1.4.3.5.5.2.2.3.4.4.7l.1.2-2.7.4.1.2c.1.2.2.3.3.5.1.1.2.2.4.3.2.1.3.1.5.2.2,0,.4.1.5,0,.5-.1.8-.4.8-.8l.4.2c0,.2-.1.5-.3.7-.1-.3-.4-.2-.8-.1Zm-1.3-3.2c-.2,0-.3.1-.4.2s-.2.2-.3.3c-.1.1-.1.3-.1.4s0,.3.1.5h0l2.3-.3h0c-.1-.2-.2-.3-.3-.5-.1-.2-.2-.2-.4-.3-.1-.1-.3-.1-.4-.2-.1-.2-.3-.2-.5-.1Zm5,2.7c-.3,0-.6,0-.9-.1s-.5-.2-.8-.4l.2-.3c.2.2.5.3.7.3.2.1.5.1.7.1.3,0,.5-.1.6-.2s.1-.3,0-.5-.2-.3-.3-.4c-.2-.1-.4-.1-.6-.1h-.8c-.1,0-.3-.1-.4-.1-.1-.1-.2-.1-.3-.2-.1-.1-.2-.2-.2-.4-.1-.1-.1-.3-.1-.4s.1-.2.2-.3c.1-.1.2-.2.3-.2.1-.1.3-.1.5-.1h.8c.2.1.5.2.7.3l-.2.3c-.1-.1-.3-.2-.5-.2-.2-.1-.4-.1-.7-.1-.2,0-.4.1-.6.2-.1.1-.1.3,0,.5s.2.4.4.4c.2.1.4.1.7.1h.3c.4,0,.7.1,1,.2.2.1.4.3.5.6.1.3.1.6-.1.8-.4,0-.7.1-1.1.2Zm3.4-.5c-.3,0-.6,0-.9-.1s-.5-.2-.8-.4l.2-.3c.2.2.5.3.7.3.2.1.5.1.7.1.3,0,.5-.1.6-.2s.1-.3,0-.5-.2-.3-.3-.4c-.2-.1-.4-.1-.6-.1h-.8c-.2,0-.3-.1-.4-.1-.1-.1-.2-.1-.4-.2-.1-.1-.2-.2-.2-.4-.1-.1-.1-.3-.1-.4s.1-.2.2-.3c.1-.1.2-.2.3-.2.1-.1.3-.1.5-.1h.8c.2.1.5.2.7.3l-.2.3c-.1-.1-.3-.2-.5-.2-.2-.1-.4-.1-.7-.1-.2,0-.4.1-.6.2-.1.1-.1.3,0,.5s.2.4.4.4c.2.1.4.1.7.1h.3c.4,0,.7.1,1,.2.2.1.4.3.5.6.1.3.1.6-.1.8-.4.1-.6.2-1,.2Zm4.9-.7c-.1,0-.3,0-.4-.1s-.2-.2-.2-.3l-.1-.1h0c0,.2-.1.4-.2.5-.2.1-.4.2-.6.3-.4.1-.7,0-1-.1s-.5-.4-.6-.7c-.1-.3-.1-.5.1-.7s.5-.4,1-.4l.9-.1-.3-.4c-.2-.6-.7-.8-1.3-.7-.2,0-.4.1-.6.2-.1.1-.2.3-.2.5l-.3-.2c0-.2.1-.4.2-.5.2-.2.4-.3.8-.3.4-.1.8,0,1.1.1.3.2.5.4.7.8l.8,2,.5-.1.1.3s-.4,0-.4,0Zm-1.7,0c.1,0,.3-.1.4-.1.1-.1.2-.1.3-.2s.1-.2.1-.3v-.3l-.3-.6-.9.1c-.4.1-.6.1-.7.3-.1.1-.1.3-.1.5l.1.1c.1.2.2.4.4.4.2.1.4.1.7.1Zm6.1-.2c.1.3.1.6-.1.8-.2.2-.6.3-1.2.4s-1,.1-1.3-.1c-.3-.1-.5-.3-.6-.6-.1-.2-.1-.4,0-.5s.2-.2.4-.3h0c-.3,0-.4-.2-.5-.4-.1-.2-.1-.3,0-.4s.2-.2.3-.3h0c-.2-.1-.5-.2-.7-.3-.2-.2-.3-.4-.5-.6-.1-.2-.1-.3-.1-.5,0-.1,0-.3.1-.4s.2-.2.3-.3c.2-.1.3-.1.5-.1.3,0,.6,0,.8.1l-.1-.2c-.1-.1-.1-.2,0-.2,0-.1.1-.1.2-.1l.6-.1.1.3-.8.1.1.3c.2.1.3.2.5.4.1.1.2.3.3.5.1.2.1.3.1.5,0,.1,0,.3-.1.4s-.2.2-.3.3c-.2.1-.3.1-.5.1h-.4c-.1.1-.3.1-.3.2-.1.1-.1.2,0,.3.1.2.3.3.7.2l.9-.1c.4-.1.8,0,1,.1.3.1.5.3.6.5Zm-.3.1c-.1-.1-.2-.3-.3-.4-.2-.1-.4-.1-.7-.1l-1.2.2c-.1.1-.2.1-.3.3-.1.1,0,.2,0,.4.1.2.2.3.4.4.2.1.5.1.8.1l.5-.1c.4-.1.6-.1.8-.3,0-.1,0-.3,0-.5Zm-2.2-1.7c.3,0,.5-.1.6-.3.1-.2.1-.3,0-.6l-.1-.2c-.1-.2-.3-.4-.5-.5s-.5-.1-.8-.1-.5.1-.6.3c-.1.2-.1.3,0,.6l.1.2c.1.2.3.4.5.5.2.2.5.2.8.1Zm4.5,1h-.7c-.2-.1-.4-.1-.7-.3-.2-.1-.4-.3-.6-.5s-.3-.5-.4-.7c-.1-.3-.2-.5-.2-.7s0-.4.1-.6.2-.3.4-.4c.2-.1.4-.2.6-.2s.5,0,.7.1.4.1.6.3c.2.1.4.3.5.5.2.2.3.4.4.6l.1.2-2.7.4.1.2c.1.2.2.3.3.5.1.1.2.2.4.3.2.1.3.1.5.2.2,0,.4.1.5,0,.5-.1.8-.4.8-.8l.4.2c0,.2-.1.5-.3.7-.2-.1-.5,0-.8,0Zm-1.3-3.1c-.2,0-.3.1-.4.2s-.2.2-.3.3c-.1.1-.1.3-.1.4s0,.3.1.5h0l2.3-.3h0c-.1-.2-.2-.3-.3-.5-.1-.2-.2-.2-.4-.3-.1-.1-.3-.1-.4-.2-.2-.1-.4-.2-.5-.1Zm8.1,2.2c-.1,0-.3,0-.4-.1s-.2-.2-.2-.3l-.1-.1h0c0,.2-.1.4-.2.5-.2.1-.3.2-.6.3-.4.1-.7,0-1-.1s-.5-.4-.6-.7c-.1-.3-.1-.5.1-.7s.5-.4,1-.4l.9-.1-.2-.4c-.2-.6-.7-.8-1.3-.7-.2,0-.4.1-.6.2-.1.1-.2.3-.2.5l-.3-.2c0-.2.1-.4.2-.5.2-.2.4-.3.8-.3.4-.1.8,0,1.1.1.3.2.5.4.7.8l.8,2,.5-.1.1.3h-.5Zm-1.7-.1c.1,0,.3-.1.4-.1.1-.1.2-.1.3-.2.1-.1.1-.2.1-.3v-.3l-.3-.6-.9.1c-.4.1-.6.1-.7.3-.1.1-.1.3-.1.5l.1.1c.1.2.2.4.4.4.2.2.5.2.7.1Zm3-.1l-1.4-3.3.4-.1.2.5h0c0-.2.1-.4.2-.5s.3-.2.6-.3c.4-.1.7,0,1.1.2.3.2.5.5.7.9l.9,2.1-.4.1-.9-2.1c-.1-.3-.3-.6-.6-.7-.2-.1-.5-.2-.8-.1-.1,0-.2,0-.4.1-.1.1-.2.1-.3.2-.1.1-.1.2-.1.3s0,.2.1.3l1,2.4h-.3Zm6.2-1.4c0,.2-.1.4-.3.5-.1.1-.4.2-.6.3-.5.1-.9-.1-1.3-.3-.4-.3-.7-.7-.9-1.3-.2-.6-.3-1-.1-1.4.2-.3.5-.5.9-.6.3,0,.5,0,.8.1.2.1.4.2.6.4h0l-.8-2,.4-.1,2,4.8-.4.1-.3-.5Zm-1,.5c.1,0,.3-.1.4-.1.1-.1.2-.1.3-.2.1-.1.1-.2.1-.3s0-.2-.1-.3l-.5-1.3c-.1-.1-.1-.2-.2-.3-.1-.1-.2-.2-.3-.2-.1-.1-.3-.1-.4-.1h-.4c-.4.1-.6.2-.7.4-.1.2-.1.5.1.9l.2.5c.2.4.4.7.7.8.1.1.5.2.8.2Zm6.8-1.2c0,.2-.1.4-.3.5-.1.1-.4.2-.6.3-.5.1-.9-.1-1.3-.3-.4-.3-.7-.7-.9-1.3-.2-.6-.3-1-.1-1.4.2-.3.5-.5.9-.6.3,0,.5,0,.8.1.2.1.4.2.6.4h0l-.8-2,.4-.1,2,4.8-.4.1-.3-.5Zm-.9.4c.1,0,.3-.1.4-.1.1-.1.2-.1.3-.2.1-.1.1-.2.1-.3s0-.2-.1-.3l-.5-1.3c-.1-.1-.1-.2-.2-.3-.1-.1-.2-.2-.3-.2-.1-.1-.3-.1-.4-.1h-.4c-.4.1-.6.2-.7.4-.1.2-.1.5.1.9l.2.5c.2.4.4.6.7.8.1.2.4.2.8.2Zm5.5-.5c-.1,0-.3,0-.4-.1s-.2-.2-.2-.3l-.1-.1h0c0,.2-.1.4-.2.5-.2.1-.4.2-.6.3-.4.1-.7,0-1-.1s-.5-.4-.6-.7c-.1-.3-.1-.5.1-.7s.5-.4,1.1-.4l.9-.1-.2-.4c-.2-.6-.7-.8-1.3-.7-.2,0-.4.1-.6.2-.1.1-.2.3-.2.5l-.3-.2c0-.2.1-.4.2-.5.2-.2.4-.3.8-.3.4-.1.8,0,1.1.1.3.2.5.4.7.8l.8,2,.5-.1.1.3h-.6Zm-1.7,0c.1,0,.3-.1.4-.1.1-.1.2-.1.3-.2.1-.1.1-.2.1-.3v-.3l-.3-.6-.9.1c-.4.1-.6.1-.7.3-.1.1-.1.3-.1.5l.1.1c.1.2.2.4.4.4.2.1.4.1.7.1Zm3.6-.2c-.1,0-.3,0-.4-.1s-.2-.2-.2-.3l-1.1-2.6-.6.1-.1-.3.4-.1c.1,0,.1-.1.2-.1v-.2l-.3-.7.4-.1.4.9.8-.1.1.3-.8.1,1.1,2.7.8-.1.1.3-.8.3Zm4.3-.6c-.1,0-.3,0-.4-.1s-.2-.2-.2-.3l-.1-.1h0c0,.2-.1.4-.2.5-.2.1-.4.2-.6.3-.4.1-.7,0-1-.1s-.5-.4-.6-.7c-.1-.3-.1-.5.1-.7s.5-.4,1.1-.4l.9-.1-.2-.4c-.2-.6-.7-.8-1.3-.7-.2,0-.4.1-.6.2-.1.1-.2.3-.2.5l-.3-.2c0-.2.1-.4.2-.5.2-.2.4-.3.8-.3.4-.1.8,0,1.1.1.3.2.5.4.7.8l.8,2,.5-.1.1.3h-.6Zm-1.7,0c.1,0,.3-.1.4-.1.1-.1.2-.1.3-.2.1-.1.1-.2.1-.3v-.3l-.3-.6-.9.1c-.4.1-.6.1-.7.3-.1.1-.1.3-.1.5l.1.1c.1.2.2.4.4.4.2.1.5.1.7.1Zm4.7-.4l-1.4-3.3.4-.1.2.6h0c0-.2.1-.3.2-.5s.3-.2.7-.3h.2l.2.4h-.3c-.3,0-.5.1-.7.3-.2.2-.2.3-.1.6l.9,2.3h-.3Zm5-.6c-.1,0-.3,0-.4-.1s-.2-.2-.2-.3l-.1-.1h0c0,.2-.1.4-.2.5-.2.1-.4.2-.6.3-.4.1-.7,0-1-.1s-.5-.4-.6-.7c-.1-.3-.1-.5.1-.7s.5-.4,1-.4l.9-.1-.2-.4c-.2-.6-.7-.8-1.3-.7-.2,0-.4.1-.6.2-.1.1-.2.3-.2.5l-.3-.2c0-.2.1-.4.2-.5.2-.2.4-.3.8-.3.4-.1.8,0,1.1.1.3.1.5.4.7.8l.8,2,.5-.1.1.3h-.5Zm-1.6-.1c.1,0,.3-.1.4-.1.1-.1.2-.1.3-.2.1-.1.1-.2.1-.3v-.3l-.3-.6-.9.1c-.4.1-.6.1-.7.3-.1.1-.1.3-.1.5l.1.1c.1.2.2.4.4.4.2.1.4.2.7.1Zm3.6-.2c-.1,0-.3,0-.4-.1s-.2-.2-.2-.3l-1.1-2.5-.6.1-.1-.3.4-.1c.1,0,.1-.1.2-.1v-.2l-.3-.7.4-.1.4.9.8-.1.1.3-.8.1,1.1,2.7.8-.1.1.3-.8.2Zm3.1-.3h-.7c-.2-.1-.4-.1-.7-.3-.2-.1-.4-.3-.6-.5s-.3-.5-.4-.7c-.1-.3-.2-.5-.2-.7s0-.4.1-.6.2-.3.4-.4c.2-.1.4-.2.6-.2s.5,0,.7.1.4.1.6.3c.2.1.4.3.5.5.2.2.3.4.4.7l.1.2-2.7.4.1.2c.1.2.2.3.3.5.1.1.2.2.4.3.2.1.3.1.5.2.2,0,.3.1.5,0,.5-.1.8-.4.8-.8l.4.2c0,.2-.1.5-.3.7-.2-.3-.5-.2-.8-.1Zm-1.3-3.2c-.2,0-.3.1-.4.2s-.2.2-.3.3c-.1.1-.1.3-.1.4s0,.3.1.5h0l2.3-.3h0c-.1-.2-.2-.3-.3-.5-.1-.2-.2-.2-.4-.3-.1-.1-.3-.1-.4-.2-.2-.1-.4-.1-.5-.1Zm4.9,2.7c-.3,0-.6,0-.9-.1s-.5-.2-.8-.4l.2-.3c.2.2.5.3.7.3.2.1.5.1.7.1.3,0,.5-.1.6-.2s.1-.3,0-.5-.2-.3-.3-.4c-.2-.1-.4-.1-.6-.1h-.8c-.2,0-.3-.1-.4-.1-.1-.1-.2-.1-.3-.2-.1-.1-.2-.2-.2-.4-.1-.2-.1-.3-.1-.4s.1-.2.2-.3c.1-.1.2-.2.3-.2.1-.1.3-.1.5-.1h.8c.2.1.5.2.7.3l-.2.3c-.1-.1-.3-.2-.5-.2-.2-.1-.4-.1-.7-.1-.2,0-.4.1-.6.2-.1.1-.1.3,0,.5s.2.4.4.4c.2.1.4.1.7.1h.3c.4,0,.7.1,1,.2.2.1.4.3.5.6.1.3.1.6-.1.8-.4,0-.7.2-1.1.2Zm4.1-.6l-1.4-3.3.4-.1.2.5h0v-.2c0-.1.1-.2.1-.2l.2-.2c.1-.1.2-.1.4-.1s.5,0,.8.1c.2.1.5.2.7.5h0c0-.2.1-.4.2-.5.1-.2.4-.3.7-.3.4-.1.7,0,1,.2s.5.5.7.9l.9,2.1-.4.1-.9-2.1c-.3-.7-.7-1-1.3-.9-.1,0-.2,0-.4.1-.1.1-.2.1-.2.2-.1.1-.1.2-.1.3s0,.2.1.3l1,2.4-.4.1-.9-2.1c-.3-.7-.7-1-1.3-.9-.1,0-.2,0-.4.1-.1.1-.2.1-.3.2-.1.1-.1.2-.1.3s0,.2.1.3l1,2.4-.4-.2Zm8.8-1.2c-.1,0-.3,0-.4-.1s-.2-.2-.2-.3l-.1-.1h0c0,.2-.1.4-.2.5-.2.1-.3.2-.6.3-.4.1-.7,0-1-.1s-.5-.4-.6-.7c-.1-.3-.1-.5.1-.7s.5-.4,1-.4l.9-.1-.2-.4c-.2-.6-.7-.8-1.3-.7-.2,0-.4.1-.6.2-.1.1-.2.3-.2.5l-.3-.2c0-.2.1-.4.2-.5.2-.2.4-.3.8-.3.4-.1.8,0,1.1.1.3.2.5.4.7.8l.8,2,.5-.1.1.3h-.5Zm-1.6,0c.1,0,.3-.1.4-.1.1-.1.2-.1.3-.2.1-.1.1-.2.1-.3v-.3l-.3-.6-.9.1c-.4.1-.6.1-.7.3-.1.1-.1.3-.1.5l.1.1c.1.2.2.4.4.4.2.1.4.1.7.1Zm3.7-3.8l.4-.1v4.5c0,.1,0,.2-.1.3-.1.1-.2.1-.4.1l-.4.1-.1-.3.6-.1v-.9l-2.8-3.3.4-.1,2.3,2.8h0l.1-3Zm6.9,2.7c-.1,0-.3,0-.4-.1s-.2-.2-.2-.3l-.1-.1h0c0,.2-.1.4-.2.5-.2.1-.4.2-.6.3-.4.1-.7,0-1-.1s-.5-.4-.6-.7c-.1-.3-.1-.5.1-.7s.5-.4,1.1-.4l.9-.1-.2-.4c-.2-.6-.7-.8-1.3-.7-.2,0-.4.1-.6.2-.1.1-.2.3-.2.5l-.3-.2c0-.2.1-.4.2-.5.2-.2.4-.3.8-.3.4-.1.8,0,1.1.1.3.2.5.4.7.8l.8,2,.5-.1.1.3h-.6Zm-1.7-.1c.1,0,.3-.1.4-.1.1-.1.2-.1.3-.2.1-.1.1-.2.1-.3v-.3l-.3-.6-.9.1c-.4.1-.6.1-.7.3-.1.1-.1.3-.1.5l.1.1c.1.2.2.4.4.4.2.1.4.2.7.1Zm1.5-3.4l.4-.1.2.5h0c0-.2.1-.4.2-.5s.3-.2.6-.3c.5-.1.9.1,1.3.3s.7.7.9,1.3c.2.6.3,1,.1,1.4-.2.3-.5.5-.9.6-.3,0-.5,0-.8-.1-.2-.1-.4-.2-.6-.4h0l.8,1.8-.4.1-1.8-4.6Zm2.8,2.8c.4-.1.6-.2.7-.4.1-.2.1-.5-.1-.9l-.2-.5c-.2-.4-.4-.6-.7-.8-.3-.2-.6-.3-1-.2-.1,0-.3.1-.4.1-.1.1-.2.1-.3.2-.1.1-.1.2-.1.3v.3l.5,1.3c.1.1.1.2.2.3.1.1.2.2.3.2.1.1.3.1.4.1.4.1.6.1.7,0Zm1.4-3.4l.4-.1.2.5h0c0-.2.1-.4.2-.5s.4-.2.6-.3c.5-.1.9.1,1.3.3s.7.7.9,1.3c.2.6.3,1,.1,1.4-.2.3-.5.5-.9.6-.3,0-.5,0-.8-.1-.2-.1-.4-.2-.6-.4h0l.8,1.8-.4.1-1.8-4.6Zm2.7,2.9c.4-.1.6-.2.7-.4.1-.2.1-.5-.1-.9l-.2-.5c-.2-.4-.4-.6-.7-.8-.3-.2-.6-.3-1-.2-.1,0-.3.1-.4.1-.1.1-.2.1-.3.2-.1.1-.1.2-.1.3v.3l.5,1.3c.1.1.1.2.2.3.1.1.2.2.3.2.1.1.3.1.4.1h.7Zm3.3-.1c-.1,0-.3,0-.4-.1s-.2-.2-.2-.3l-1.8-4.4.4-.1,1.9,4.5.6-.1.1.3-.6.2Zm2.2-3.9l.4-.1v4.5c0,.1,0,.2-.1.3-.1.1-.2.1-.4.1l-.4.1-.1-.3.6-.1v-.9l-2.8-3.3.4-.1,2.3,2.8h0l.1-3Zm2.5,3.3h-.3l-.2-.2v-.1c0-.1-.1-.1,0-.2s.1-.1.2-.1h.3l.2.2v.1c0,.1.1.1,0,.2,0,0-.1.1-.2.1Z"/><path class="cls-3" d="m340.9,170.6l7.2-.9c4.7-.6,9.9,2.4,11.6,6.6,1.7,4.2-.6,8.2-5.3,8.8l-7.2.9c-4.7.6-9.9-2.4-11.6-6.6-1.8-4.3.6-8.2,5.3-8.8Z"/><path class="cls-7" d="m347.1,179.4c-.1.4-.3.6-.7.6h-.6c-.2-.1-.3-.1-.5-.2-.2-.1-.3-.2-.4-.4s-.2-.4-.3-.6c-.1-.2-.2-.4-.2-.6s0-.4.1-.5.1-.3.3-.3c.1-.1.3-.1.4-.2h.6c.2.1.4.2.5.4h0l-.7-1.6.5-.1,1.6,3.9-.5.1-.1-.5Zm-.8.3c.1,0,.2-.1.3-.1s.2-.1.2-.2q.1-.1.1-.2v-.2l-.4-1c0-.1-.1-.2-.2-.2q-.1-.1-.2-.1c-.1-.1-.2-.1-.3-.1h-.3c-.2,0-.4.1-.5.3s-.1.4,0,.6l.2.5c.1.2.3.4.5.6.2.1.4.1.6.1Zm4.1-.7c-.1.4-.3.6-.7.6h-.6c-.2-.1-.3-.1-.5-.2-.2-.1-.3-.2-.4-.4s-.2-.4-.3-.6c-.1-.2-.2-.4-.2-.6s0-.4.1-.5.1-.3.3-.3c.1-.1.3-.1.4-.2h.6c.2.1.4.2.5.4h0l-.7-1.6.5-.1,1.6,3.9-.5.1-.1-.5Zm-.7.2c.1,0,.2-.1.3-.1s.2-.1.2-.2q.1-.1.1-.2v-.2l-.4-1c0-.1-.1-.2-.2-.2q-.1-.1-.2-.1c-.1-.1-.2-.1-.3-.1h-.3c-.2,0-.4.1-.5.3s-.1.4,0,.6l.2.5c.1.2.3.4.5.6.1.1.3.2.6.1Z"/><path class="cls-3" d="m301.6,175.7l15.9-2.1c4.7-.6,9.9,2.4,11.6,6.6,1.7,4.2-.6,8.2-5.3,8.8l-15.9,2.1c-4.7.6-9.9-2.4-11.6-6.6-1.8-4.3.6-8.2,5.3-8.8Z"/><path class="cls-7" d="m314.7,184.1l-1.1-2.7.5-.1.2.5h0v-.2c0-.1.1-.1.1-.2q.1-.1.2-.1c.1,0,.1-.1.3-.1h.6c.2.1.4.2.6.4,0-.1,0-.3.1-.4.1-.1.3-.2.5-.2.3,0,.6,0,.8.2.3.1.4.4.6.7l.7,1.7-.5.1-.7-1.6c-.1-.2-.2-.4-.4-.5-.2-.1-.3-.2-.6-.1-.1,0-.2.1-.3.1s-.1.1-.2.1-.1.1-.1.2v.2l.8,1.9-.5.1-.7-1.7c-.1-.2-.2-.4-.4-.5-.2-.1-.3-.2-.5-.1-.1,0-.2.1-.3.1s-.2.1-.2.1q-.1.1-.1.2v.2l.8,1.9-.2-.2Zm5-.6l-1.1-2.7.5-.1.2.5h0v-.2c0-.1.1-.1.1-.2q.1-.1.2-.1c.1,0,.1-.1.3-.1h.6c.2.1.4.2.6.4,0-.1,0-.3.1-.4.1-.1.3-.2.5-.2.3,0,.6,0,.8.2.3.1.4.4.6.7l.7,1.7-.5.1-.7-1.7c-.1-.2-.2-.4-.4-.5-.2-.1-.3-.2-.6-.1-.1,0-.2.1-.3.1s-.1.1-.2.1q-.1.1-.1.2v.2l.8,1.9-.5.1-.7-1.7c-.1-.2-.2-.4-.4-.5-.2-.1-.3-.2-.5-.1-.1,0-.2.1-.3.1s-.2.1-.2.1q-.1.1-.1.2v.2l.8,1.9-.2-.1Z"/><path class="cls-8" d="m302.2,181.1l-.4-.4-.1.5v.1c.1.2.2.3.4.3.1,0,.2-.2.2-.3,0-.1,0-.2-.1-.2Zm-.2.8l.6-.1.4.9-.6.1-.4-.9Zm.5,2.1c.2,0,.4-.1.5-.3.2.1.4.2.7.2.2,0,.4-.1.5-.3.2.1.4.2.7.2.2,0,.4-.1.5-.3.2.1.4.2.7.2.2,0,.4-.1.5-.3.2.1.4.2.7.2.2,0,.4-.1.5-.3l-.3-.6c-.1-.2-.3-.3-.5-.3l-5.1.7c-.2,0-.3.2-.2.4l.3.6c0-.2.3-.1.5-.1Zm.2.3c.2,0,.4-.2.5-.3.2.1.5.2.7.2.2-.1.4-.2.5-.3.2.1.5.2.7.2.2-.1.4-.2.5-.3.2.1.5.2.7.2.2-.1.4-.2.5-.3.2.1.5.2.7.2s.4-.2.5-.3l1.1,2.6-5.8.8-1.3-3c.2.2.4.3.7.3Zm1-2.7l-.6.1.4.9.6-.1-.4-.9Zm.6,0l.6-.1.4.9-.6.1-.4-.9Zm2.1.6l-.4-.9-.6.1.4.9.6-.1Zm-3.5-1.7l.4.4s.1.1.1.2c.1.2,0,.3-.2.3-.1,0-.3-.1-.4-.3v-.1l.1-.5Zm1.6.3l-.4-.4-.1.5v.1c.1.2.2.3.4.3.1,0,.2-.2.2-.3,0-.2-.1-.2-.1-.2Zm.7-.6l.4.4s.1.1.1.2c.1.2,0,.3-.2.3-.1,0-.3-.1-.4-.3v-.1l.1-.5Z"/><path class="cls-4" d="m296.8,170.5l1-.1h.6c.2,0,.3.1.5.2.2.1.3.2.4.4s.2.4.4.6c.1.2.2.4.2.6s0,.3-.1.5c-.1.1-.2.2-.3.3-.1.1-.3.1-.5.1l-1,.1-1.2-2.7Zm2,2.3c.1,0,.2,0,.3-.1.1-.1.2-.1.2-.2.1-.1.1-.2.1-.3s0-.2-.1-.4l-.2-.5c-.1-.1-.1-.3-.2-.4-.1-.1-.2-.2-.3-.2-.1-.1-.2-.1-.3-.1h-.4l-.6.1.9,2.2.6-.1Zm3.6-.2h-.3c-.1-.1-.2-.1-.2-.2h0c0,.1,0,.2-.1.3s-.2.1-.4.2c-.2,0-.5,0-.6-.1-.2-.1-.3-.2-.4-.4s-.1-.4.1-.5c.1-.1.3-.2.7-.2l.4-.1-.1-.2c-.1-.1-.1-.2-.3-.3-.1-.1-.3-.1-.5-.1-.1,0-.3.1-.3.1-.1.1-.1.2-.1.3l-.3-.1c0-.1.1-.2.2-.3s.3-.1.5-.2c.3,0,.5,0,.7.1s.4.3.4.5l.5,1.1h.2l.1.3-.2-.2Zm-1.1-.1q.1,0,.2-.1c.1,0,.1-.1.2-.1s.1-.1.1-.1v-.1l-.1-.3-.5.1c-.2,0-.3.1-.4.1q-.1.1,0,.2v.1c.1.1.1.2.2.2.1,0,.2.1.3,0Zm2.3,0h-.3c-.1-.1-.2-.1-.2-.2l-.6-1.4-.4.1-.1-.3h.2q.1,0,.1-.1v-.1l-.2-.4h.3l.2.6.5-.1.1.3-.5.1.6,1.5.5-.1.1.3-.3-.2Zm1.9-.2h-.5c-.1,0-.3-.1-.4-.2-.1-.1-.2-.2-.4-.3-.1-.1-.2-.3-.3-.4-.1-.1-.1-.3-.1-.4s0-.2.1-.4c.1-.1.1-.2.2-.3s.2-.1.4-.1h.4c.1,0,.3.1.4.2.1.1.2.2.3.3.1.1.2.2.2.4l.1.1-1.6.2v.1c0,.1.1.2.1.2q.1.1.2.2c.1.1.2.1.3.1h.3c.1,0,.3-.1.3-.1.1-.1.1-.2.1-.3l.3.1c0,.1-.1.3-.2.4.1.1,0,.2-.2.2Zm-.8-1.9c-.1,0-.2.1-.3.1s-.1.1-.2.2q-.1.1-.1.2v.2h0l1.2-.2h0c-.1-.2-.2-.3-.3-.4,0,0-.1-.1-.3-.1Zm4.2,1.4h-.5c-.1,0-.3-.1-.4-.2-.1-.1-.2-.2-.4-.3-.1-.1-.2-.3-.3-.4-.1-.1-.1-.3-.1-.4s0-.2.1-.4c.1-.1.1-.2.2-.2.1-.1.2-.1.4-.1h.4c.1,0,.3.1.4.2.1.1.3.2.3.3.1.1.2.3.3.4.1.1.1.3.1.4s0,.2-.1.4c-.1.1-.1.2-.2.2,0,.1-.1.1-.2.1Zm-.1-.2c.2,0,.3-.1.4-.2.1-.1.1-.3,0-.5l-.1-.3c-.1-.2-.2-.4-.4-.4-.2-.1-.3-.1-.5-.1s-.3.1-.4.2c-.1.1-.1.3,0,.5l.1.3c.1.2.2.4.4.4.1.1.3.1.5.1Zm1-1.8l-.4.1-.1-.3.4-.1-.2-.4c-.1-.1-.1-.3,0-.4.1-.1.2-.2.3-.2l.3-.1.1.3-.5.1.2.6.5-.1.1.3-.5.1.7,1.8-.4.1-.5-1.8Zm1.9-1.3l1.3-.2c.2,0,.5,0,.6.1.2.1.4.3.4.5.1.1.1.2.1.3s0,.1-.1.2l-.1.1-.1.1h.2c.1,0,.2.1.2.1.1.1.2.1.2.2.1.1.1.2.2.3s.1.2.1.3,0,.2-.1.3-.1.2-.2.2c-.1.1-.2.1-.3.1l-1.4.2-1-2.8Zm1.4,2.4l.9-.1c.1,0,.3-.1.3-.2.1-.1.1-.2,0-.3l-.1-.1c-.1-.1-.1-.2-.3-.3-.1-.1-.3-.1-.4-.1l-.9.1.5,1Zm-.5-1.2l.8-.1c.1,0,.3-.1.3-.1.1-.1.1-.2,0-.3l-.1-.1c-.1-.1-.1-.2-.2-.3s-.2-.1-.4-.1l-.8.1.4.9Zm2.2-1.3h-.2l-.1-.1h0v-.1s.1-.1.2-.1h.2c.1,0,.1.1.1.1h0v.1q-.1.1-.2.1Zm0,.5l.4-.1.8,2-.4.1-.8-2Zm1.9,1.9l-.8-2,.4-.1.2.4h0c0-.1,0-.2.1-.3s.2-.2.4-.2h.1l.1.3h-.2c-.2,0-.3.1-.4.2-.1.1-.1.2-.1.3l.6,1.4h-.4Zm2.1-.3h-.3c-.1-.1-.2-.1-.2-.2l-.6-1.4-.4.1-.1-.3h.2q.1,0,.1-.1v-.1l-.2-.4h.3l.2.6.5-.1.1.3-.5.1.6,1.5.5-.1.1.3-.3-.2Zm-.1-3l.4-.1.5,1.2c0-.1,0-.2.1-.3s.2-.1.4-.2c.2,0,.5,0,.6.1.2.1.4.3.4.5l.5,1.3-.4.1-.5-1.2c-.2-.4-.4-.5-.8-.5q-.1,0-.2.1c-.1,0-.1.1-.2.1l-.1.1v.2l.6,1.4-.4.1-.9-2.9Z"/><path class="cls-3" d="m371.6,166.5l13.7-1.8c4.7-.6,9.9,2.4,11.6,6.6,1.7,4.2-.6,8.2-5.3,8.8l-13.7,1.8c-4.7.6-9.9-2.4-11.6-6.6-1.8-4.2.6-8.2,5.3-8.8Z"/><path class="cls-7" d="m376.8,173.2l.5-.1v3.7c0,.1-.1.1-.1.1,0,0-.1.1-.2.1s-.1.1-.3.1h-.2l-.2-.4.5-.1v-.6l-2.3-2.7.5-.1,1.5,1.8.3.4h0v-2.2Zm2.8-.4l.5-.1v3.7c0,.1-.1.1-.1.1,0,0-.1.1-.2.1s-.1.1-.3.1h-.2l-.2-.4.5-.1v-.6l-2.3-2.7.5-.1,1.5,1.8.3.4h0v-2.2Zm2.9-.4l.5-.1v3.7c0,.1-.1.1-.1.1,0,0-.1.1-.2.1s-.1.1-.3.1h-.2l-.2-.4.5-.1v-.6l-2.3-2.7.5-.1,1.5,1.8.3.4h0v-2.2Zm2.9-.4l.5-.1v3.7c0,.1-.1.1-.1.1,0,0-.1.1-.2.1s-.1.1-.3.1h-.2l-.2-.4.5-.1v-.6l-2.3-2.7.5-.1,1.5,1.8.3.4h0v-2.2Z"/><path class="cls-1" d="m287.8,142.3l105-13.7c4.7-.6,9.9,2.4,11.6,6.6,1.7,4.2-.6,8.2-5.3,8.8l-105,13.7c-4.7.6-9.9-2.4-11.6-6.6s.6-8.2,5.3-8.8Z"/><path class="cls-5" d="m285.6,137.3l-.1.5-.2,1.3-1.2-1.1-.4-.4h0l1,2.3-.4.1-1.1-2.7.5-.1,1.5,1.4h0l.2-1.6.5-.1,1.1,2.7-.4.1-1-2.4Zm2.9,2h-.5c-.1,0-.3-.1-.4-.2-.1-.1-.2-.2-.4-.3-.1-.1-.2-.3-.3-.4-.1-.1-.1-.3-.1-.4s0-.2.1-.4c.1-.1.1-.2.2-.2.1-.1.2-.1.4-.1h.4c.1,0,.3.1.4.2.1.1.3.2.4.3s.2.3.3.4c.1.1.1.3.1.4s0,.2-.1.4c-.1.1-.1.2-.2.2,0,.1-.1.1-.3.1Zm-.1-.2c.2,0,.3-.1.4-.2.1-.1.1-.3,0-.5l-.1-.3c-.1-.2-.2-.4-.4-.4-.2-.1-.3-.1-.5-.1s-.3.1-.4.2c-.1.1-.1.3,0,.5l.1.3c.1.2.2.4.4.4.2.1.3.1.5.1Zm.5-2.9l.4-.1.5,1.2c0-.1.1-.2.1-.3.1-.1.2-.1.4-.2h.4c.1,0,.3.1.4.2.1.1.2.2.3.3.1.1.2.3.3.4.1.1.1.3.1.4s0,.2-.1.4c-.1.1-.1.2-.2.3s-.2.1-.3.1c-.3,0-.6,0-.8-.3l.1.3-.4.1-1.2-2.8Zm2,2.6c.2,0,.3-.1.4-.2.1-.1.1-.3,0-.5l-.1-.3c-.1-.2-.2-.3-.3-.4-.2-.1-.3-.2-.5-.1q-.1,0-.2.1c-.1,0-.1.1-.2.1l-.1.1v.1l.3.8c0,.1.1.1.1.2q.1.1.2.1t.2.1c.1-.1.2-.2.2-.1Zm.8-2.6h-.2l-.1-.1h0v-.1s.1-.1.2-.1h.2c.1,0,.1.1.1.1h0v.1c0,.1-.1.2-.2.1Zm.1.5l.4-.1.8,2-.4.1-.8-2Zm2.3,1.9h-.3c-.1,0-.2-.1-.2-.2l-1.1-2.6.4-.1,1.1,2.6h.3l.1.3h-.3Zm1.6-.2h-.5c-.1,0-.3-.1-.4-.2-.1-.1-.2-.2-.4-.3-.1-.1-.2-.3-.3-.4-.1-.1-.1-.3-.1-.4s0-.2.1-.4c.1-.1.1-.2.2-.3s.2-.1.4-.1h.4c.1,0,.3.1.4.2.1.1.2.2.3.3.1.1.2.2.2.4l.1.1-1.6.2v.1c0,.1.1.2.1.2q.1.1.2.2c.1.1.2.1.3.1h.3c.1,0,.3-.1.3-.1.1-.1.1-.2.1-.3l.3.1c0,.1-.1.3-.2.4.2.1,0,.2-.2.2Zm-.7-1.8c-.1,0-.2.1-.3.1s-.1.1-.2.2q-.1.1-.1.2v.2h0l1.2-.2h0c-.1-.2-.2-.3-.3-.4,0-.1-.1-.1-.3-.1Zm3.3,1.4l-1.1-2.7,1.2-.2c.3,0,.5,0,.7.1s.4.3.5.6c.1.2.1.4,0,.6-.1.2-.3.2-.5.3l-.8.1.5,1.2h-.5Zm-.2-1.5l.8-.1c.1,0,.3-.1.3-.1.1-.1.1-.2,0-.3l-.1-.2c-.1-.1-.1-.2-.2-.3s-.2-.1-.4-.1l-.8.1.4,1Zm1.6-1.7l.4-.1.5,1.2c0-.1,0-.2.1-.3s.2-.1.4-.2c.2,0,.5,0,.6.1.2.1.4.3.4.5l.5,1.3-.4.1-.5-1.2c-.2-.4-.4-.5-.8-.5q-.1,0-.2.1c-.1,0-.1.1-.2.1l-.1.1v.2l.6,1.4-.4.1-.9-2.9Zm4.5,2.5h-.5c-.1,0-.3-.1-.4-.2s-.2-.2-.4-.3c-.1-.1-.2-.3-.3-.4-.1-.1-.1-.3-.1-.4s0-.2.1-.4c.1-.1.1-.2.2-.2.1-.1.2-.1.4-.1h.4c.1,0,.3.1.4.2.1.1.3.2.4.3s.2.3.3.4c.1.1.1.3.1.4s0,.2-.1.4c-.1.1-.1.2-.2.2,0,0-.1.1-.3.1Zm-.1-.3c.2,0,.3-.1.4-.2.1-.1.1-.3,0-.5l-.1-.3c-.1-.2-.2-.4-.4-.4-.2-.1-.3-.1-.5-.1s-.3.1-.4.2c-.1.1-.1.3,0,.5l.1.3c.1.2.2.4.4.4.1.1.3.1.5.1Zm1.7,0l-.8-2,.4-.1.1.3c0-.1,0-.2.1-.3s.2-.1.4-.2c.2,0,.5,0,.6.1.2.1.4.3.4.5l.5,1.3-.4.1-.5-1.2c-.2-.4-.4-.5-.8-.5q-.1,0-.2.1c-.1,0-.1.1-.2.1l-.1.1v.2l.6,1.4-.1.1Zm3.3-.3h-.5c-.1,0-.3-.1-.4-.2-.1-.1-.2-.2-.4-.3-.1-.1-.2-.3-.3-.4-.1-.1-.1-.3-.1-.4s0-.2.1-.4c.1-.1.1-.2.2-.3s.2-.1.4-.1h.4c.1,0,.3.1.4.2.1.1.2.2.3.3.1.1.2.2.2.4l.1.1-1.6.2v.1c0,.1.1.2.1.2q.1.1.2.2c.1.1.2.1.3.1h.3c.1,0,.3-.1.3-.1.1-.1.1-.2.1-.3l.3.1c0,.1-.1.3-.2.4.2.1,0,.1-.2.2Zm-.8-1.9c-.1,0-.2.1-.3.1s-.1.1-.2.2q-.1.1-.1.2v.2h0l1.2-.2h0c-.1-.2-.2-.3-.3-.4.1-.1-.1-.1-.3-.1Z"/><path class="cls-8" d="m286.8,147.1c-.1-.2,0-.4.2-.4l3.6-.5c.2,0,.4.1.5.3l2.7,6.6c.1.2,0,.4-.2.4l-3.6.5c-.2,0-.4-.1-.5-.3l-2.7-6.6Zm.5.4c0-.1,0-.2.1-.2l3.2-.4c.1,0,.2.1.3.1l2.1,5.1c0,.1,0,.2-.1.2l-3.2.4c-.1,0-.2-.1-.3-.1l-2.1-5.1Zm3.9,5.6c-.1-.1,0-.3.2-.3.1,0,.4.1.4.2.1.1,0,.3-.2.3-.1.1-.3,0-.4-.2Zm.5.3c.2,0,.4-.2.3-.4s-.4-.3-.6-.3-.4.2-.3.4c.1.2.4.4.6.3Z"/><path class="cls-7" d="m298.8,149.3c-.1-.3-.2-.5-.2-.7s-.1-.5-.1-.7.1-.4.1-.6c.1-.2.2-.3.2-.5l.4-.1c-.1.2-.2.3-.2.5-.1.2-.1.4-.1.6v.6c0,.2.1.4.2.6l.2.5c.1.2.2.4.3.6.2.2.3.4.5.6.2.2.4.3.5.5.2.1.4.3.6.4l-.4.1c-.2-.1-.4-.2-.6-.4-.2-.1-.4-.3-.6-.5s-.3-.4-.5-.6c0-.4-.2-.6-.3-.9Zm3.7-2.2l-1.8.2.5,1.4h0c.1-.1.1-.2.2-.3s.2-.1.5-.2h.5c.2,0,.4.1.5.2.1.1.3.2.4.3s.2.3.3.5c.1.2.1.3.1.5,0,.1,0,.3-.1.4-.1.1-.2.2-.3.3-.2.1-.3.1-.5.2h-.5c-.1,0-.3,0-.4-.1s-.2-.1-.3-.2c-.1-.1-.2-.1-.3-.2l.2-.3c.1.1.2.1.2.2.1.1.2.1.2.1.1.1.2.1.3.1h.3c.3,0,.5-.1.5-.3.1-.2.1-.4,0-.6h0c-.1-.2-.3-.4-.5-.5s-.4-.2-.7-.1c-.2,0-.3.1-.4.2-.1.1-.2.2-.2.3h-.4l-.7-2,2.2-.3.2.2Zm3.4-.4l-1.8.2.5,1.4h0c.1-.1.1-.2.2-.3s.2-.1.5-.2h.5c.2,0,.3.1.5.2.1.1.3.2.4.3s.2.3.3.5c.1.2.1.3.1.5,0,.1,0,.3-.1.4-.1.1-.2.2-.3.3-.2.1-.3.1-.5.2h-.5c-.1,0-.3,0-.4-.1s-.2-.1-.3-.2c-.1-.1-.2-.1-.3-.2l.2-.3c.1.1.2.1.2.2.1.1.2.1.2.1.1.1.2.1.3.1h.3c.3,0,.5-.1.5-.3.1-.2.1-.4,0-.6h0c-.1-.2-.3-.4-.5-.5s-.4-.2-.7-.1c-.2,0-.3.1-.4.2-.1.1-.2.2-.2.3h-.4l-.7-2,2.2-.3.2.2Zm3.5-.5l-1.8.2.5,1.4h0c.1-.1.1-.2.2-.3s.2-.1.5-.2h.5c.2,0,.4.1.5.2.1.1.3.2.4.3s.2.3.3.5c.1.2.1.3.1.5,0,.1,0,.3-.1.4s-.2.2-.3.3c-.2.1-.3.1-.5.2h-.5c-.1,0-.3,0-.4-.1s-.2-.1-.3-.2c-.1-.1-.2-.1-.3-.2l.2-.3c.1.1.2.1.2.2.1.1.2.1.2.1.1.1.2.1.3.1h.3c.3,0,.5-.1.5-.3.1-.2.1-.4,0-.6h0c-.1-.2-.3-.4-.5-.5s-.4-.2-.7-.1c-.2,0-.3.1-.4.2-.1.1-.2.2-.2.3h-.4l-.7-2,2.2-.3.2.2Zm2.7,1.4c.1.3.2.5.2.7s.1.5.1.7-.1.4-.1.6c-.1.2-.2.3-.2.5l-.4.1c.1-.2.2-.3.2-.5.1-.2.1-.4.1-.6v-.6c0-.2-.1-.4-.2-.6l-.2-.5c-.1-.2-.2-.4-.3-.6-.1-.2-.3-.4-.5-.6-.2-.2-.4-.3-.5-.5-.2-.2-.4-.3-.6-.4l.4-.1c.2.1.4.2.6.4.2.1.4.3.6.5s.3.4.5.6c.1.4.2.6.3.9Zm4.1-2.3l-1.8.2.5,1.4h0c.1-.1.1-.2.2-.3s.2-.1.5-.2h.5c.2,0,.4.1.5.2.1.1.3.2.4.3s.2.3.3.5c.1.2.1.3.1.5,0,.1,0,.3-.1.4-.1.1-.2.2-.3.3-.2.1-.3.1-.5.2h-.5c-.1,0-.3,0-.4-.1s-.2-.1-.3-.2c-.1-.1-.2-.1-.3-.2l.2-.3c.1.1.2.1.2.2.1.1.2.1.2.1.1.1.2.1.3.1h.3c.3,0,.5-.1.5-.3.1-.2.1-.4,0-.6h0c-.1-.2-.3-.4-.5-.5s-.4-.2-.7-.1c-.2,0-.3.1-.4.2-.1.1-.1.2-.2.3h-.4l-.7-2,2.2-.3.2.2Zm3.4-.4l-1.8.2.5,1.4h0c.1-.1.1-.2.2-.3s.2-.1.5-.2h.5c.2.1.3.1.5.2.1.1.3.2.4.3s.2.3.3.5c.1.2.1.3.1.5,0,.1,0,.3-.1.4-.1.1-.2.2-.3.3-.2.1-.3.1-.5.2h-.5c-.1,0-.3,0-.4-.1s-.2-.1-.3-.2c-.1-.1-.2-.1-.3-.2l.2-.3c.1.1.2.1.2.2.1.1.2.1.2.1.1.1.2.1.3.1h.3c.3,0,.5-.1.5-.3.1-.2.1-.4,0-.6h0c-.1-.2-.3-.4-.5-.5s-.4-.2-.7-.1c-.2,0-.3.1-.4.2-.1.1-.1.2-.2.3h-.4l-.7-2,2.2-.3.2.2Zm3.5-.4l-1.8.2.5,1.4h0c.1-.1.1-.2.2-.3s.2-.1.5-.2h.5c.2,0,.4.1.5.2.1.1.3.2.4.3s.2.3.3.5c.1.2.1.3.1.5,0,.1,0,.3-.1.4-.1.1-.2.2-.3.3-.2.1-.3.1-.5.2h-.5c-.1,0-.3,0-.4-.1s-.2-.1-.3-.2c-.1-.1-.2-.1-.3-.2l.2-.3c.1.1.2.1.2.2.1.1.2.1.2.1.1.1.2.1.3.1h.3c.3,0,.5-.1.5-.3.1-.2.1-.4,0-.6h0c-.1-.2-.3-.4-.5-.5s-.4-.2-.7-.1c-.2,0-.3.1-.4.2-.1.1-.2.2-.2.3h-.4l-.7-2,2.2-.3.2.2Zm1.7,1.7l-.2-.5,1.5-.2.2.5-1.5.2Zm4-2.5l-1.8.2.5,1.4h0c.1-.1.1-.2.2-.3s.2-.1.5-.2h.5c.2.1.3.1.5.2.1.1.3.2.4.3s.2.3.3.5c.1.2.1.3.1.5,0,.1,0,.3-.1.4-.1.1-.2.2-.3.3-.2.1-.3.1-.5.2h-.5c-.1,0-.3,0-.4-.1s-.2-.1-.3-.2c-.1-.1-.2-.1-.3-.2l.2-.3c.1.1.2.1.2.2.1.1.2.1.2.1.1.1.2.1.3.1h.3c.3,0,.5-.1.5-.3.1-.2.1-.4,0-.6h0c-.1-.2-.3-.4-.5-.5s-.4-.2-.7-.1c-.2,0-.3.1-.4.2-.1.1-.1.2-.2.3h-.4l-.7-2,2.2-.3.2.2Zm3.5-.5l-1.8.2.5,1.4h0c.1-.1.1-.2.2-.3s.2-.1.5-.2h.5c.2.1.3.1.5.2s.3.2.4.3.2.3.3.5c.1.2.1.3.1.5,0,.1,0,.3-.1.4-.1.1-.2.2-.3.3-.2.1-.3.1-.5.2h-.5c-.1,0-.3,0-.4-.1s-.2-.1-.3-.2c-.1-.1-.2-.1-.3-.2l.2-.3c.1.1.2.1.2.2.1.1.2.1.2.1.1.1.2.1.3.1h.3c.3,0,.5-.1.5-.3.1-.2.1-.4,0-.6h0c-.1-.2-.3-.4-.5-.5s-.4-.2-.7-.1c-.2,0-.3.1-.4.2-.1.1-.1.2-.2.3h-.4l-.7-2,2.2-.3.2.2Zm3.5-.4l-1.8.2.5,1.4h0c.1-.1.1-.2.2-.3s.2-.1.5-.2h.5c.2,0,.4.1.5.2.1.1.3.2.4.3s.2.3.3.5c.1.2.1.3.1.5,0,.1,0,.3-.1.4-.1.1-.2.2-.3.3-.2.1-.3.1-.5.2h-.5c-.1,0-.3,0-.4-.1s-.2-.1-.3-.2c-.1-.1-.2-.1-.3-.2l.2-.3c.1.1.2.1.2.2.1.1.2.1.2.1.1.1.2.1.3.1h.3c.3,0,.5-.1.5-.3.1-.2.1-.4,0-.6h0c-.1-.2-.3-.4-.5-.5s-.4-.2-.7-.1c-.2,0-.3.1-.4.2-.1.1-.2.2-.2.3h-.4l-.7-2,2.2-.3.2.2Zm3.4-.5l-1.8.2.5,1.4h0c.1-.1.1-.2.2-.3s.2-.1.5-.2h.5c.2,0,.4.1.5.2.1.1.3.2.4.3s.2.3.3.5c.1.2.1.3.1.5,0,.1,0,.3-.1.4-.1.1-.2.2-.3.3-.2.1-.3.1-.5.2h-.5c-.1,0-.3,0-.4-.1s-.2-.1-.3-.2c-.1-.1-.2-.1-.3-.2l.2-.3c.1.1.2.1.2.2.1.1.2.1.2.1.1.1.2.1.3.1h.3c.3,0,.5-.1.5-.3.1-.2.1-.4,0-.6h0c-.1-.2-.3-.4-.5-.5s-.4-.2-.7-.1c-.2,0-.3.1-.4.2-.1.1-.1.2-.2.3h-.4l-.7-2,2.2-.3.2.2Z"/><path class="cls-10" d="m287.8,142.3l105-13.7c4.7-.6,9.9,2.4,11.6,6.6,1.7,4.2-.6,8.2-5.3,8.8l-105,13.7c-4.7.6-9.9-2.4-11.6-6.6s.6-8.2,5.3-8.8Z"/><path d="m350,31.6l-.1-.3.9-.1-.9-2.2h0l-.5.8-.3-.2.5-.8.6-.1,1,2.4.8-.1.1.3-2.1.3Zm2.6.3l-.3-3.7h.3l.3,3.7h-.3Zm2-2.5c.2,0,.3-.1.4-.2s.1-.2,0-.4h0c-.1-.1-.1-.2-.3-.3-.1-.1-.3-.1-.5-.1-.1,0-.3.1-.3.1-.1.1-.1.2-.1.3l-.3-.2c0-.1.1-.1.1-.2q.1-.1.1-.2l.2-.2c.1,0,.2-.1.3-.1h.4c.1,0,.2,0,.3.1.1.1.2.1.3.2.1.1.2.2.2.3s.1.2,0,.2q0,.1-.1.2t-.1.2s-.1.1-.2.1h.3c.1,0,.2.1.3.1.1.1.2.1.2.2.1.1.1.2.2.3.1.1.1.2.1.3s-.1.2-.1.3c-.1.1-.2.2-.3.2-.1.1-.3.1-.4.1h-.4c-.1,0-.2,0-.3-.1-.1-.1-.2-.1-.3-.1-.1-.1-.2-.1-.2-.1l.2-.2q.1.1.2.1.1.1.2.1c.1,0,.1.1.2.1h.2c.2,0,.4-.1.5-.2s.1-.2,0-.4h0c-.1-.1-.2-.3-.3-.4-.1-.1-.3-.1-.6-.1l-.4.1-.1-.3.4.2Z"/><path class="cls-9" d="m350.7,24.3c-1.4.2-2.5.8-3.4,1.6-.8.9-1.2,2-1.1,3.2"/></svg>